%TF.GenerationSoftware,KiCad,Pcbnew,10.0.5-10.0.5~ubuntu24.04.1*%
%TF.CreationDate,2026-08-08T16:18:17+02:00*%
%TF.ProjectId,PIC12_UNIVERSAL_Devboard_v1_THT,50494331-325f-4554-9e49-56455253414c,rev?*%
%TF.SameCoordinates,Original*%
%TF.FileFunction,Copper,L1,Top*%
%TF.FilePolarity,Positive*%
%FSLAX46Y46*%
G04 Gerber Fmt 4.6, Leading zero omitted, Abs format (unit mm)*
G04 Created by KiCad (PCBNEW 10.0.5-10.0.5~ubuntu24.04.1) date 2026-08-08 16:18:17*
%MOMM*%
%LPD*%
G01*
G04 APERTURE LIST*
G04 Aperture macros list*
%AMRoundRect*
0 Rectangle with rounded corners*
0 $1 Rounding radius*
0 $2 $3 $4 $5 $6 $7 $8 $9 X,Y pos of 4 corners*
0 Add a 4 corners polygon primitive as box body*
4,1,4,$2,$3,$4,$5,$6,$7,$8,$9,$2,$3,0*
0 Add four circle primitives for the rounded corners*
1,1,$1+$1,$2,$3*
1,1,$1+$1,$4,$5*
1,1,$1+$1,$6,$7*
1,1,$1+$1,$8,$9*
0 Add four rect primitives between the rounded corners*
20,1,$1+$1,$2,$3,$4,$5,0*
20,1,$1+$1,$4,$5,$6,$7,0*
20,1,$1+$1,$6,$7,$8,$9,0*
20,1,$1+$1,$8,$9,$2,$3,0*%
%AMFreePoly0*
4,1,245,0.928425,0.999946,0.972951,0.998879,0.975260,0.998770,1.019685,0.995646,1.022022,0.995426,1.066269,0.990219,1.068580,0.989893,1.112522,0.982629,1.114858,0.982185,1.158419,0.972837,1.160677,0.972297,1.203730,0.960944,1.205978,0.960295,1.248472,0.946934,1.250699,0.946176,1.292507,0.930835,1.294700,0.929971,1.335747,0.912673,1.337854,0.911727,1.378062,0.892550,
1.380178,0.891479,1.419421,0.870423,1.421464,0.869263,1.459691,0.846377,1.461664,0.845133,1.498773,0.820495,1.500686,0.819159,1.536602,0.792819,1.538469,0.791382,1.573089,0.763392,1.574882,0.761870,1.608181,0.732253,1.609891,0.730660,1.641743,0.699545,1.643378,0.697871,1.673756,0.665283,1.675313,0.663532,1.704117,0.629572,1.705596,0.627743,1.732774,0.592463,
1.734160,0.590573,1.759662,0.554047,1.760961,0.552090,1.784710,0.514422,1.785913,0.512413,1.807884,0.473653,1.808981,0.471607,1.829123,0.431881,1.833256,0.420476,1.842571,0.379971,3.500095,0.379971,3.535450,0.365326,3.550095,0.329971,3.550095,-0.330022,3.535450,-0.365377,3.500095,-0.380022,1.842578,-0.380022,1.833258,-0.420572,1.829123,-0.431983,1.808981,-0.471708,
1.807884,-0.473753,1.785913,-0.512514,1.784710,-0.514524,1.760961,-0.552192,1.759662,-0.554150,1.734160,-0.590675,1.732774,-0.592564,1.705596,-0.627845,1.704117,-0.629674,1.675313,-0.663634,1.673756,-0.665385,1.643378,-0.697973,1.641743,-0.699647,1.609891,-0.730762,1.608181,-0.732356,1.574882,-0.761972,1.573089,-0.763492,1.538469,-0.791483,1.536602,-0.792921,1.500686,-0.819261,
1.498773,-0.820597,1.461664,-0.845235,1.459691,-0.846480,1.421464,-0.869365,1.419422,-0.870523,1.380179,-0.891580,1.378062,-0.892652,1.337854,-0.911829,1.335746,-0.912775,1.294699,-0.930072,1.292508,-0.930935,1.250700,-0.946277,1.248471,-0.947036,1.205977,-0.960396,1.203731,-0.961045,1.160678,-0.972399,1.158418,-0.972939,1.114857,-0.982286,1.112523,-0.982729,1.068581,-0.989994,
1.066269,-0.990321,1.022022,-0.995528,1.019685,-0.995748,0.975260,-0.998872,0.972951,-0.998981,0.928425,-1.000048,0.927227,-1.000062,-0.926973,-1.000062,-0.928171,-1.000048,-0.972697,-0.998981,-0.975006,-0.998872,-1.019431,-0.995748,-1.021768,-0.995528,-1.066015,-0.990321,-1.068327,-0.989994,-1.112269,-0.982729,-1.114603,-0.982286,-1.158164,-0.972939,-1.160424,-0.972399,-1.203477,-0.961045,
-1.205723,-0.960396,-1.248217,-0.947036,-1.250446,-0.946277,-1.292254,-0.930935,-1.294445,-0.930072,-1.335492,-0.912775,-1.337600,-0.911829,-1.377808,-0.892652,-1.379925,-0.891580,-1.419168,-0.870523,-1.421210,-0.869365,-1.459437,-0.846480,-1.461410,-0.845235,-1.498519,-0.820597,-1.500432,-0.819261,-1.536348,-0.792921,-1.538215,-0.791483,-1.572835,-0.763492,-1.574628,-0.761972,-1.607927,-0.732356,
-1.609637,-0.730762,-1.641489,-0.699647,-1.643124,-0.697973,-1.673502,-0.665385,-1.675059,-0.663634,-1.703863,-0.629674,-1.705342,-0.627845,-1.732520,-0.592564,-1.733906,-0.590675,-1.759408,-0.554150,-1.760707,-0.552192,-1.784456,-0.514524,-1.785659,-0.512514,-1.807630,-0.473753,-1.808727,-0.471708,-1.828869,-0.431983,-1.829891,-0.429843,-1.848128,-0.389203,-1.849027,-0.387070,-1.865359,-0.345642,
-1.866176,-0.343414,-1.880527,-0.301250,-1.881228,-0.299023,-1.893598,-0.256224,-1.894199,-0.253944,-1.904537,-0.210612,-1.905024,-0.208337,-1.913330,-0.164598,-1.913714,-0.162281,-1.919962,-0.118161,-1.920237,-0.115826,-1.924403,-0.071478,-1.924567,-0.069140,-1.926649,-0.024665,-1.926704,-0.022327,-1.926704,0.022225,-1.926649,0.024563,-1.924567,0.069038,-1.924403,0.071376,-1.920237,0.115725,
-1.919962,0.118060,-1.913714,0.162180,-1.913330,0.164497,-1.905024,0.208235,-1.904537,0.210510,-1.894199,0.253843,-1.893598,0.256123,-1.881228,0.298922,-1.880527,0.301149,-1.866176,0.343313,-1.865359,0.345541,-1.849027,0.386968,-1.848128,0.389101,-1.829891,0.429741,-1.828869,0.431881,-1.808727,0.471607,-1.807630,0.473653,-1.785659,0.512413,-1.784456,0.514422,-1.760707,0.552090,
-1.759408,0.554047,-1.733906,0.590573,-1.732520,0.592463,-1.705342,0.627743,-1.703863,0.629572,-1.675059,0.663532,-1.673502,0.665283,-1.643124,0.697871,-1.641489,0.699545,-1.609637,0.730660,-1.607927,0.732253,-1.574628,0.761870,-1.572835,0.763392,-1.538215,0.791382,-1.536348,0.792819,-1.500432,0.819159,-1.498519,0.820495,-1.461410,0.845133,-1.459437,0.846377,-1.421210,0.869263,
-1.419167,0.870423,-1.379924,0.891479,-1.377808,0.892550,-1.337600,0.911727,-1.335493,0.912673,-1.294446,0.929971,-1.292253,0.930835,-1.250445,0.946176,-1.248218,0.946934,-1.205724,0.960295,-1.203476,0.960944,-1.160423,0.972297,-1.158165,0.972837,-1.114604,0.982185,-1.112268,0.982629,-1.068326,0.989893,-1.066015,0.990219,-1.021768,0.995426,-1.019431,0.995646,-0.975006,0.998770,
-0.972697,0.998879,-0.928171,0.999946,-0.926973,0.999960,0.927227,0.999960,0.928425,0.999946,0.928425,0.999946,$1*%
G04 Aperture macros list end*
%TA.AperFunction,SMDPad,CuDef*%
%ADD10C,1.500000*%
%TD*%
%TA.AperFunction,ComponentPad*%
%ADD11R,1.800000X1.800000*%
%TD*%
%TA.AperFunction,ComponentPad*%
%ADD12C,1.800000*%
%TD*%
%TA.AperFunction,SMDPad,CuDef*%
%ADD13RoundRect,0.250000X-0.625000X0.400000X-0.625000X-0.400000X0.625000X-0.400000X0.625000X0.400000X0*%
%TD*%
%TA.AperFunction,SMDPad,CuDef*%
%ADD14R,0.672000X1.575000*%
%TD*%
%TA.AperFunction,SMDPad,CuDef*%
%ADD15FreePoly0,90.000000*%
%TD*%
%TA.AperFunction,SMDPad,CuDef*%
%ADD16R,0.650000X1.000000*%
%TD*%
%TA.AperFunction,SMDPad,CuDef*%
%ADD17R,1.410000X1.350000*%
%TD*%
%TA.AperFunction,SMDPad,CuDef*%
%ADD18R,1.250000X0.700000*%
%TD*%
%TA.AperFunction,SMDPad,CuDef*%
%ADD19R,1.350000X1.410000*%
%TD*%
%TA.AperFunction,SMDPad,CuDef*%
%ADD20RoundRect,0.250000X1.500000X0.650000X-1.500000X0.650000X-1.500000X-0.650000X1.500000X-0.650000X0*%
%TD*%
%TA.AperFunction,ComponentPad*%
%ADD21R,1.700000X1.700000*%
%TD*%
%TA.AperFunction,ComponentPad*%
%ADD22C,1.700000*%
%TD*%
%TA.AperFunction,ComponentPad*%
%ADD23RoundRect,0.250000X-0.550000X-0.550000X0.550000X-0.550000X0.550000X0.550000X-0.550000X0.550000X0*%
%TD*%
%TA.AperFunction,ComponentPad*%
%ADD24C,1.600000*%
%TD*%
%TA.AperFunction,SMDPad,CuDef*%
%ADD25RoundRect,0.250000X0.400000X0.625000X-0.400000X0.625000X-0.400000X-0.625000X0.400000X-0.625000X0*%
%TD*%
%TA.AperFunction,SMDPad,CuDef*%
%ADD26RoundRect,0.250000X-0.525000X-0.250000X0.525000X-0.250000X0.525000X0.250000X-0.525000X0.250000X0*%
%TD*%
%TA.AperFunction,ComponentPad*%
%ADD27C,1.400000*%
%TD*%
%TA.AperFunction,ComponentPad*%
%ADD28RoundRect,0.250000X-1.050000X1.050000X-1.050000X-1.050000X1.050000X-1.050000X1.050000X1.050000X0*%
%TD*%
%TA.AperFunction,ComponentPad*%
%ADD29C,2.600000*%
%TD*%
%TA.AperFunction,SMDPad,CuDef*%
%ADD30RoundRect,0.250000X-1.500000X-0.650000X1.500000X-0.650000X1.500000X0.650000X-1.500000X0.650000X0*%
%TD*%
%TA.AperFunction,ViaPad*%
%ADD31C,0.800000*%
%TD*%
%TA.AperFunction,ViaPad*%
%ADD32C,1.000000*%
%TD*%
%TA.AperFunction,Conductor*%
%ADD33C,0.300000*%
%TD*%
G04 APERTURE END LIST*
D10*
%TO.P,TP7,1,1_1*%
%TO.N,PIC_ICSPDAT*%
X129800000Y-77000000D03*
%TD*%
D11*
%TO.P,D2,1,K_1*%
%TO.N,GND*%
X119400000Y-103600000D03*
D12*
%TO.P,D2,2,A_2*%
%TO.N,Net-(D2-A)*%
X121940000Y-103600000D03*
%TD*%
D13*
%TO.P,R2,1*%
%TO.N,VDD*%
X114000000Y-87650000D03*
%TO.P,R2,2*%
%TO.N,PIC_RST*%
X114000000Y-90750000D03*
%TD*%
D14*
%TO.P,U2,1,OUT_1*%
%TO.N,VDD*%
X100800000Y-90800000D03*
D15*
%TO.P,U2,2,GND_2*%
%TO.N,GND*%
X99300000Y-93520000D03*
D14*
%TO.P,U2,3,IN_3*%
%TO.N,VCC_5*%
X97800000Y-90800000D03*
%TD*%
D16*
%TO.P,U4,1,G_1*%
%TO.N,VCC_5*%
X114850000Y-77800000D03*
%TO.P,U4,2,S_2*%
%TO.N,VDD*%
X116750000Y-77800000D03*
%TO.P,U4,3,D_3*%
%TO.N,Net-(U3-VOUT)*%
X115800000Y-75800000D03*
%TD*%
D10*
%TO.P,TP4,1,1_1*%
%TO.N,VCC_3_3*%
X103400000Y-72000000D03*
%TD*%
D17*
%TO.P,C5,1*%
%TO.N,VDD*%
X128190000Y-82190000D03*
%TO.P,C5,2*%
%TO.N,GND*%
X130190000Y-82190000D03*
%TD*%
D18*
%TO.P,U3,1,VSS_1*%
%TO.N,GND*%
X108000000Y-77750000D03*
%TO.P,U3,2,VOUT_2*%
%TO.N,Net-(U3-VOUT)*%
X108000000Y-75850000D03*
%TO.P,U3,3,VIN_3*%
%TO.N,VCC_3_3*%
X106000000Y-76800000D03*
%TD*%
D10*
%TO.P,TP10,1,1_1*%
%TO.N,PIC_GP4*%
X139400000Y-92400000D03*
%TD*%
D19*
%TO.P,C2,1*%
%TO.N,VDD*%
X103700000Y-91120000D03*
%TO.P,C2,2*%
%TO.N,GND*%
X103700000Y-93120000D03*
%TD*%
D10*
%TO.P,TP6,1,1_1*%
%TO.N,GND*%
X86000000Y-98800000D03*
%TD*%
D20*
%TO.P,D1,1,K_1*%
%TO.N,VCC*%
X89600000Y-76200000D03*
%TO.P,D1,2,A_2*%
%TO.N,Net-(D1-A)*%
X84600000Y-76200000D03*
%TD*%
D21*
%TO.P,J2,1,~{MCLR}/VPP_1*%
%TO.N,PIC_RST*%
X122120000Y-72400000D03*
D22*
%TO.P,J2,2,VDD_2*%
%TO.N,VDD*%
X124660000Y-72400000D03*
%TO.P,J2,3,VSS_3*%
%TO.N,GND*%
X127200000Y-72400000D03*
%TO.P,J2,4,PGD/ICSPDAT_4*%
%TO.N,PIC_ICSPDAT*%
X129740000Y-72400000D03*
%TO.P,J2,5,PGC/ICSPCLK_5*%
%TO.N,PIC_ICSPCLK*%
X132280000Y-72400000D03*
%TO.P,J2,6,PGM/LVP_6*%
%TO.N,unconnected-(J2-PGM{slash}LVP-Pad6)*%
X134820000Y-72400000D03*
%TD*%
D10*
%TO.P,TP2,1,1_1*%
%TO.N,Net-(JP3-B)*%
X128400000Y-99800000D03*
%TD*%
%TO.P,TP9,1,1_1*%
%TO.N,PIC_LED*%
X133000000Y-97800000D03*
%TD*%
D19*
%TO.P,C3,1*%
%TO.N,Net-(U3-VOUT)*%
X111000000Y-75800000D03*
%TO.P,C3,2*%
%TO.N,GND*%
X111000000Y-77800000D03*
%TD*%
D21*
%TO.P,J4,1,Pin_1_1*%
%TO.N,VDD*%
X145000000Y-81800000D03*
D22*
%TO.P,J4,2,Pin_2_2*%
%TO.N,PIC_ICSPDAT*%
X145000000Y-84340000D03*
%TO.P,J4,3,Pin_3_3*%
%TO.N,PIC_ICSPCLK*%
X145000000Y-86880000D03*
%TO.P,J4,4,Pin_4_4*%
%TO.N,PIC_LED*%
X145000000Y-89420000D03*
%TO.P,J4,5,Pin_5_5*%
%TO.N,PIC_GP4*%
X145000000Y-91960000D03*
%TO.P,J4,6,Pin_6_6*%
%TO.N,PIC_GP5*%
X145000000Y-94500000D03*
%TO.P,J4,7,Pin_7_7*%
%TO.N,GND*%
X145000000Y-97040000D03*
%TD*%
D23*
%TO.P,U1,1,VDD_1*%
%TO.N,VDD*%
X125190000Y-85990000D03*
D24*
%TO.P,U1,2,GP5_2*%
%TO.N,PIC_GP5*%
X125190000Y-88530000D03*
%TO.P,U1,3,GP4_3*%
%TO.N,PIC_GP4*%
X125190000Y-91070000D03*
%TO.P,U1,4,GP3_4*%
%TO.N,PIC_RST*%
X125190000Y-93610000D03*
%TO.P,U1,5,GP2_5*%
%TO.N,PIC_LED*%
X132810000Y-93610000D03*
%TO.P,U1,6,GP1_6*%
%TO.N,PIC_ICSPCLK*%
X132810000Y-91070000D03*
%TO.P,U1,7,GP0_7*%
%TO.N,PIC_ICSPDAT*%
X132810000Y-88530000D03*
%TO.P,U1,8,VSS_8*%
%TO.N,GND*%
X132810000Y-85990000D03*
%TD*%
D10*
%TO.P,TP1,1,1_1*%
%TO.N,VDD*%
X109400000Y-87600000D03*
%TD*%
D25*
%TO.P,R1,1*%
%TO.N,Net-(JP3-B)*%
X128700000Y-103600000D03*
%TO.P,R1,2*%
%TO.N,Net-(D2-A)*%
X125600000Y-103600000D03*
%TD*%
D11*
%TO.P,D3,1,K_1*%
%TO.N,GND*%
X89600000Y-101000000D03*
D12*
%TO.P,D3,2,A_2*%
%TO.N,Net-(D3-A)*%
X92140000Y-101000000D03*
%TD*%
D19*
%TO.P,C1,1*%
%TO.N,VCC_5*%
X94900000Y-91320000D03*
%TO.P,C1,2*%
%TO.N,GND*%
X94900000Y-93320000D03*
%TD*%
D25*
%TO.P,R4,1*%
%TO.N,VCC_5*%
X114800000Y-81800000D03*
%TO.P,R4,2*%
%TO.N,GND*%
X111700000Y-81800000D03*
%TD*%
D19*
%TO.P,C4,1*%
%TO.N,VCC_3_3*%
X103400000Y-76800000D03*
%TO.P,C4,2*%
%TO.N,GND*%
X103400000Y-78800000D03*
%TD*%
D10*
%TO.P,TP8,1,1_1*%
%TO.N,PIC_ICSPCLK*%
X138600000Y-87000000D03*
%TD*%
%TO.P,TP5,1,1_1*%
%TO.N,VCC_5*%
X94900000Y-88520000D03*
%TD*%
D26*
%TO.P,SW1,1,1_1*%
%TO.N,PIC_RST*%
X109800000Y-94600000D03*
X115050000Y-94600000D03*
%TO.P,SW1,2,2_2*%
%TO.N,GND*%
X109800000Y-97800000D03*
X115050000Y-97800000D03*
%TD*%
D27*
%TO.P,JP1,1,A_1*%
%TO.N,Net-(JP1-A)*%
X104800000Y-101050000D03*
%TO.P,JP1,2,B_2*%
%TO.N,VDD*%
X104800000Y-98510000D03*
%TD*%
D25*
%TO.P,R3,1*%
%TO.N,Net-(JP1-A)*%
X100500000Y-101000000D03*
%TO.P,R3,2*%
%TO.N,Net-(D3-A)*%
X97400000Y-101000000D03*
%TD*%
D21*
%TO.P,JP2,1,A_1*%
%TO.N,VCC_3_3*%
X98400000Y-76600000D03*
D22*
%TO.P,JP2,2,C_2*%
%TO.N,VCC*%
X98400000Y-79140000D03*
%TO.P,JP2,3,B_3*%
%TO.N,VCC_5*%
X98400000Y-81680000D03*
%TD*%
D28*
%TO.P,J3,1,Pin_1_1*%
%TO.N,Net-(D1-A)*%
X83000000Y-85400000D03*
D29*
%TO.P,J3,2,Pin_2_2*%
%TO.N,GND*%
X83000000Y-90480000D03*
%TD*%
D10*
%TO.P,TP3,1,1_1*%
%TO.N,VCC*%
X92400000Y-71400000D03*
%TD*%
D27*
%TO.P,JP3,1,A_1*%
%TO.N,PIC_LED*%
X133000000Y-101000000D03*
%TO.P,JP3,2,B_2*%
%TO.N,Net-(JP3-B)*%
X133000000Y-103540000D03*
%TD*%
D30*
%TO.P,D4,1,K_1*%
%TO.N,VCC_5*%
X98300000Y-87320000D03*
%TO.P,D4,2,A_2*%
%TO.N,VDD*%
X103300000Y-87320000D03*
%TD*%
D10*
%TO.P,TP11,1,1_1*%
%TO.N,PIC_GP5*%
X121800000Y-88600000D03*
%TD*%
D31*
%TO.N,PIC_ICSPDAT*%
X136900000Y-85900000D03*
X133600000Y-78800000D03*
D32*
%TO.N,GND*%
X108000000Y-79100000D03*
X119300000Y-106100000D03*
X101600000Y-78900000D03*
X111100000Y-79500000D03*
X134800000Y-85900000D03*
X132900000Y-83800000D03*
X103500000Y-80600000D03*
X105500000Y-93200000D03*
X117400000Y-103600000D03*
X142800000Y-99000000D03*
X119300000Y-101300000D03*
X103800000Y-95000000D03*
X105300000Y-78900000D03*
X113300000Y-97800000D03*
X94900000Y-95100000D03*
X127200000Y-69900000D03*
X109900000Y-81800000D03*
X130400000Y-83800000D03*
X93200000Y-93400000D03*
X97100000Y-94800000D03*
X102000000Y-94700000D03*
X144900000Y-99500000D03*
X99300000Y-96400000D03*
X86000000Y-101100000D03*
X132100000Y-82200000D03*
X111500000Y-97800000D03*
X127300000Y-74900000D03*
D31*
%TO.N,PIC_RST*%
X122120000Y-81120000D03*
X122100000Y-83200000D03*
%TO.N,PIC_GP4*%
X137500000Y-92400000D03*
%TO.N,PIC_ICSPCLK*%
X138200000Y-80800000D03*
X137250000Y-88350000D03*
%TO.N,PIC_GP5*%
X134100000Y-95800000D03*
X131900000Y-95800000D03*
%TD*%
%TO.N,GND*%
D33*
X142800000Y-99000000D02*
X144700000Y-97100000D01*
X144700000Y-97100000D02*
X144940000Y-97100000D01*
%TO.N,PIC_GP4*%
X137500000Y-92400000D02*
X139900000Y-92400000D01*
X139900000Y-92400000D02*
X140300000Y-92000000D01*
%TO.N,PIC_ICSPDAT*%
X132810000Y-88530000D02*
X134370000Y-88530000D01*
X129800000Y-77000000D02*
X132200000Y-77000000D01*
X133600000Y-78400000D02*
X133600000Y-78800000D01*
X138560000Y-84340000D02*
X145000000Y-84340000D01*
X132200000Y-77000000D02*
X133600000Y-78400000D01*
X129740000Y-72400000D02*
X129740000Y-76940000D01*
X134370000Y-88530000D02*
X138560000Y-84340000D01*
%TO.N,GND*%
X102000000Y-93800000D02*
X102500000Y-93300000D01*
X93200000Y-93400000D02*
X94820000Y-93400000D01*
X109900000Y-81800000D02*
X111700000Y-81800000D01*
X97100000Y-94800000D02*
X97100000Y-94200000D01*
X96400000Y-93600000D02*
X95180000Y-93600000D01*
X111500000Y-97800000D02*
X109800000Y-97800000D01*
X97700000Y-93600000D02*
X99220000Y-93600000D01*
X108000000Y-79100000D02*
X108000000Y-77750000D01*
X119300000Y-106100000D02*
X119400000Y-106000000D01*
X127300000Y-74900000D02*
X127300000Y-72500000D01*
X134800000Y-85900000D02*
X132900000Y-85900000D01*
X102000000Y-94700000D02*
X102000000Y-93900000D01*
X130400000Y-83800000D02*
X130400000Y-82400000D01*
X103400000Y-78800000D02*
X101700000Y-78800000D01*
X144900000Y-99500000D02*
X144900000Y-97140000D01*
X113300000Y-97800000D02*
X115050000Y-97800000D01*
X127200000Y-69900000D02*
X127200000Y-72400000D01*
X119300000Y-101300000D02*
X119300000Y-103500000D01*
X102000000Y-93900000D02*
X101400000Y-93300000D01*
X105200000Y-78800000D02*
X105300000Y-78900000D01*
X94900000Y-95100000D02*
X94900000Y-93320000D01*
X117400000Y-103600000D02*
X119400000Y-103600000D01*
X102000000Y-94700000D02*
X102000000Y-93800000D01*
X97100000Y-94200000D02*
X97700000Y-93600000D01*
X119400000Y-106000000D02*
X119400000Y-103600000D01*
X101700000Y-78800000D02*
X101600000Y-78900000D01*
X103400000Y-78800000D02*
X103400000Y-80500000D01*
X103400000Y-78800000D02*
X105200000Y-78800000D01*
X103400000Y-80500000D02*
X103500000Y-80600000D01*
X102500000Y-93300000D02*
X103520000Y-93300000D01*
X132100000Y-82200000D02*
X130200000Y-82200000D01*
X101400000Y-93300000D02*
X99520000Y-93300000D01*
X103800000Y-95000000D02*
X103800000Y-93220000D01*
X86000000Y-98800000D02*
X86000000Y-101100000D01*
X105500000Y-93200000D02*
X103780000Y-93200000D01*
X132900000Y-83800000D02*
X132900000Y-85900000D01*
X99300000Y-96400000D02*
X99300000Y-93520000D01*
X111100000Y-79500000D02*
X111100000Y-77900000D01*
X97100000Y-94800000D02*
X97100000Y-94300000D01*
X97100000Y-94300000D02*
X96400000Y-93600000D01*
%TO.N,Net-(D2-A)*%
X125600000Y-103600000D02*
X121940000Y-103600000D01*
%TO.N,VDD*%
X116750000Y-77800000D02*
X116750000Y-79650000D01*
X128200000Y-80400000D02*
X128700000Y-79900000D01*
X102420000Y-91120000D02*
X103700000Y-91120000D01*
X128190000Y-83010000D02*
X127400000Y-83800000D01*
X128190000Y-82190000D02*
X128190000Y-83010000D01*
X127400000Y-83800000D02*
X126000000Y-83800000D01*
X106900000Y-97800000D02*
X106190000Y-98510000D01*
X118000000Y-77800000D02*
X119200000Y-76600000D01*
X134700000Y-79900000D02*
X136600000Y-81800000D01*
X116750000Y-77800000D02*
X118000000Y-77800000D01*
X123500000Y-69800000D02*
X124660000Y-70960000D01*
X119200000Y-76600000D02*
X119200000Y-70400000D01*
X126000000Y-83800000D02*
X125200000Y-84600000D01*
X114000000Y-87650000D02*
X109450000Y-87650000D01*
X103700000Y-89400000D02*
X103300000Y-89000000D01*
X100800000Y-90800000D02*
X102100000Y-90800000D01*
X105420000Y-91120000D02*
X106900000Y-92600000D01*
X128200000Y-82180000D02*
X128200000Y-80400000D01*
X106190000Y-98510000D02*
X104800000Y-98510000D01*
X124660000Y-70960000D02*
X124660000Y-72400000D01*
X103700000Y-91120000D02*
X103700000Y-89400000D01*
X128700000Y-79900000D02*
X134700000Y-79900000D01*
X120450000Y-83350000D02*
X121610000Y-82190000D01*
X136600000Y-81800000D02*
X145000000Y-81800000D01*
X109400000Y-87600000D02*
X103580000Y-87600000D01*
X102100000Y-90800000D02*
X102420000Y-91120000D01*
X103300000Y-89000000D02*
X103300000Y-87320000D01*
X119200000Y-70400000D02*
X119800000Y-69800000D01*
X114000000Y-87650000D02*
X116150000Y-87650000D01*
X121610000Y-82190000D02*
X128190000Y-82190000D01*
X125200000Y-84600000D02*
X125200000Y-85980000D01*
X119800000Y-69800000D02*
X123500000Y-69800000D01*
X116150000Y-87650000D02*
X120450000Y-83350000D01*
X103700000Y-91120000D02*
X105420000Y-91120000D01*
X106900000Y-92600000D02*
X106900000Y-97800000D01*
X116750000Y-79650000D02*
X120450000Y-83350000D01*
%TO.N,PIC_RST*%
X120000000Y-87300000D02*
X120000000Y-93700000D01*
X120000000Y-93700000D02*
X120090000Y-93610000D01*
X115050000Y-94600000D02*
X119100000Y-94600000D01*
X114000000Y-90750000D02*
X117050000Y-90750000D01*
X119100000Y-94600000D02*
X120000000Y-93700000D01*
X115050000Y-94600000D02*
X109800000Y-94600000D01*
X122120000Y-72400000D02*
X122120000Y-81120000D01*
X120090000Y-93610000D02*
X125190000Y-93610000D01*
X122100000Y-83200000D02*
X122100000Y-85200000D01*
X122100000Y-85200000D02*
X120000000Y-87300000D01*
X117050000Y-90750000D02*
X120000000Y-93700000D01*
%TO.N,VCC_5*%
X98300000Y-85400000D02*
X98300000Y-87320000D01*
X96500000Y-90800000D02*
X97800000Y-90800000D01*
X101680000Y-81680000D02*
X104400000Y-84400000D01*
X94900000Y-88520000D02*
X94900000Y-91320000D01*
X98400000Y-81680000D02*
X98400000Y-85300000D01*
X114800000Y-83000000D02*
X114800000Y-81800000D01*
X104400000Y-84400000D02*
X113400000Y-84400000D01*
X113400000Y-84400000D02*
X114800000Y-83000000D01*
X94900000Y-91320000D02*
X95980000Y-91320000D01*
X98300000Y-87320000D02*
X96100000Y-87320000D01*
X114850000Y-77800000D02*
X114850000Y-81750000D01*
X98400000Y-81680000D02*
X101680000Y-81680000D01*
X98400000Y-85300000D02*
X98300000Y-85400000D01*
X95980000Y-91320000D02*
X96500000Y-90800000D01*
X96100000Y-87320000D02*
X94900000Y-88520000D01*
%TO.N,Net-(U3-VOUT)*%
X108000000Y-75850000D02*
X110950000Y-75850000D01*
X111000000Y-75800000D02*
X115800000Y-75800000D01*
%TO.N,VCC_3_3*%
X101400000Y-76800000D02*
X103400000Y-76800000D01*
X101200000Y-76600000D02*
X101400000Y-76800000D01*
X98400000Y-76600000D02*
X101200000Y-76600000D01*
X103400000Y-76800000D02*
X103400000Y-72000000D01*
X103400000Y-76800000D02*
X106000000Y-76800000D01*
%TO.N,PIC_GP4*%
X145000000Y-91960000D02*
X140340000Y-91960000D01*
%TO.N,VCC*%
X89600000Y-78600000D02*
X90140000Y-79140000D01*
X89600000Y-76200000D02*
X89600000Y-78600000D01*
X89600000Y-72800000D02*
X91000000Y-71400000D01*
X90140000Y-79140000D02*
X98400000Y-79140000D01*
X91000000Y-71400000D02*
X92400000Y-71400000D01*
X89600000Y-76200000D02*
X89600000Y-72800000D01*
%TO.N,Net-(D1-A)*%
X84600000Y-79400000D02*
X84600000Y-76200000D01*
X83000000Y-81000000D02*
X84600000Y-79400000D01*
X83000000Y-85400000D02*
X83000000Y-81000000D01*
%TO.N,PIC_ICSPCLK*%
X137250000Y-88350000D02*
X138600000Y-87000000D01*
X132810000Y-91070000D02*
X134530000Y-91070000D01*
X138200000Y-80800000D02*
X132280000Y-74880000D01*
X132280000Y-74880000D02*
X132280000Y-72400000D01*
X134530000Y-91070000D02*
X137250000Y-88350000D01*
X138720000Y-86880000D02*
X145000000Y-86880000D01*
%TO.N,Net-(JP3-B)*%
X133000000Y-103540000D02*
X128760000Y-103540000D01*
X128700000Y-103600000D02*
X128700000Y-101700000D01*
X128700000Y-101700000D02*
X128400000Y-101400000D01*
X128400000Y-101400000D02*
X128400000Y-99800000D01*
%TO.N,PIC_LED*%
X132810000Y-93610000D02*
X132810000Y-96210000D01*
X132810000Y-93610000D02*
X134930000Y-93610000D01*
X133000000Y-97800000D02*
X133000000Y-101000000D01*
X134930000Y-93610000D02*
X139120000Y-89420000D01*
X132810000Y-96210000D02*
X133000000Y-96400000D01*
X133000000Y-96400000D02*
X133000000Y-97800000D01*
X139120000Y-89420000D02*
X145000000Y-89420000D01*
%TO.N,PIC_GP5*%
X131900000Y-95700000D02*
X129100000Y-92900000D01*
X129100000Y-92900000D02*
X129100000Y-90200000D01*
X142300000Y-94500000D02*
X145000000Y-94500000D01*
X125190000Y-88530000D02*
X121870000Y-88530000D01*
X127430000Y-88530000D02*
X125190000Y-88530000D01*
X131900000Y-95800000D02*
X131900000Y-95700000D01*
X134100000Y-95800000D02*
X141000000Y-95800000D01*
X141000000Y-95800000D02*
X142300000Y-94500000D01*
X129100000Y-90200000D02*
X127430000Y-88530000D01*
%TO.N,Net-(D3-A)*%
X97400000Y-101000000D02*
X92140000Y-101000000D01*
%TO.N,Net-(JP1-A)*%
X100500000Y-101000000D02*
X104750000Y-101000000D01*
%TD*%
M02*
