%TF.GenerationSoftware,KiCad,Pcbnew,10.0.5-10.0.5~ubuntu24.04.1*%
%TF.CreationDate,2026-08-08T16:18:19+02:00*%
%TF.ProjectId,PIC12_UNIVERSAL_Devboard_v1_THT,50494331-325f-4554-9e49-56455253414c,rev?*%
%TF.SameCoordinates,Original*%
%TF.FileFunction,Soldermask,Bot*%
%TF.FilePolarity,Negative*%
%FSLAX46Y46*%
G04 Gerber Fmt 4.6, Leading zero omitted, Abs format (unit mm)*
G04 Created by KiCad (PCBNEW 10.0.5-10.0.5~ubuntu24.04.1) date 2026-08-08 16:18:19*
%MOMM*%
%LPD*%
G01*
G04 APERTURE LIST*
G04 APERTURE END LIST*
G36*
X119510476Y-105591866D02*
G01*
X119634819Y-105663656D01*
X119736344Y-105765181D01*
X119808134Y-105889524D01*
X119845295Y-106028211D01*
X119845295Y-106171789D01*
X119808134Y-106310476D01*
X119736344Y-106434819D01*
X119634819Y-106536344D01*
X119510476Y-106608134D01*
X119371789Y-106645295D01*
X119228211Y-106645295D01*
X119089524Y-106608134D01*
X118965181Y-106536344D01*
X118863656Y-106434819D01*
X118791866Y-106310476D01*
X118754705Y-106171789D01*
X118754705Y-106028211D01*
X118791866Y-105889524D01*
X118863656Y-105765181D01*
X118965181Y-105663656D01*
X119089524Y-105591866D01*
X119228211Y-105554705D01*
X119371789Y-105554705D01*
X119510476Y-105591866D01*
G37*
G36*
X81326824Y-102638682D02*
G01*
X81535757Y-102706569D01*
X81731498Y-102806304D01*
X81909227Y-102935432D01*
X82064568Y-103090773D01*
X82193696Y-103268502D01*
X82293431Y-103464243D01*
X82361318Y-103673176D01*
X82395684Y-103890157D01*
X82395684Y-104109843D01*
X82361318Y-104326824D01*
X82293431Y-104535757D01*
X82193696Y-104731498D01*
X82064568Y-104909227D01*
X81909227Y-105064568D01*
X81731498Y-105193696D01*
X81535757Y-105293431D01*
X81326824Y-105361318D01*
X81109843Y-105395684D01*
X80890157Y-105395684D01*
X80673176Y-105361318D01*
X80464243Y-105293431D01*
X80268502Y-105193696D01*
X80090773Y-105064568D01*
X79935432Y-104909227D01*
X79806304Y-104731498D01*
X79706569Y-104535757D01*
X79638682Y-104326824D01*
X79604316Y-104109843D01*
X79604316Y-103890157D01*
X79638682Y-103673176D01*
X79706569Y-103464243D01*
X79806304Y-103268502D01*
X79935432Y-103090773D01*
X80090773Y-102935432D01*
X80268502Y-102806304D01*
X80464243Y-102706569D01*
X80673176Y-102638682D01*
X80890157Y-102604316D01*
X81109843Y-102604316D01*
X81326824Y-102638682D01*
G37*
G36*
X144126824Y-102638682D02*
G01*
X144335757Y-102706569D01*
X144531498Y-102806304D01*
X144709227Y-102935432D01*
X144864568Y-103090773D01*
X144993696Y-103268502D01*
X145093431Y-103464243D01*
X145161318Y-103673176D01*
X145195684Y-103890157D01*
X145195684Y-104109843D01*
X145161318Y-104326824D01*
X145093431Y-104535757D01*
X144993696Y-104731498D01*
X144864568Y-104909227D01*
X144709227Y-105064568D01*
X144531498Y-105193696D01*
X144335757Y-105293431D01*
X144126824Y-105361318D01*
X143909843Y-105395684D01*
X143690157Y-105395684D01*
X143473176Y-105361318D01*
X143264243Y-105293431D01*
X143068502Y-105193696D01*
X142890773Y-105064568D01*
X142735432Y-104909227D01*
X142606304Y-104731498D01*
X142506569Y-104535757D01*
X142438682Y-104326824D01*
X142404316Y-104109843D01*
X142404316Y-103890157D01*
X142438682Y-103673176D01*
X142506569Y-103464243D01*
X142606304Y-103268502D01*
X142735432Y-103090773D01*
X142890773Y-102935432D01*
X143068502Y-102806304D01*
X143264243Y-102706569D01*
X143473176Y-102638682D01*
X143690157Y-102604316D01*
X143909843Y-102604316D01*
X144126824Y-102638682D01*
G37*
G36*
X120319134Y-102653806D02*
G01*
X120335355Y-102664645D01*
X120346194Y-102680866D01*
X120350000Y-102700000D01*
X120350000Y-104500000D01*
X120346194Y-104519134D01*
X120335355Y-104535355D01*
X120319134Y-104546194D01*
X120300000Y-104550000D01*
X118500000Y-104550000D01*
X118480866Y-104546194D01*
X118464645Y-104535355D01*
X118453806Y-104519134D01*
X118450000Y-104500000D01*
X118450000Y-102700000D01*
X118453806Y-102680866D01*
X118464645Y-102664645D01*
X118480866Y-102653806D01*
X118500000Y-102650000D01*
X120300000Y-102650000D01*
X120319134Y-102653806D01*
G37*
G36*
X122215770Y-102690907D02*
G01*
X122387827Y-102762175D01*
X122542674Y-102865640D01*
X122674360Y-102997326D01*
X122777825Y-103152173D01*
X122849093Y-103324230D01*
X122885425Y-103506884D01*
X122885425Y-103693116D01*
X122849093Y-103875770D01*
X122777825Y-104047827D01*
X122674360Y-104202674D01*
X122542674Y-104334360D01*
X122387827Y-104437825D01*
X122215770Y-104509093D01*
X122033116Y-104545425D01*
X121846884Y-104545425D01*
X121664230Y-104509093D01*
X121492173Y-104437825D01*
X121337326Y-104334360D01*
X121205640Y-104202674D01*
X121102175Y-104047827D01*
X121030907Y-103875770D01*
X120994575Y-103693116D01*
X120994575Y-103506884D01*
X121030907Y-103324230D01*
X121102175Y-103152173D01*
X121205640Y-102997326D01*
X121337326Y-102865640D01*
X121492173Y-102762175D01*
X121664230Y-102690907D01*
X121846884Y-102654575D01*
X122033116Y-102654575D01*
X122215770Y-102690907D01*
G37*
G36*
X133217714Y-102822295D02*
G01*
X133353548Y-102878559D01*
X133475795Y-102960242D01*
X133579758Y-103064205D01*
X133661441Y-103186452D01*
X133717705Y-103322286D01*
X133746389Y-103466487D01*
X133746389Y-103613513D01*
X133717705Y-103757714D01*
X133661441Y-103893548D01*
X133579758Y-104015795D01*
X133475795Y-104119758D01*
X133353548Y-104201441D01*
X133217714Y-104257705D01*
X133073513Y-104286389D01*
X132926487Y-104286389D01*
X132782286Y-104257705D01*
X132646452Y-104201441D01*
X132524205Y-104119758D01*
X132420242Y-104015795D01*
X132338559Y-103893548D01*
X132282295Y-103757714D01*
X132253611Y-103613513D01*
X132253611Y-103466487D01*
X132282295Y-103322286D01*
X132338559Y-103186452D01*
X132420242Y-103064205D01*
X132524205Y-102960242D01*
X132646452Y-102878559D01*
X132782286Y-102822295D01*
X132926487Y-102793611D01*
X133073513Y-102793611D01*
X133217714Y-102822295D01*
G37*
G36*
X117610476Y-103091866D02*
G01*
X117734819Y-103163656D01*
X117836344Y-103265181D01*
X117908134Y-103389524D01*
X117945295Y-103528211D01*
X117945295Y-103671789D01*
X117908134Y-103810476D01*
X117836344Y-103934819D01*
X117734819Y-104036344D01*
X117610476Y-104108134D01*
X117471789Y-104145295D01*
X117328211Y-104145295D01*
X117189524Y-104108134D01*
X117065181Y-104036344D01*
X116963656Y-103934819D01*
X116891866Y-103810476D01*
X116854705Y-103671789D01*
X116854705Y-103528211D01*
X116891866Y-103389524D01*
X116963656Y-103265181D01*
X117065181Y-103163656D01*
X117189524Y-103091866D01*
X117328211Y-103054705D01*
X117471789Y-103054705D01*
X117610476Y-103091866D01*
G37*
G36*
X90519134Y-100053806D02*
G01*
X90535355Y-100064645D01*
X90546194Y-100080866D01*
X90550000Y-100100000D01*
X90550000Y-101900000D01*
X90546194Y-101919134D01*
X90535355Y-101935355D01*
X90519134Y-101946194D01*
X90500000Y-101950000D01*
X88700000Y-101950000D01*
X88680866Y-101946194D01*
X88664645Y-101935355D01*
X88653806Y-101919134D01*
X88650000Y-101900000D01*
X88650000Y-100100000D01*
X88653806Y-100080866D01*
X88664645Y-100064645D01*
X88680866Y-100053806D01*
X88700000Y-100050000D01*
X90500000Y-100050000D01*
X90519134Y-100053806D01*
G37*
G36*
X92415770Y-100090907D02*
G01*
X92587827Y-100162175D01*
X92742674Y-100265640D01*
X92874360Y-100397326D01*
X92977825Y-100552173D01*
X93049093Y-100724230D01*
X93085425Y-100906884D01*
X93085425Y-101093116D01*
X93049093Y-101275770D01*
X92977825Y-101447827D01*
X92874360Y-101602674D01*
X92742674Y-101734360D01*
X92587827Y-101837825D01*
X92415770Y-101909093D01*
X92233116Y-101945425D01*
X92046884Y-101945425D01*
X91864230Y-101909093D01*
X91692173Y-101837825D01*
X91537326Y-101734360D01*
X91405640Y-101602674D01*
X91302175Y-101447827D01*
X91230907Y-101275770D01*
X91194575Y-101093116D01*
X91194575Y-100906884D01*
X91230907Y-100724230D01*
X91302175Y-100552173D01*
X91405640Y-100397326D01*
X91537326Y-100265640D01*
X91692173Y-100162175D01*
X91864230Y-100090907D01*
X92046884Y-100054575D01*
X92233116Y-100054575D01*
X92415770Y-100090907D01*
G37*
G36*
X119510476Y-100791866D02*
G01*
X119634819Y-100863656D01*
X119736344Y-100965181D01*
X119808134Y-101089524D01*
X119845295Y-101228211D01*
X119845295Y-101371789D01*
X119808134Y-101510476D01*
X119736344Y-101634819D01*
X119634819Y-101736344D01*
X119510476Y-101808134D01*
X119371789Y-101845295D01*
X119228211Y-101845295D01*
X119089524Y-101808134D01*
X118965181Y-101736344D01*
X118863656Y-101634819D01*
X118791866Y-101510476D01*
X118754705Y-101371789D01*
X118754705Y-101228211D01*
X118791866Y-101089524D01*
X118863656Y-100965181D01*
X118965181Y-100863656D01*
X119089524Y-100791866D01*
X119228211Y-100754705D01*
X119371789Y-100754705D01*
X119510476Y-100791866D01*
G37*
G36*
X105017714Y-100332295D02*
G01*
X105153548Y-100388559D01*
X105275795Y-100470242D01*
X105379758Y-100574205D01*
X105461441Y-100696452D01*
X105517705Y-100832286D01*
X105546389Y-100976487D01*
X105546389Y-101123513D01*
X105517705Y-101267714D01*
X105461441Y-101403548D01*
X105379758Y-101525795D01*
X105275795Y-101629758D01*
X105153548Y-101711441D01*
X105017714Y-101767705D01*
X104873513Y-101796389D01*
X104726487Y-101796389D01*
X104582286Y-101767705D01*
X104446452Y-101711441D01*
X104324205Y-101629758D01*
X104220242Y-101525795D01*
X104138559Y-101403548D01*
X104082295Y-101267714D01*
X104053611Y-101123513D01*
X104053611Y-100976487D01*
X104082295Y-100832286D01*
X104138559Y-100696452D01*
X104220242Y-100574205D01*
X104324205Y-100470242D01*
X104446452Y-100388559D01*
X104582286Y-100332295D01*
X104726487Y-100303611D01*
X104873513Y-100303611D01*
X105017714Y-100332295D01*
G37*
G36*
X133217714Y-100282295D02*
G01*
X133353548Y-100338559D01*
X133475795Y-100420242D01*
X133579758Y-100524205D01*
X133661441Y-100646452D01*
X133717705Y-100782286D01*
X133746389Y-100926487D01*
X133746389Y-101073513D01*
X133717705Y-101217714D01*
X133661441Y-101353548D01*
X133579758Y-101475795D01*
X133475795Y-101579758D01*
X133353548Y-101661441D01*
X133217714Y-101717705D01*
X133073513Y-101746389D01*
X132926487Y-101746389D01*
X132782286Y-101717705D01*
X132646452Y-101661441D01*
X132524205Y-101579758D01*
X132420242Y-101475795D01*
X132338559Y-101353548D01*
X132282295Y-101217714D01*
X132253611Y-101073513D01*
X132253611Y-100926487D01*
X132282295Y-100782286D01*
X132338559Y-100646452D01*
X132420242Y-100524205D01*
X132524205Y-100420242D01*
X132646452Y-100338559D01*
X132782286Y-100282295D01*
X132926487Y-100253611D01*
X133073513Y-100253611D01*
X133217714Y-100282295D01*
G37*
G36*
X86210476Y-100591866D02*
G01*
X86334819Y-100663656D01*
X86436344Y-100765181D01*
X86508134Y-100889524D01*
X86545295Y-101028211D01*
X86545295Y-101171789D01*
X86508134Y-101310476D01*
X86436344Y-101434819D01*
X86334819Y-101536344D01*
X86210476Y-101608134D01*
X86071789Y-101645295D01*
X85928211Y-101645295D01*
X85789524Y-101608134D01*
X85665181Y-101536344D01*
X85563656Y-101434819D01*
X85491866Y-101310476D01*
X85454705Y-101171789D01*
X85454705Y-101028211D01*
X85491866Y-100889524D01*
X85563656Y-100765181D01*
X85665181Y-100663656D01*
X85789524Y-100591866D01*
X85928211Y-100554705D01*
X86071789Y-100554705D01*
X86210476Y-100591866D01*
G37*
G36*
X145110476Y-98991866D02*
G01*
X145234819Y-99063656D01*
X145336344Y-99165181D01*
X145408134Y-99289524D01*
X145445295Y-99428211D01*
X145445295Y-99571789D01*
X145408134Y-99710476D01*
X145336344Y-99834819D01*
X145234819Y-99936344D01*
X145110476Y-100008134D01*
X144971789Y-100045295D01*
X144828211Y-100045295D01*
X144689524Y-100008134D01*
X144565181Y-99936344D01*
X144463656Y-99834819D01*
X144391866Y-99710476D01*
X144354705Y-99571789D01*
X144354705Y-99428211D01*
X144391866Y-99289524D01*
X144463656Y-99165181D01*
X144565181Y-99063656D01*
X144689524Y-98991866D01*
X144828211Y-98954705D01*
X144971789Y-98954705D01*
X145110476Y-98991866D01*
G37*
G36*
X143010476Y-98491866D02*
G01*
X143134819Y-98563656D01*
X143236344Y-98665181D01*
X143308134Y-98789524D01*
X143345295Y-98928211D01*
X143345295Y-99071789D01*
X143308134Y-99210476D01*
X143236344Y-99334819D01*
X143134819Y-99436344D01*
X143010476Y-99508134D01*
X142871789Y-99545295D01*
X142728211Y-99545295D01*
X142589524Y-99508134D01*
X142465181Y-99436344D01*
X142363656Y-99334819D01*
X142291866Y-99210476D01*
X142254705Y-99071789D01*
X142254705Y-98928211D01*
X142291866Y-98789524D01*
X142363656Y-98665181D01*
X142465181Y-98563656D01*
X142589524Y-98491866D01*
X142728211Y-98454705D01*
X142871789Y-98454705D01*
X143010476Y-98491866D01*
G37*
G36*
X105017714Y-97792295D02*
G01*
X105153548Y-97848559D01*
X105275795Y-97930242D01*
X105379758Y-98034205D01*
X105461441Y-98156452D01*
X105517705Y-98292286D01*
X105546389Y-98436487D01*
X105546389Y-98583513D01*
X105517705Y-98727714D01*
X105461441Y-98863548D01*
X105379758Y-98985795D01*
X105275795Y-99089758D01*
X105153548Y-99171441D01*
X105017714Y-99227705D01*
X104873513Y-99256389D01*
X104726487Y-99256389D01*
X104582286Y-99227705D01*
X104446452Y-99171441D01*
X104324205Y-99089758D01*
X104220242Y-98985795D01*
X104138559Y-98863548D01*
X104082295Y-98727714D01*
X104053611Y-98583513D01*
X104053611Y-98436487D01*
X104082295Y-98292286D01*
X104138559Y-98156452D01*
X104220242Y-98034205D01*
X104324205Y-97930242D01*
X104446452Y-97848559D01*
X104582286Y-97792295D01*
X104726487Y-97763611D01*
X104873513Y-97763611D01*
X105017714Y-97792295D01*
G37*
G36*
X111710476Y-97291866D02*
G01*
X111834819Y-97363656D01*
X111936344Y-97465181D01*
X112008134Y-97589524D01*
X112045295Y-97728211D01*
X112045295Y-97871789D01*
X112008134Y-98010476D01*
X111936344Y-98134819D01*
X111834819Y-98236344D01*
X111710476Y-98308134D01*
X111571789Y-98345295D01*
X111428211Y-98345295D01*
X111289524Y-98308134D01*
X111165181Y-98236344D01*
X111063656Y-98134819D01*
X110991866Y-98010476D01*
X110954705Y-97871789D01*
X110954705Y-97728211D01*
X110991866Y-97589524D01*
X111063656Y-97465181D01*
X111165181Y-97363656D01*
X111289524Y-97291866D01*
X111428211Y-97254705D01*
X111571789Y-97254705D01*
X111710476Y-97291866D01*
G37*
G36*
X113510476Y-97291866D02*
G01*
X113634819Y-97363656D01*
X113736344Y-97465181D01*
X113808134Y-97589524D01*
X113845295Y-97728211D01*
X113845295Y-97871789D01*
X113808134Y-98010476D01*
X113736344Y-98134819D01*
X113634819Y-98236344D01*
X113510476Y-98308134D01*
X113371789Y-98345295D01*
X113228211Y-98345295D01*
X113089524Y-98308134D01*
X112965181Y-98236344D01*
X112863656Y-98134819D01*
X112791866Y-98010476D01*
X112754705Y-97871789D01*
X112754705Y-97728211D01*
X112791866Y-97589524D01*
X112863656Y-97465181D01*
X112965181Y-97363656D01*
X113089524Y-97291866D01*
X113228211Y-97254705D01*
X113371789Y-97254705D01*
X113510476Y-97291866D01*
G37*
G36*
X145261256Y-96178754D02*
G01*
X145424257Y-96246271D01*
X145570954Y-96344291D01*
X145695709Y-96469046D01*
X145793729Y-96615743D01*
X145861246Y-96778744D01*
X145895666Y-96951785D01*
X145895666Y-97128215D01*
X145861246Y-97301256D01*
X145793729Y-97464257D01*
X145695709Y-97610954D01*
X145570954Y-97735709D01*
X145424257Y-97833729D01*
X145261256Y-97901246D01*
X145088215Y-97935666D01*
X144911785Y-97935666D01*
X144738744Y-97901246D01*
X144575743Y-97833729D01*
X144429046Y-97735709D01*
X144304291Y-97610954D01*
X144206271Y-97464257D01*
X144138754Y-97301256D01*
X144104334Y-97128215D01*
X144104334Y-96951785D01*
X144138754Y-96778744D01*
X144206271Y-96615743D01*
X144304291Y-96469046D01*
X144429046Y-96344291D01*
X144575743Y-96246271D01*
X144738744Y-96178754D01*
X144911785Y-96144334D01*
X145088215Y-96144334D01*
X145261256Y-96178754D01*
G37*
G36*
X99510476Y-95891866D02*
G01*
X99634819Y-95963656D01*
X99736344Y-96065181D01*
X99808134Y-96189524D01*
X99845295Y-96328211D01*
X99845295Y-96471789D01*
X99808134Y-96610476D01*
X99736344Y-96734819D01*
X99634819Y-96836344D01*
X99510476Y-96908134D01*
X99371789Y-96945295D01*
X99228211Y-96945295D01*
X99089524Y-96908134D01*
X98965181Y-96836344D01*
X98863656Y-96734819D01*
X98791866Y-96610476D01*
X98754705Y-96471789D01*
X98754705Y-96328211D01*
X98791866Y-96189524D01*
X98863656Y-96065181D01*
X98965181Y-95963656D01*
X99089524Y-95891866D01*
X99228211Y-95854705D01*
X99371789Y-95854705D01*
X99510476Y-95891866D01*
G37*
G36*
X132072208Y-95384254D02*
G01*
X132173943Y-95442991D01*
X132257009Y-95526057D01*
X132315746Y-95627792D01*
X132346150Y-95741263D01*
X132346150Y-95858737D01*
X132315746Y-95972208D01*
X132257009Y-96073943D01*
X132173943Y-96157009D01*
X132072208Y-96215746D01*
X131958737Y-96246150D01*
X131841263Y-96246150D01*
X131727792Y-96215746D01*
X131626057Y-96157009D01*
X131542991Y-96073943D01*
X131484254Y-95972208D01*
X131453850Y-95858737D01*
X131453850Y-95741263D01*
X131484254Y-95627792D01*
X131542991Y-95526057D01*
X131626057Y-95442991D01*
X131727792Y-95384254D01*
X131841263Y-95353850D01*
X131958737Y-95353850D01*
X132072208Y-95384254D01*
G37*
G36*
X134272208Y-95384254D02*
G01*
X134373943Y-95442991D01*
X134457009Y-95526057D01*
X134515746Y-95627792D01*
X134546150Y-95741263D01*
X134546150Y-95858737D01*
X134515746Y-95972208D01*
X134457009Y-96073943D01*
X134373943Y-96157009D01*
X134272208Y-96215746D01*
X134158737Y-96246150D01*
X134041263Y-96246150D01*
X133927792Y-96215746D01*
X133826057Y-96157009D01*
X133742991Y-96073943D01*
X133684254Y-95972208D01*
X133653850Y-95858737D01*
X133653850Y-95741263D01*
X133684254Y-95627792D01*
X133742991Y-95526057D01*
X133826057Y-95442991D01*
X133927792Y-95384254D01*
X134041263Y-95353850D01*
X134158737Y-95353850D01*
X134272208Y-95384254D01*
G37*
G36*
X95110476Y-94591866D02*
G01*
X95234819Y-94663656D01*
X95336344Y-94765181D01*
X95408134Y-94889524D01*
X95445295Y-95028211D01*
X95445295Y-95171789D01*
X95408134Y-95310476D01*
X95336344Y-95434819D01*
X95234819Y-95536344D01*
X95110476Y-95608134D01*
X94971789Y-95645295D01*
X94828211Y-95645295D01*
X94689524Y-95608134D01*
X94565181Y-95536344D01*
X94463656Y-95434819D01*
X94391866Y-95310476D01*
X94354705Y-95171789D01*
X94354705Y-95028211D01*
X94391866Y-94889524D01*
X94463656Y-94765181D01*
X94565181Y-94663656D01*
X94689524Y-94591866D01*
X94828211Y-94554705D01*
X94971789Y-94554705D01*
X95110476Y-94591866D01*
G37*
G36*
X104010476Y-94491866D02*
G01*
X104134819Y-94563656D01*
X104236344Y-94665181D01*
X104308134Y-94789524D01*
X104345295Y-94928211D01*
X104345295Y-95071789D01*
X104308134Y-95210476D01*
X104236344Y-95334819D01*
X104134819Y-95436344D01*
X104010476Y-95508134D01*
X103871789Y-95545295D01*
X103728211Y-95545295D01*
X103589524Y-95508134D01*
X103465181Y-95436344D01*
X103363656Y-95334819D01*
X103291866Y-95210476D01*
X103254705Y-95071789D01*
X103254705Y-94928211D01*
X103291866Y-94789524D01*
X103363656Y-94665181D01*
X103465181Y-94563656D01*
X103589524Y-94491866D01*
X103728211Y-94454705D01*
X103871789Y-94454705D01*
X104010476Y-94491866D01*
G37*
G36*
X145261256Y-93638754D02*
G01*
X145424257Y-93706271D01*
X145570954Y-93804291D01*
X145695709Y-93929046D01*
X145793729Y-94075743D01*
X145861246Y-94238744D01*
X145895666Y-94411785D01*
X145895666Y-94588215D01*
X145861246Y-94761256D01*
X145793729Y-94924257D01*
X145695709Y-95070954D01*
X145570954Y-95195709D01*
X145424257Y-95293729D01*
X145261256Y-95361246D01*
X145088215Y-95395666D01*
X144911785Y-95395666D01*
X144738744Y-95361246D01*
X144575743Y-95293729D01*
X144429046Y-95195709D01*
X144304291Y-95070954D01*
X144206271Y-94924257D01*
X144138754Y-94761256D01*
X144104334Y-94588215D01*
X144104334Y-94411785D01*
X144138754Y-94238744D01*
X144206271Y-94075743D01*
X144304291Y-93929046D01*
X144429046Y-93804291D01*
X144575743Y-93706271D01*
X144738744Y-93638754D01*
X144911785Y-93604334D01*
X145088215Y-93604334D01*
X145261256Y-93638754D01*
G37*
G36*
X97310476Y-94291866D02*
G01*
X97434819Y-94363656D01*
X97536344Y-94465181D01*
X97608134Y-94589524D01*
X97645295Y-94728211D01*
X97645295Y-94871789D01*
X97608134Y-95010476D01*
X97536344Y-95134819D01*
X97434819Y-95236344D01*
X97310476Y-95308134D01*
X97171789Y-95345295D01*
X97028211Y-95345295D01*
X96889524Y-95308134D01*
X96765181Y-95236344D01*
X96663656Y-95134819D01*
X96591866Y-95010476D01*
X96554705Y-94871789D01*
X96554705Y-94728211D01*
X96591866Y-94589524D01*
X96663656Y-94465181D01*
X96765181Y-94363656D01*
X96889524Y-94291866D01*
X97028211Y-94254705D01*
X97171789Y-94254705D01*
X97310476Y-94291866D01*
G37*
G36*
X102210476Y-94191866D02*
G01*
X102334819Y-94263656D01*
X102436344Y-94365181D01*
X102508134Y-94489524D01*
X102545295Y-94628211D01*
X102545295Y-94771789D01*
X102508134Y-94910476D01*
X102436344Y-95034819D01*
X102334819Y-95136344D01*
X102210476Y-95208134D01*
X102071789Y-95245295D01*
X101928211Y-95245295D01*
X101789524Y-95208134D01*
X101665181Y-95136344D01*
X101563656Y-95034819D01*
X101491866Y-94910476D01*
X101454705Y-94771789D01*
X101454705Y-94628211D01*
X101491866Y-94489524D01*
X101563656Y-94365181D01*
X101665181Y-94263656D01*
X101789524Y-94191866D01*
X101928211Y-94154705D01*
X102071789Y-94154705D01*
X102210476Y-94191866D01*
G37*
G36*
X125436742Y-92796601D02*
G01*
X125590687Y-92860367D01*
X125729234Y-92952941D01*
X125847059Y-93070766D01*
X125939633Y-93209313D01*
X126003399Y-93363258D01*
X126035907Y-93526685D01*
X126035907Y-93693315D01*
X126003399Y-93856742D01*
X125939633Y-94010687D01*
X125847059Y-94149234D01*
X125729234Y-94267059D01*
X125590687Y-94359633D01*
X125436742Y-94423399D01*
X125273315Y-94455907D01*
X125106685Y-94455907D01*
X124943258Y-94423399D01*
X124789313Y-94359633D01*
X124650766Y-94267059D01*
X124532941Y-94149234D01*
X124440367Y-94010687D01*
X124376601Y-93856742D01*
X124344093Y-93693315D01*
X124344093Y-93526685D01*
X124376601Y-93363258D01*
X124440367Y-93209313D01*
X124532941Y-93070766D01*
X124650766Y-92952941D01*
X124789313Y-92860367D01*
X124943258Y-92796601D01*
X125106685Y-92764093D01*
X125273315Y-92764093D01*
X125436742Y-92796601D01*
G37*
G36*
X133056742Y-92796601D02*
G01*
X133210687Y-92860367D01*
X133349234Y-92952941D01*
X133467059Y-93070766D01*
X133559633Y-93209313D01*
X133623399Y-93363258D01*
X133655907Y-93526685D01*
X133655907Y-93693315D01*
X133623399Y-93856742D01*
X133559633Y-94010687D01*
X133467059Y-94149234D01*
X133349234Y-94267059D01*
X133210687Y-94359633D01*
X133056742Y-94423399D01*
X132893315Y-94455907D01*
X132726685Y-94455907D01*
X132563258Y-94423399D01*
X132409313Y-94359633D01*
X132270766Y-94267059D01*
X132152941Y-94149234D01*
X132060367Y-94010687D01*
X131996601Y-93856742D01*
X131964093Y-93693315D01*
X131964093Y-93526685D01*
X131996601Y-93363258D01*
X132060367Y-93209313D01*
X132152941Y-93070766D01*
X132270766Y-92952941D01*
X132409313Y-92860367D01*
X132563258Y-92796601D01*
X132726685Y-92764093D01*
X132893315Y-92764093D01*
X133056742Y-92796601D01*
G37*
G36*
X93410476Y-92891866D02*
G01*
X93534819Y-92963656D01*
X93636344Y-93065181D01*
X93708134Y-93189524D01*
X93745295Y-93328211D01*
X93745295Y-93471789D01*
X93708134Y-93610476D01*
X93636344Y-93734819D01*
X93534819Y-93836344D01*
X93410476Y-93908134D01*
X93271789Y-93945295D01*
X93128211Y-93945295D01*
X92989524Y-93908134D01*
X92865181Y-93836344D01*
X92763656Y-93734819D01*
X92691866Y-93610476D01*
X92654705Y-93471789D01*
X92654705Y-93328211D01*
X92691866Y-93189524D01*
X92763656Y-93065181D01*
X92865181Y-92963656D01*
X92989524Y-92891866D01*
X93128211Y-92854705D01*
X93271789Y-92854705D01*
X93410476Y-92891866D01*
G37*
G36*
X105710476Y-92691866D02*
G01*
X105834819Y-92763656D01*
X105936344Y-92865181D01*
X106008134Y-92989524D01*
X106045295Y-93128211D01*
X106045295Y-93271789D01*
X106008134Y-93410476D01*
X105936344Y-93534819D01*
X105834819Y-93636344D01*
X105710476Y-93708134D01*
X105571789Y-93745295D01*
X105428211Y-93745295D01*
X105289524Y-93708134D01*
X105165181Y-93636344D01*
X105063656Y-93534819D01*
X104991866Y-93410476D01*
X104954705Y-93271789D01*
X104954705Y-93128211D01*
X104991866Y-92989524D01*
X105063656Y-92865181D01*
X105165181Y-92763656D01*
X105289524Y-92691866D01*
X105428211Y-92654705D01*
X105571789Y-92654705D01*
X105710476Y-92691866D01*
G37*
G36*
X145261256Y-91098754D02*
G01*
X145424257Y-91166271D01*
X145570954Y-91264291D01*
X145695709Y-91389046D01*
X145793729Y-91535743D01*
X145861246Y-91698744D01*
X145895666Y-91871785D01*
X145895666Y-92048215D01*
X145861246Y-92221256D01*
X145793729Y-92384257D01*
X145695709Y-92530954D01*
X145570954Y-92655709D01*
X145424257Y-92753729D01*
X145261256Y-92821246D01*
X145088215Y-92855666D01*
X144911785Y-92855666D01*
X144738744Y-92821246D01*
X144575743Y-92753729D01*
X144429046Y-92655709D01*
X144304291Y-92530954D01*
X144206271Y-92384257D01*
X144138754Y-92221256D01*
X144104334Y-92048215D01*
X144104334Y-91871785D01*
X144138754Y-91698744D01*
X144206271Y-91535743D01*
X144304291Y-91389046D01*
X144429046Y-91264291D01*
X144575743Y-91166271D01*
X144738744Y-91098754D01*
X144911785Y-91064334D01*
X145088215Y-91064334D01*
X145261256Y-91098754D01*
G37*
G36*
X137672208Y-91984254D02*
G01*
X137773943Y-92042991D01*
X137857009Y-92126057D01*
X137915746Y-92227792D01*
X137946150Y-92341263D01*
X137946150Y-92458737D01*
X137915746Y-92572208D01*
X137857009Y-92673943D01*
X137773943Y-92757009D01*
X137672208Y-92815746D01*
X137558737Y-92846150D01*
X137441263Y-92846150D01*
X137327792Y-92815746D01*
X137226057Y-92757009D01*
X137142991Y-92673943D01*
X137084254Y-92572208D01*
X137053850Y-92458737D01*
X137053850Y-92341263D01*
X137084254Y-92227792D01*
X137142991Y-92126057D01*
X137226057Y-92042991D01*
X137327792Y-91984254D01*
X137441263Y-91953850D01*
X137558737Y-91953850D01*
X137672208Y-91984254D01*
G37*
G36*
X125436742Y-90256601D02*
G01*
X125590687Y-90320367D01*
X125729234Y-90412941D01*
X125847059Y-90530766D01*
X125939633Y-90669313D01*
X126003399Y-90823258D01*
X126035907Y-90986685D01*
X126035907Y-91153315D01*
X126003399Y-91316742D01*
X125939633Y-91470687D01*
X125847059Y-91609234D01*
X125729234Y-91727059D01*
X125590687Y-91819633D01*
X125436742Y-91883399D01*
X125273315Y-91915907D01*
X125106685Y-91915907D01*
X124943258Y-91883399D01*
X124789313Y-91819633D01*
X124650766Y-91727059D01*
X124532941Y-91609234D01*
X124440367Y-91470687D01*
X124376601Y-91316742D01*
X124344093Y-91153315D01*
X124344093Y-90986685D01*
X124376601Y-90823258D01*
X124440367Y-90669313D01*
X124532941Y-90530766D01*
X124650766Y-90412941D01*
X124789313Y-90320367D01*
X124943258Y-90256601D01*
X125106685Y-90224093D01*
X125273315Y-90224093D01*
X125436742Y-90256601D01*
G37*
G36*
X133056742Y-90256601D02*
G01*
X133210687Y-90320367D01*
X133349234Y-90412941D01*
X133467059Y-90530766D01*
X133559633Y-90669313D01*
X133623399Y-90823258D01*
X133655907Y-90986685D01*
X133655907Y-91153315D01*
X133623399Y-91316742D01*
X133559633Y-91470687D01*
X133467059Y-91609234D01*
X133349234Y-91727059D01*
X133210687Y-91819633D01*
X133056742Y-91883399D01*
X132893315Y-91915907D01*
X132726685Y-91915907D01*
X132563258Y-91883399D01*
X132409313Y-91819633D01*
X132270766Y-91727059D01*
X132152941Y-91609234D01*
X132060367Y-91470687D01*
X131996601Y-91316742D01*
X131964093Y-91153315D01*
X131964093Y-90986685D01*
X131996601Y-90823258D01*
X132060367Y-90669313D01*
X132152941Y-90530766D01*
X132270766Y-90412941D01*
X132409313Y-90320367D01*
X132563258Y-90256601D01*
X132726685Y-90224093D01*
X132893315Y-90224093D01*
X133056742Y-90256601D01*
G37*
G36*
X83315151Y-89167301D02*
G01*
X83516623Y-89232763D01*
X83705373Y-89328936D01*
X83876755Y-89453452D01*
X84026548Y-89603245D01*
X84151064Y-89774627D01*
X84247237Y-89963377D01*
X84312699Y-90164849D01*
X84345838Y-90374080D01*
X84345838Y-90585920D01*
X84312699Y-90795151D01*
X84247237Y-90996623D01*
X84151064Y-91185373D01*
X84026548Y-91356755D01*
X83876755Y-91506548D01*
X83705373Y-91631064D01*
X83516623Y-91727237D01*
X83315151Y-91792699D01*
X83105920Y-91825838D01*
X82894080Y-91825838D01*
X82684849Y-91792699D01*
X82483377Y-91727237D01*
X82294627Y-91631064D01*
X82123245Y-91506548D01*
X81973452Y-91356755D01*
X81848936Y-91185373D01*
X81752763Y-90996623D01*
X81687301Y-90795151D01*
X81654162Y-90585920D01*
X81654162Y-90374080D01*
X81687301Y-90164849D01*
X81752763Y-89963377D01*
X81848936Y-89774627D01*
X81973452Y-89603245D01*
X82123245Y-89453452D01*
X82294627Y-89328936D01*
X82483377Y-89232763D01*
X82684849Y-89167301D01*
X82894080Y-89134162D01*
X83105920Y-89134162D01*
X83315151Y-89167301D01*
G37*
G36*
X145261256Y-88558754D02*
G01*
X145424257Y-88626271D01*
X145570954Y-88724291D01*
X145695709Y-88849046D01*
X145793729Y-88995743D01*
X145861246Y-89158744D01*
X145895666Y-89331785D01*
X145895666Y-89508215D01*
X145861246Y-89681256D01*
X145793729Y-89844257D01*
X145695709Y-89990954D01*
X145570954Y-90115709D01*
X145424257Y-90213729D01*
X145261256Y-90281246D01*
X145088215Y-90315666D01*
X144911785Y-90315666D01*
X144738744Y-90281246D01*
X144575743Y-90213729D01*
X144429046Y-90115709D01*
X144304291Y-89990954D01*
X144206271Y-89844257D01*
X144138754Y-89681256D01*
X144104334Y-89508215D01*
X144104334Y-89331785D01*
X144138754Y-89158744D01*
X144206271Y-88995743D01*
X144304291Y-88849046D01*
X144429046Y-88724291D01*
X144575743Y-88626271D01*
X144738744Y-88558754D01*
X144911785Y-88524334D01*
X145088215Y-88524334D01*
X145261256Y-88558754D01*
G37*
G36*
X125436742Y-87716601D02*
G01*
X125590687Y-87780367D01*
X125729234Y-87872941D01*
X125847059Y-87990766D01*
X125939633Y-88129313D01*
X126003399Y-88283258D01*
X126035907Y-88446685D01*
X126035907Y-88613315D01*
X126003399Y-88776742D01*
X125939633Y-88930687D01*
X125847059Y-89069234D01*
X125729234Y-89187059D01*
X125590687Y-89279633D01*
X125436742Y-89343399D01*
X125273315Y-89375907D01*
X125106685Y-89375907D01*
X124943258Y-89343399D01*
X124789313Y-89279633D01*
X124650766Y-89187059D01*
X124532941Y-89069234D01*
X124440367Y-88930687D01*
X124376601Y-88776742D01*
X124344093Y-88613315D01*
X124344093Y-88446685D01*
X124376601Y-88283258D01*
X124440367Y-88129313D01*
X124532941Y-87990766D01*
X124650766Y-87872941D01*
X124789313Y-87780367D01*
X124943258Y-87716601D01*
X125106685Y-87684093D01*
X125273315Y-87684093D01*
X125436742Y-87716601D01*
G37*
G36*
X133056742Y-87716601D02*
G01*
X133210687Y-87780367D01*
X133349234Y-87872941D01*
X133467059Y-87990766D01*
X133559633Y-88129313D01*
X133623399Y-88283258D01*
X133655907Y-88446685D01*
X133655907Y-88613315D01*
X133623399Y-88776742D01*
X133559633Y-88930687D01*
X133467059Y-89069234D01*
X133349234Y-89187059D01*
X133210687Y-89279633D01*
X133056742Y-89343399D01*
X132893315Y-89375907D01*
X132726685Y-89375907D01*
X132563258Y-89343399D01*
X132409313Y-89279633D01*
X132270766Y-89187059D01*
X132152941Y-89069234D01*
X132060367Y-88930687D01*
X131996601Y-88776742D01*
X131964093Y-88613315D01*
X131964093Y-88446685D01*
X131996601Y-88283258D01*
X132060367Y-88129313D01*
X132152941Y-87990766D01*
X132270766Y-87872941D01*
X132409313Y-87780367D01*
X132563258Y-87716601D01*
X132726685Y-87684093D01*
X132893315Y-87684093D01*
X133056742Y-87716601D01*
G37*
G36*
X137422208Y-87934254D02*
G01*
X137523943Y-87992991D01*
X137607009Y-88076057D01*
X137665746Y-88177792D01*
X137696150Y-88291263D01*
X137696150Y-88408737D01*
X137665746Y-88522208D01*
X137607009Y-88623943D01*
X137523943Y-88707009D01*
X137422208Y-88765746D01*
X137308737Y-88796150D01*
X137191263Y-88796150D01*
X137077792Y-88765746D01*
X136976057Y-88707009D01*
X136892991Y-88623943D01*
X136834254Y-88522208D01*
X136803850Y-88408737D01*
X136803850Y-88291263D01*
X136834254Y-88177792D01*
X136892991Y-88076057D01*
X136976057Y-87992991D01*
X137077792Y-87934254D01*
X137191263Y-87903850D01*
X137308737Y-87903850D01*
X137422208Y-87934254D01*
G37*
G36*
X145261256Y-86018754D02*
G01*
X145424257Y-86086271D01*
X145570954Y-86184291D01*
X145695709Y-86309046D01*
X145793729Y-86455743D01*
X145861246Y-86618744D01*
X145895666Y-86791785D01*
X145895666Y-86968215D01*
X145861246Y-87141256D01*
X145793729Y-87304257D01*
X145695709Y-87450954D01*
X145570954Y-87575709D01*
X145424257Y-87673729D01*
X145261256Y-87741246D01*
X145088215Y-87775666D01*
X144911785Y-87775666D01*
X144738744Y-87741246D01*
X144575743Y-87673729D01*
X144429046Y-87575709D01*
X144304291Y-87450954D01*
X144206271Y-87304257D01*
X144138754Y-87141256D01*
X144104334Y-86968215D01*
X144104334Y-86791785D01*
X144138754Y-86618744D01*
X144206271Y-86455743D01*
X144304291Y-86309046D01*
X144429046Y-86184291D01*
X144575743Y-86086271D01*
X144738744Y-86018754D01*
X144911785Y-85984334D01*
X145088215Y-85984334D01*
X145261256Y-86018754D01*
G37*
G36*
X125808685Y-85147969D02*
G01*
X125817358Y-85151798D01*
X125824925Y-85152901D01*
X125872223Y-85176023D01*
X125909541Y-85192501D01*
X125912996Y-85195956D01*
X125913920Y-85196408D01*
X125983591Y-85266079D01*
X125984042Y-85267002D01*
X125987499Y-85270459D01*
X126003978Y-85307782D01*
X126027098Y-85355073D01*
X126028200Y-85362639D01*
X126032031Y-85371315D01*
X126040000Y-85440000D01*
X126040000Y-86540000D01*
X126032031Y-86608685D01*
X126028199Y-86617361D01*
X126027098Y-86624925D01*
X126003985Y-86672202D01*
X125987499Y-86709541D01*
X125984041Y-86712998D01*
X125983591Y-86713920D01*
X125913920Y-86783591D01*
X125912998Y-86784041D01*
X125909541Y-86787499D01*
X125872207Y-86803983D01*
X125824926Y-86827098D01*
X125817361Y-86828200D01*
X125808685Y-86832031D01*
X125740000Y-86840000D01*
X124640000Y-86840000D01*
X124571315Y-86832031D01*
X124562638Y-86828200D01*
X124555074Y-86827098D01*
X124507787Y-86803981D01*
X124470459Y-86787499D01*
X124467002Y-86784042D01*
X124466079Y-86783591D01*
X124396408Y-86713920D01*
X124395956Y-86712996D01*
X124392501Y-86709541D01*
X124376025Y-86672228D01*
X124352901Y-86624926D01*
X124351798Y-86617357D01*
X124347969Y-86608685D01*
X124340000Y-86540000D01*
X124340000Y-85440000D01*
X124347969Y-85371315D01*
X124351798Y-85362642D01*
X124352901Y-85355074D01*
X124376028Y-85307766D01*
X124392501Y-85270459D01*
X124395955Y-85267004D01*
X124396408Y-85266079D01*
X124466079Y-85196408D01*
X124467004Y-85195955D01*
X124470459Y-85192501D01*
X124507761Y-85176030D01*
X124555073Y-85152901D01*
X124562642Y-85151798D01*
X124571315Y-85147969D01*
X124640000Y-85140000D01*
X125740000Y-85140000D01*
X125808685Y-85147969D01*
G37*
G36*
X133056742Y-85176601D02*
G01*
X133210687Y-85240367D01*
X133349234Y-85332941D01*
X133467059Y-85450766D01*
X133559633Y-85589313D01*
X133623399Y-85743258D01*
X133655907Y-85906685D01*
X133655907Y-86073315D01*
X133623399Y-86236742D01*
X133559633Y-86390687D01*
X133467059Y-86529234D01*
X133349234Y-86647059D01*
X133210687Y-86739633D01*
X133056742Y-86803399D01*
X132893315Y-86835907D01*
X132726685Y-86835907D01*
X132563258Y-86803399D01*
X132409313Y-86739633D01*
X132270766Y-86647059D01*
X132152941Y-86529234D01*
X132060367Y-86390687D01*
X131996601Y-86236742D01*
X131964093Y-86073315D01*
X131964093Y-85906685D01*
X131996601Y-85743258D01*
X132060367Y-85589313D01*
X132152941Y-85450766D01*
X132270766Y-85332941D01*
X132409313Y-85240367D01*
X132563258Y-85176601D01*
X132726685Y-85144093D01*
X132893315Y-85144093D01*
X133056742Y-85176601D01*
G37*
G36*
X84118685Y-84057969D02*
G01*
X84127358Y-84061798D01*
X84134925Y-84062901D01*
X84182223Y-84086023D01*
X84219541Y-84102501D01*
X84222996Y-84105956D01*
X84223920Y-84106408D01*
X84293591Y-84176079D01*
X84294042Y-84177002D01*
X84297499Y-84180459D01*
X84313978Y-84217782D01*
X84337098Y-84265073D01*
X84338200Y-84272639D01*
X84342031Y-84281315D01*
X84350000Y-84350000D01*
X84350000Y-86450000D01*
X84342031Y-86518685D01*
X84338199Y-86527361D01*
X84337098Y-86534925D01*
X84313985Y-86582202D01*
X84297499Y-86619541D01*
X84294041Y-86622998D01*
X84293591Y-86623920D01*
X84223920Y-86693591D01*
X84222998Y-86694041D01*
X84219541Y-86697499D01*
X84182207Y-86713983D01*
X84134926Y-86737098D01*
X84127361Y-86738200D01*
X84118685Y-86742031D01*
X84050000Y-86750000D01*
X81950000Y-86750000D01*
X81881315Y-86742031D01*
X81872638Y-86738200D01*
X81865074Y-86737098D01*
X81817787Y-86713981D01*
X81780459Y-86697499D01*
X81777002Y-86694042D01*
X81776079Y-86693591D01*
X81706408Y-86623920D01*
X81705956Y-86622996D01*
X81702501Y-86619541D01*
X81686025Y-86582228D01*
X81662901Y-86534926D01*
X81661798Y-86527357D01*
X81657969Y-86518685D01*
X81650000Y-86450000D01*
X81650000Y-84350000D01*
X81657969Y-84281315D01*
X81661798Y-84272642D01*
X81662901Y-84265074D01*
X81686028Y-84217766D01*
X81702501Y-84180459D01*
X81705955Y-84177004D01*
X81706408Y-84176079D01*
X81776079Y-84106408D01*
X81777004Y-84105955D01*
X81780459Y-84102501D01*
X81817761Y-84086030D01*
X81865073Y-84062901D01*
X81872642Y-84061798D01*
X81881315Y-84057969D01*
X81950000Y-84050000D01*
X84050000Y-84050000D01*
X84118685Y-84057969D01*
G37*
G36*
X135010476Y-85391866D02*
G01*
X135134819Y-85463656D01*
X135236344Y-85565181D01*
X135308134Y-85689524D01*
X135345295Y-85828211D01*
X135345295Y-85971789D01*
X135308134Y-86110476D01*
X135236344Y-86234819D01*
X135134819Y-86336344D01*
X135010476Y-86408134D01*
X134871789Y-86445295D01*
X134728211Y-86445295D01*
X134589524Y-86408134D01*
X134465181Y-86336344D01*
X134363656Y-86234819D01*
X134291866Y-86110476D01*
X134254705Y-85971789D01*
X134254705Y-85828211D01*
X134291866Y-85689524D01*
X134363656Y-85565181D01*
X134465181Y-85463656D01*
X134589524Y-85391866D01*
X134728211Y-85354705D01*
X134871789Y-85354705D01*
X135010476Y-85391866D01*
G37*
G36*
X137072208Y-85484254D02*
G01*
X137173943Y-85542991D01*
X137257009Y-85626057D01*
X137315746Y-85727792D01*
X137346150Y-85841263D01*
X137346150Y-85958737D01*
X137315746Y-86072208D01*
X137257009Y-86173943D01*
X137173943Y-86257009D01*
X137072208Y-86315746D01*
X136958737Y-86346150D01*
X136841263Y-86346150D01*
X136727792Y-86315746D01*
X136626057Y-86257009D01*
X136542991Y-86173943D01*
X136484254Y-86072208D01*
X136453850Y-85958737D01*
X136453850Y-85841263D01*
X136484254Y-85727792D01*
X136542991Y-85626057D01*
X136626057Y-85542991D01*
X136727792Y-85484254D01*
X136841263Y-85453850D01*
X136958737Y-85453850D01*
X137072208Y-85484254D01*
G37*
G36*
X145261256Y-83478754D02*
G01*
X145424257Y-83546271D01*
X145570954Y-83644291D01*
X145695709Y-83769046D01*
X145793729Y-83915743D01*
X145861246Y-84078744D01*
X145895666Y-84251785D01*
X145895666Y-84428215D01*
X145861246Y-84601256D01*
X145793729Y-84764257D01*
X145695709Y-84910954D01*
X145570954Y-85035709D01*
X145424257Y-85133729D01*
X145261256Y-85201246D01*
X145088215Y-85235666D01*
X144911785Y-85235666D01*
X144738744Y-85201246D01*
X144575743Y-85133729D01*
X144429046Y-85035709D01*
X144304291Y-84910954D01*
X144206271Y-84764257D01*
X144138754Y-84601256D01*
X144104334Y-84428215D01*
X144104334Y-84251785D01*
X144138754Y-84078744D01*
X144206271Y-83915743D01*
X144304291Y-83769046D01*
X144429046Y-83644291D01*
X144575743Y-83546271D01*
X144738744Y-83478754D01*
X144911785Y-83444334D01*
X145088215Y-83444334D01*
X145261256Y-83478754D01*
G37*
G36*
X130610476Y-83291866D02*
G01*
X130734819Y-83363656D01*
X130836344Y-83465181D01*
X130908134Y-83589524D01*
X130945295Y-83728211D01*
X130945295Y-83871789D01*
X130908134Y-84010476D01*
X130836344Y-84134819D01*
X130734819Y-84236344D01*
X130610476Y-84308134D01*
X130471789Y-84345295D01*
X130328211Y-84345295D01*
X130189524Y-84308134D01*
X130065181Y-84236344D01*
X129963656Y-84134819D01*
X129891866Y-84010476D01*
X129854705Y-83871789D01*
X129854705Y-83728211D01*
X129891866Y-83589524D01*
X129963656Y-83465181D01*
X130065181Y-83363656D01*
X130189524Y-83291866D01*
X130328211Y-83254705D01*
X130471789Y-83254705D01*
X130610476Y-83291866D01*
G37*
G36*
X133110476Y-83291866D02*
G01*
X133234819Y-83363656D01*
X133336344Y-83465181D01*
X133408134Y-83589524D01*
X133445295Y-83728211D01*
X133445295Y-83871789D01*
X133408134Y-84010476D01*
X133336344Y-84134819D01*
X133234819Y-84236344D01*
X133110476Y-84308134D01*
X132971789Y-84345295D01*
X132828211Y-84345295D01*
X132689524Y-84308134D01*
X132565181Y-84236344D01*
X132463656Y-84134819D01*
X132391866Y-84010476D01*
X132354705Y-83871789D01*
X132354705Y-83728211D01*
X132391866Y-83589524D01*
X132463656Y-83465181D01*
X132565181Y-83363656D01*
X132689524Y-83291866D01*
X132828211Y-83254705D01*
X132971789Y-83254705D01*
X133110476Y-83291866D01*
G37*
G36*
X122272208Y-82784254D02*
G01*
X122373943Y-82842991D01*
X122457009Y-82926057D01*
X122515746Y-83027792D01*
X122546150Y-83141263D01*
X122546150Y-83258737D01*
X122515746Y-83372208D01*
X122457009Y-83473943D01*
X122373943Y-83557009D01*
X122272208Y-83615746D01*
X122158737Y-83646150D01*
X122041263Y-83646150D01*
X121927792Y-83615746D01*
X121826057Y-83557009D01*
X121742991Y-83473943D01*
X121684254Y-83372208D01*
X121653850Y-83258737D01*
X121653850Y-83141263D01*
X121684254Y-83027792D01*
X121742991Y-82926057D01*
X121826057Y-82842991D01*
X121927792Y-82784254D01*
X122041263Y-82753850D01*
X122158737Y-82753850D01*
X122272208Y-82784254D01*
G37*
G36*
X132310476Y-81691866D02*
G01*
X132434819Y-81763656D01*
X132536344Y-81865181D01*
X132608134Y-81989524D01*
X132645295Y-82128211D01*
X132645295Y-82271789D01*
X132608134Y-82410476D01*
X132536344Y-82534819D01*
X132434819Y-82636344D01*
X132310476Y-82708134D01*
X132171789Y-82745295D01*
X132028211Y-82745295D01*
X131889524Y-82708134D01*
X131765181Y-82636344D01*
X131663656Y-82534819D01*
X131591866Y-82410476D01*
X131554705Y-82271789D01*
X131554705Y-82128211D01*
X131591866Y-81989524D01*
X131663656Y-81865181D01*
X131765181Y-81763656D01*
X131889524Y-81691866D01*
X132028211Y-81654705D01*
X132171789Y-81654705D01*
X132310476Y-81691866D01*
G37*
G36*
X145869134Y-80903806D02*
G01*
X145885355Y-80914645D01*
X145896194Y-80930866D01*
X145900000Y-80950000D01*
X145900000Y-82650000D01*
X145896194Y-82669134D01*
X145885355Y-82685355D01*
X145869134Y-82696194D01*
X145850000Y-82700000D01*
X144150000Y-82700000D01*
X144130866Y-82696194D01*
X144114645Y-82685355D01*
X144103806Y-82669134D01*
X144100000Y-82650000D01*
X144100000Y-80950000D01*
X144103806Y-80930866D01*
X144114645Y-80914645D01*
X144130866Y-80903806D01*
X144150000Y-80900000D01*
X145850000Y-80900000D01*
X145869134Y-80903806D01*
G37*
G36*
X98661256Y-80818754D02*
G01*
X98824257Y-80886271D01*
X98970954Y-80984291D01*
X99095709Y-81109046D01*
X99193729Y-81255743D01*
X99261246Y-81418744D01*
X99295666Y-81591785D01*
X99295666Y-81768215D01*
X99261246Y-81941256D01*
X99193729Y-82104257D01*
X99095709Y-82250954D01*
X98970954Y-82375709D01*
X98824257Y-82473729D01*
X98661256Y-82541246D01*
X98488215Y-82575666D01*
X98311785Y-82575666D01*
X98138744Y-82541246D01*
X97975743Y-82473729D01*
X97829046Y-82375709D01*
X97704291Y-82250954D01*
X97606271Y-82104257D01*
X97538754Y-81941256D01*
X97504334Y-81768215D01*
X97504334Y-81591785D01*
X97538754Y-81418744D01*
X97606271Y-81255743D01*
X97704291Y-81109046D01*
X97829046Y-80984291D01*
X97975743Y-80886271D01*
X98138744Y-80818754D01*
X98311785Y-80784334D01*
X98488215Y-80784334D01*
X98661256Y-80818754D01*
G37*
G36*
X110110476Y-81291866D02*
G01*
X110234819Y-81363656D01*
X110336344Y-81465181D01*
X110408134Y-81589524D01*
X110445295Y-81728211D01*
X110445295Y-81871789D01*
X110408134Y-82010476D01*
X110336344Y-82134819D01*
X110234819Y-82236344D01*
X110110476Y-82308134D01*
X109971789Y-82345295D01*
X109828211Y-82345295D01*
X109689524Y-82308134D01*
X109565181Y-82236344D01*
X109463656Y-82134819D01*
X109391866Y-82010476D01*
X109354705Y-81871789D01*
X109354705Y-81728211D01*
X109391866Y-81589524D01*
X109463656Y-81465181D01*
X109565181Y-81363656D01*
X109689524Y-81291866D01*
X109828211Y-81254705D01*
X109971789Y-81254705D01*
X110110476Y-81291866D01*
G37*
G36*
X122292208Y-80704254D02*
G01*
X122393943Y-80762991D01*
X122477009Y-80846057D01*
X122535746Y-80947792D01*
X122566150Y-81061263D01*
X122566150Y-81178737D01*
X122535746Y-81292208D01*
X122477009Y-81393943D01*
X122393943Y-81477009D01*
X122292208Y-81535746D01*
X122178737Y-81566150D01*
X122061263Y-81566150D01*
X121947792Y-81535746D01*
X121846057Y-81477009D01*
X121762991Y-81393943D01*
X121704254Y-81292208D01*
X121673850Y-81178737D01*
X121673850Y-81061263D01*
X121704254Y-80947792D01*
X121762991Y-80846057D01*
X121846057Y-80762991D01*
X121947792Y-80704254D01*
X122061263Y-80673850D01*
X122178737Y-80673850D01*
X122292208Y-80704254D01*
G37*
G36*
X138372208Y-80384254D02*
G01*
X138473943Y-80442991D01*
X138557009Y-80526057D01*
X138615746Y-80627792D01*
X138646150Y-80741263D01*
X138646150Y-80858737D01*
X138615746Y-80972208D01*
X138557009Y-81073943D01*
X138473943Y-81157009D01*
X138372208Y-81215746D01*
X138258737Y-81246150D01*
X138141263Y-81246150D01*
X138027792Y-81215746D01*
X137926057Y-81157009D01*
X137842991Y-81073943D01*
X137784254Y-80972208D01*
X137753850Y-80858737D01*
X137753850Y-80741263D01*
X137784254Y-80627792D01*
X137842991Y-80526057D01*
X137926057Y-80442991D01*
X138027792Y-80384254D01*
X138141263Y-80353850D01*
X138258737Y-80353850D01*
X138372208Y-80384254D01*
G37*
G36*
X103710476Y-80091866D02*
G01*
X103834819Y-80163656D01*
X103936344Y-80265181D01*
X104008134Y-80389524D01*
X104045295Y-80528211D01*
X104045295Y-80671789D01*
X104008134Y-80810476D01*
X103936344Y-80934819D01*
X103834819Y-81036344D01*
X103710476Y-81108134D01*
X103571789Y-81145295D01*
X103428211Y-81145295D01*
X103289524Y-81108134D01*
X103165181Y-81036344D01*
X103063656Y-80934819D01*
X102991866Y-80810476D01*
X102954705Y-80671789D01*
X102954705Y-80528211D01*
X102991866Y-80389524D01*
X103063656Y-80265181D01*
X103165181Y-80163656D01*
X103289524Y-80091866D01*
X103428211Y-80054705D01*
X103571789Y-80054705D01*
X103710476Y-80091866D01*
G37*
G36*
X111310476Y-78991866D02*
G01*
X111434819Y-79063656D01*
X111536344Y-79165181D01*
X111608134Y-79289524D01*
X111645295Y-79428211D01*
X111645295Y-79571789D01*
X111608134Y-79710476D01*
X111536344Y-79834819D01*
X111434819Y-79936344D01*
X111310476Y-80008134D01*
X111171789Y-80045295D01*
X111028211Y-80045295D01*
X110889524Y-80008134D01*
X110765181Y-79936344D01*
X110663656Y-79834819D01*
X110591866Y-79710476D01*
X110554705Y-79571789D01*
X110554705Y-79428211D01*
X110591866Y-79289524D01*
X110663656Y-79165181D01*
X110765181Y-79063656D01*
X110889524Y-78991866D01*
X111028211Y-78954705D01*
X111171789Y-78954705D01*
X111310476Y-78991866D01*
G37*
G36*
X98661256Y-78278754D02*
G01*
X98824257Y-78346271D01*
X98970954Y-78444291D01*
X99095709Y-78569046D01*
X99193729Y-78715743D01*
X99261246Y-78878744D01*
X99295666Y-79051785D01*
X99295666Y-79228215D01*
X99261246Y-79401256D01*
X99193729Y-79564257D01*
X99095709Y-79710954D01*
X98970954Y-79835709D01*
X98824257Y-79933729D01*
X98661256Y-80001246D01*
X98488215Y-80035666D01*
X98311785Y-80035666D01*
X98138744Y-80001246D01*
X97975743Y-79933729D01*
X97829046Y-79835709D01*
X97704291Y-79710954D01*
X97606271Y-79564257D01*
X97538754Y-79401256D01*
X97504334Y-79228215D01*
X97504334Y-79051785D01*
X97538754Y-78878744D01*
X97606271Y-78715743D01*
X97704291Y-78569046D01*
X97829046Y-78444291D01*
X97975743Y-78346271D01*
X98138744Y-78278754D01*
X98311785Y-78244334D01*
X98488215Y-78244334D01*
X98661256Y-78278754D01*
G37*
G36*
X108210476Y-78591866D02*
G01*
X108334819Y-78663656D01*
X108436344Y-78765181D01*
X108508134Y-78889524D01*
X108545295Y-79028211D01*
X108545295Y-79171789D01*
X108508134Y-79310476D01*
X108436344Y-79434819D01*
X108334819Y-79536344D01*
X108210476Y-79608134D01*
X108071789Y-79645295D01*
X107928211Y-79645295D01*
X107789524Y-79608134D01*
X107665181Y-79536344D01*
X107563656Y-79434819D01*
X107491866Y-79310476D01*
X107454705Y-79171789D01*
X107454705Y-79028211D01*
X107491866Y-78889524D01*
X107563656Y-78765181D01*
X107665181Y-78663656D01*
X107789524Y-78591866D01*
X107928211Y-78554705D01*
X108071789Y-78554705D01*
X108210476Y-78591866D01*
G37*
G36*
X101810476Y-78391866D02*
G01*
X101934819Y-78463656D01*
X102036344Y-78565181D01*
X102108134Y-78689524D01*
X102145295Y-78828211D01*
X102145295Y-78971789D01*
X102108134Y-79110476D01*
X102036344Y-79234819D01*
X101934819Y-79336344D01*
X101810476Y-79408134D01*
X101671789Y-79445295D01*
X101528211Y-79445295D01*
X101389524Y-79408134D01*
X101265181Y-79336344D01*
X101163656Y-79234819D01*
X101091866Y-79110476D01*
X101054705Y-78971789D01*
X101054705Y-78828211D01*
X101091866Y-78689524D01*
X101163656Y-78565181D01*
X101265181Y-78463656D01*
X101389524Y-78391866D01*
X101528211Y-78354705D01*
X101671789Y-78354705D01*
X101810476Y-78391866D01*
G37*
G36*
X105510476Y-78391866D02*
G01*
X105634819Y-78463656D01*
X105736344Y-78565181D01*
X105808134Y-78689524D01*
X105845295Y-78828211D01*
X105845295Y-78971789D01*
X105808134Y-79110476D01*
X105736344Y-79234819D01*
X105634819Y-79336344D01*
X105510476Y-79408134D01*
X105371789Y-79445295D01*
X105228211Y-79445295D01*
X105089524Y-79408134D01*
X104965181Y-79336344D01*
X104863656Y-79234819D01*
X104791866Y-79110476D01*
X104754705Y-78971789D01*
X104754705Y-78828211D01*
X104791866Y-78689524D01*
X104863656Y-78565181D01*
X104965181Y-78463656D01*
X105089524Y-78391866D01*
X105228211Y-78354705D01*
X105371789Y-78354705D01*
X105510476Y-78391866D01*
G37*
G36*
X133772208Y-78384254D02*
G01*
X133873943Y-78442991D01*
X133957009Y-78526057D01*
X134015746Y-78627792D01*
X134046150Y-78741263D01*
X134046150Y-78858737D01*
X134015746Y-78972208D01*
X133957009Y-79073943D01*
X133873943Y-79157009D01*
X133772208Y-79215746D01*
X133658737Y-79246150D01*
X133541263Y-79246150D01*
X133427792Y-79215746D01*
X133326057Y-79157009D01*
X133242991Y-79073943D01*
X133184254Y-78972208D01*
X133153850Y-78858737D01*
X133153850Y-78741263D01*
X133184254Y-78627792D01*
X133242991Y-78526057D01*
X133326057Y-78442991D01*
X133427792Y-78384254D01*
X133541263Y-78353850D01*
X133658737Y-78353850D01*
X133772208Y-78384254D01*
G37*
G36*
X99269134Y-75703806D02*
G01*
X99285355Y-75714645D01*
X99296194Y-75730866D01*
X99300000Y-75750000D01*
X99300000Y-77450000D01*
X99296194Y-77469134D01*
X99285355Y-77485355D01*
X99269134Y-77496194D01*
X99250000Y-77500000D01*
X97550000Y-77500000D01*
X97530866Y-77496194D01*
X97514645Y-77485355D01*
X97503806Y-77469134D01*
X97500000Y-77450000D01*
X97500000Y-75750000D01*
X97503806Y-75730866D01*
X97514645Y-75714645D01*
X97530866Y-75703806D01*
X97550000Y-75700000D01*
X99250000Y-75700000D01*
X99269134Y-75703806D01*
G37*
G36*
X127510476Y-74391866D02*
G01*
X127634819Y-74463656D01*
X127736344Y-74565181D01*
X127808134Y-74689524D01*
X127845295Y-74828211D01*
X127845295Y-74971789D01*
X127808134Y-75110476D01*
X127736344Y-75234819D01*
X127634819Y-75336344D01*
X127510476Y-75408134D01*
X127371789Y-75445295D01*
X127228211Y-75445295D01*
X127089524Y-75408134D01*
X126965181Y-75336344D01*
X126863656Y-75234819D01*
X126791866Y-75110476D01*
X126754705Y-74971789D01*
X126754705Y-74828211D01*
X126791866Y-74689524D01*
X126863656Y-74565181D01*
X126965181Y-74463656D01*
X127089524Y-74391866D01*
X127228211Y-74354705D01*
X127371789Y-74354705D01*
X127510476Y-74391866D01*
G37*
G36*
X122989134Y-71503806D02*
G01*
X123005355Y-71514645D01*
X123016194Y-71530866D01*
X123020000Y-71550000D01*
X123020000Y-73250000D01*
X123016194Y-73269134D01*
X123005355Y-73285355D01*
X122989134Y-73296194D01*
X122970000Y-73300000D01*
X121270000Y-73300000D01*
X121250866Y-73296194D01*
X121234645Y-73285355D01*
X121223806Y-73269134D01*
X121220000Y-73250000D01*
X121220000Y-71550000D01*
X121223806Y-71530866D01*
X121234645Y-71514645D01*
X121250866Y-71503806D01*
X121270000Y-71500000D01*
X122970000Y-71500000D01*
X122989134Y-71503806D01*
G37*
G36*
X124921256Y-71538754D02*
G01*
X125084257Y-71606271D01*
X125230954Y-71704291D01*
X125355709Y-71829046D01*
X125453729Y-71975743D01*
X125521246Y-72138744D01*
X125555666Y-72311785D01*
X125555666Y-72488215D01*
X125521246Y-72661256D01*
X125453729Y-72824257D01*
X125355709Y-72970954D01*
X125230954Y-73095709D01*
X125084257Y-73193729D01*
X124921256Y-73261246D01*
X124748215Y-73295666D01*
X124571785Y-73295666D01*
X124398744Y-73261246D01*
X124235743Y-73193729D01*
X124089046Y-73095709D01*
X123964291Y-72970954D01*
X123866271Y-72824257D01*
X123798754Y-72661256D01*
X123764334Y-72488215D01*
X123764334Y-72311785D01*
X123798754Y-72138744D01*
X123866271Y-71975743D01*
X123964291Y-71829046D01*
X124089046Y-71704291D01*
X124235743Y-71606271D01*
X124398744Y-71538754D01*
X124571785Y-71504334D01*
X124748215Y-71504334D01*
X124921256Y-71538754D01*
G37*
G36*
X127461256Y-71538754D02*
G01*
X127624257Y-71606271D01*
X127770954Y-71704291D01*
X127895709Y-71829046D01*
X127993729Y-71975743D01*
X128061246Y-72138744D01*
X128095666Y-72311785D01*
X128095666Y-72488215D01*
X128061246Y-72661256D01*
X127993729Y-72824257D01*
X127895709Y-72970954D01*
X127770954Y-73095709D01*
X127624257Y-73193729D01*
X127461256Y-73261246D01*
X127288215Y-73295666D01*
X127111785Y-73295666D01*
X126938744Y-73261246D01*
X126775743Y-73193729D01*
X126629046Y-73095709D01*
X126504291Y-72970954D01*
X126406271Y-72824257D01*
X126338754Y-72661256D01*
X126304334Y-72488215D01*
X126304334Y-72311785D01*
X126338754Y-72138744D01*
X126406271Y-71975743D01*
X126504291Y-71829046D01*
X126629046Y-71704291D01*
X126775743Y-71606271D01*
X126938744Y-71538754D01*
X127111785Y-71504334D01*
X127288215Y-71504334D01*
X127461256Y-71538754D01*
G37*
G36*
X130001256Y-71538754D02*
G01*
X130164257Y-71606271D01*
X130310954Y-71704291D01*
X130435709Y-71829046D01*
X130533729Y-71975743D01*
X130601246Y-72138744D01*
X130635666Y-72311785D01*
X130635666Y-72488215D01*
X130601246Y-72661256D01*
X130533729Y-72824257D01*
X130435709Y-72970954D01*
X130310954Y-73095709D01*
X130164257Y-73193729D01*
X130001256Y-73261246D01*
X129828215Y-73295666D01*
X129651785Y-73295666D01*
X129478744Y-73261246D01*
X129315743Y-73193729D01*
X129169046Y-73095709D01*
X129044291Y-72970954D01*
X128946271Y-72824257D01*
X128878754Y-72661256D01*
X128844334Y-72488215D01*
X128844334Y-72311785D01*
X128878754Y-72138744D01*
X128946271Y-71975743D01*
X129044291Y-71829046D01*
X129169046Y-71704291D01*
X129315743Y-71606271D01*
X129478744Y-71538754D01*
X129651785Y-71504334D01*
X129828215Y-71504334D01*
X130001256Y-71538754D01*
G37*
G36*
X132541256Y-71538754D02*
G01*
X132704257Y-71606271D01*
X132850954Y-71704291D01*
X132975709Y-71829046D01*
X133073729Y-71975743D01*
X133141246Y-72138744D01*
X133175666Y-72311785D01*
X133175666Y-72488215D01*
X133141246Y-72661256D01*
X133073729Y-72824257D01*
X132975709Y-72970954D01*
X132850954Y-73095709D01*
X132704257Y-73193729D01*
X132541256Y-73261246D01*
X132368215Y-73295666D01*
X132191785Y-73295666D01*
X132018744Y-73261246D01*
X131855743Y-73193729D01*
X131709046Y-73095709D01*
X131584291Y-72970954D01*
X131486271Y-72824257D01*
X131418754Y-72661256D01*
X131384334Y-72488215D01*
X131384334Y-72311785D01*
X131418754Y-72138744D01*
X131486271Y-71975743D01*
X131584291Y-71829046D01*
X131709046Y-71704291D01*
X131855743Y-71606271D01*
X132018744Y-71538754D01*
X132191785Y-71504334D01*
X132368215Y-71504334D01*
X132541256Y-71538754D01*
G37*
G36*
X135081256Y-71538754D02*
G01*
X135244257Y-71606271D01*
X135390954Y-71704291D01*
X135515709Y-71829046D01*
X135613729Y-71975743D01*
X135681246Y-72138744D01*
X135715666Y-72311785D01*
X135715666Y-72488215D01*
X135681246Y-72661256D01*
X135613729Y-72824257D01*
X135515709Y-72970954D01*
X135390954Y-73095709D01*
X135244257Y-73193729D01*
X135081256Y-73261246D01*
X134908215Y-73295666D01*
X134731785Y-73295666D01*
X134558744Y-73261246D01*
X134395743Y-73193729D01*
X134249046Y-73095709D01*
X134124291Y-72970954D01*
X134026271Y-72824257D01*
X133958754Y-72661256D01*
X133924334Y-72488215D01*
X133924334Y-72311785D01*
X133958754Y-72138744D01*
X134026271Y-71975743D01*
X134124291Y-71829046D01*
X134249046Y-71704291D01*
X134395743Y-71606271D01*
X134558744Y-71538754D01*
X134731785Y-71504334D01*
X134908215Y-71504334D01*
X135081256Y-71538754D01*
G37*
G36*
X81326824Y-69838682D02*
G01*
X81535757Y-69906569D01*
X81731498Y-70006304D01*
X81909227Y-70135432D01*
X82064568Y-70290773D01*
X82193696Y-70468502D01*
X82293431Y-70664243D01*
X82361318Y-70873176D01*
X82395684Y-71090157D01*
X82395684Y-71309843D01*
X82361318Y-71526824D01*
X82293431Y-71735757D01*
X82193696Y-71931498D01*
X82064568Y-72109227D01*
X81909227Y-72264568D01*
X81731498Y-72393696D01*
X81535757Y-72493431D01*
X81326824Y-72561318D01*
X81109843Y-72595684D01*
X80890157Y-72595684D01*
X80673176Y-72561318D01*
X80464243Y-72493431D01*
X80268502Y-72393696D01*
X80090773Y-72264568D01*
X79935432Y-72109227D01*
X79806304Y-71931498D01*
X79706569Y-71735757D01*
X79638682Y-71526824D01*
X79604316Y-71309843D01*
X79604316Y-71090157D01*
X79638682Y-70873176D01*
X79706569Y-70664243D01*
X79806304Y-70468502D01*
X79935432Y-70290773D01*
X80090773Y-70135432D01*
X80268502Y-70006304D01*
X80464243Y-69906569D01*
X80673176Y-69838682D01*
X80890157Y-69804316D01*
X81109843Y-69804316D01*
X81326824Y-69838682D01*
G37*
G36*
X144126824Y-69838682D02*
G01*
X144335757Y-69906569D01*
X144531498Y-70006304D01*
X144709227Y-70135432D01*
X144864568Y-70290773D01*
X144993696Y-70468502D01*
X145093431Y-70664243D01*
X145161318Y-70873176D01*
X145195684Y-71090157D01*
X145195684Y-71309843D01*
X145161318Y-71526824D01*
X145093431Y-71735757D01*
X144993696Y-71931498D01*
X144864568Y-72109227D01*
X144709227Y-72264568D01*
X144531498Y-72393696D01*
X144335757Y-72493431D01*
X144126824Y-72561318D01*
X143909843Y-72595684D01*
X143690157Y-72595684D01*
X143473176Y-72561318D01*
X143264243Y-72493431D01*
X143068502Y-72393696D01*
X142890773Y-72264568D01*
X142735432Y-72109227D01*
X142606304Y-71931498D01*
X142506569Y-71735757D01*
X142438682Y-71526824D01*
X142404316Y-71309843D01*
X142404316Y-71090157D01*
X142438682Y-70873176D01*
X142506569Y-70664243D01*
X142606304Y-70468502D01*
X142735432Y-70290773D01*
X142890773Y-70135432D01*
X143068502Y-70006304D01*
X143264243Y-69906569D01*
X143473176Y-69838682D01*
X143690157Y-69804316D01*
X143909843Y-69804316D01*
X144126824Y-69838682D01*
G37*
G36*
X127410476Y-69391866D02*
G01*
X127534819Y-69463656D01*
X127636344Y-69565181D01*
X127708134Y-69689524D01*
X127745295Y-69828211D01*
X127745295Y-69971789D01*
X127708134Y-70110476D01*
X127636344Y-70234819D01*
X127534819Y-70336344D01*
X127410476Y-70408134D01*
X127271789Y-70445295D01*
X127128211Y-70445295D01*
X126989524Y-70408134D01*
X126865181Y-70336344D01*
X126763656Y-70234819D01*
X126691866Y-70110476D01*
X126654705Y-69971789D01*
X126654705Y-69828211D01*
X126691866Y-69689524D01*
X126763656Y-69565181D01*
X126865181Y-69463656D01*
X126989524Y-69391866D01*
X127128211Y-69354705D01*
X127271789Y-69354705D01*
X127410476Y-69391866D01*
G37*
M02*
