%TF.GenerationSoftware,KiCad,Pcbnew,10.0.5-10.0.5~ubuntu24.04.1*%
%TF.CreationDate,2026-08-08T16:18:17+02:00*%
%TF.ProjectId,PIC12_UNIVERSAL_Devboard_v1_THT,50494331-325f-4554-9e49-56455253414c,rev?*%
%TF.SameCoordinates,Original*%
%TF.FileFunction,Copper,L2,Bot*%
%TF.FilePolarity,Positive*%
%FSLAX46Y46*%
G04 Gerber Fmt 4.6, Leading zero omitted, Abs format (unit mm)*
G04 Created by KiCad (PCBNEW 10.0.5-10.0.5~ubuntu24.04.1) date 2026-08-08 16:18:17*
%MOMM*%
%LPD*%
G01*
G04 APERTURE LIST*
G04 Aperture macros list*
%AMRoundRect*
0 Rectangle with rounded corners*
0 $1 Rounding radius*
0 $2 $3 $4 $5 $6 $7 $8 $9 X,Y pos of 4 corners*
0 Add a 4 corners polygon primitive as box body*
4,1,4,$2,$3,$4,$5,$6,$7,$8,$9,$2,$3,0*
0 Add four circle primitives for the rounded corners*
1,1,$1+$1,$2,$3*
1,1,$1+$1,$4,$5*
1,1,$1+$1,$6,$7*
1,1,$1+$1,$8,$9*
0 Add four rect primitives between the rounded corners*
20,1,$1+$1,$2,$3,$4,$5,0*
20,1,$1+$1,$4,$5,$6,$7,0*
20,1,$1+$1,$6,$7,$8,$9,0*
20,1,$1+$1,$8,$9,$2,$3,0*%
G04 Aperture macros list end*
%TA.AperFunction,ComponentPad*%
%ADD10R,1.800000X1.800000*%
%TD*%
%TA.AperFunction,ComponentPad*%
%ADD11C,1.800000*%
%TD*%
%TA.AperFunction,ComponentPad*%
%ADD12R,1.700000X1.700000*%
%TD*%
%TA.AperFunction,ComponentPad*%
%ADD13C,1.700000*%
%TD*%
%TA.AperFunction,ComponentPad*%
%ADD14RoundRect,0.250000X-0.550000X-0.550000X0.550000X-0.550000X0.550000X0.550000X-0.550000X0.550000X0*%
%TD*%
%TA.AperFunction,ComponentPad*%
%ADD15C,1.600000*%
%TD*%
%TA.AperFunction,ComponentPad*%
%ADD16C,1.400000*%
%TD*%
%TA.AperFunction,ComponentPad*%
%ADD17RoundRect,0.250000X-1.050000X1.050000X-1.050000X-1.050000X1.050000X-1.050000X1.050000X1.050000X0*%
%TD*%
%TA.AperFunction,ComponentPad*%
%ADD18C,2.600000*%
%TD*%
%TA.AperFunction,ViaPad*%
%ADD19C,0.800000*%
%TD*%
%TA.AperFunction,ViaPad*%
%ADD20C,1.000000*%
%TD*%
%TA.AperFunction,Conductor*%
%ADD21C,0.300000*%
%TD*%
G04 APERTURE END LIST*
D10*
%TO.P,D2,1,K_1*%
%TO.N,GND*%
X119400000Y-103600000D03*
D11*
%TO.P,D2,2,A_2*%
%TO.N,Net-(D2-A)*%
X121940000Y-103600000D03*
%TD*%
D12*
%TO.P,J2,1,~{MCLR}/VPP_1*%
%TO.N,PIC_RST*%
X122120000Y-72400000D03*
D13*
%TO.P,J2,2,VDD_2*%
%TO.N,VDD*%
X124660000Y-72400000D03*
%TO.P,J2,3,VSS_3*%
%TO.N,GND*%
X127200000Y-72400000D03*
%TO.P,J2,4,PGD/ICSPDAT_4*%
%TO.N,PIC_ICSPDAT*%
X129740000Y-72400000D03*
%TO.P,J2,5,PGC/ICSPCLK_5*%
%TO.N,PIC_ICSPCLK*%
X132280000Y-72400000D03*
%TO.P,J2,6,PGM/LVP_6*%
%TO.N,unconnected-(J2-PGM{slash}LVP-Pad6)*%
X134820000Y-72400000D03*
%TD*%
D12*
%TO.P,J4,1,Pin_1_1*%
%TO.N,VDD*%
X145000000Y-81800000D03*
D13*
%TO.P,J4,2,Pin_2_2*%
%TO.N,PIC_ICSPDAT*%
X145000000Y-84340000D03*
%TO.P,J4,3,Pin_3_3*%
%TO.N,PIC_ICSPCLK*%
X145000000Y-86880000D03*
%TO.P,J4,4,Pin_4_4*%
%TO.N,PIC_LED*%
X145000000Y-89420000D03*
%TO.P,J4,5,Pin_5_5*%
%TO.N,PIC_GP4*%
X145000000Y-91960000D03*
%TO.P,J4,6,Pin_6_6*%
%TO.N,PIC_GP5*%
X145000000Y-94500000D03*
%TO.P,J4,7,Pin_7_7*%
%TO.N,GND*%
X145000000Y-97040000D03*
%TD*%
D14*
%TO.P,U1,1,VDD_1*%
%TO.N,VDD*%
X125190000Y-85990000D03*
D15*
%TO.P,U1,2,GP5_2*%
%TO.N,PIC_GP5*%
X125190000Y-88530000D03*
%TO.P,U1,3,GP4_3*%
%TO.N,PIC_GP4*%
X125190000Y-91070000D03*
%TO.P,U1,4,GP3_4*%
%TO.N,PIC_RST*%
X125190000Y-93610000D03*
%TO.P,U1,5,GP2_5*%
%TO.N,PIC_LED*%
X132810000Y-93610000D03*
%TO.P,U1,6,GP1_6*%
%TO.N,PIC_ICSPCLK*%
X132810000Y-91070000D03*
%TO.P,U1,7,GP0_7*%
%TO.N,PIC_ICSPDAT*%
X132810000Y-88530000D03*
%TO.P,U1,8,VSS_8*%
%TO.N,GND*%
X132810000Y-85990000D03*
%TD*%
D10*
%TO.P,D3,1,K_1*%
%TO.N,GND*%
X89600000Y-101000000D03*
D11*
%TO.P,D3,2,A_2*%
%TO.N,Net-(D3-A)*%
X92140000Y-101000000D03*
%TD*%
D16*
%TO.P,JP1,1,A_1*%
%TO.N,Net-(JP1-A)*%
X104800000Y-101050000D03*
%TO.P,JP1,2,B_2*%
%TO.N,VDD*%
X104800000Y-98510000D03*
%TD*%
D12*
%TO.P,JP2,1,A_1*%
%TO.N,VCC_3_3*%
X98400000Y-76600000D03*
D13*
%TO.P,JP2,2,C_2*%
%TO.N,VCC*%
X98400000Y-79140000D03*
%TO.P,JP2,3,B_3*%
%TO.N,VCC_5*%
X98400000Y-81680000D03*
%TD*%
D17*
%TO.P,J3,1,Pin_1_1*%
%TO.N,Net-(D1-A)*%
X83000000Y-85400000D03*
D18*
%TO.P,J3,2,Pin_2_2*%
%TO.N,GND*%
X83000000Y-90480000D03*
%TD*%
D16*
%TO.P,JP3,1,A_1*%
%TO.N,PIC_LED*%
X133000000Y-101000000D03*
%TO.P,JP3,2,B_2*%
%TO.N,Net-(JP3-B)*%
X133000000Y-103540000D03*
%TD*%
D19*
%TO.N,PIC_ICSPDAT*%
X136900000Y-85900000D03*
X133600000Y-78800000D03*
D20*
%TO.N,GND*%
X108000000Y-79100000D03*
X119300000Y-106100000D03*
X101600000Y-78900000D03*
X111100000Y-79500000D03*
X134800000Y-85900000D03*
X132900000Y-83800000D03*
X103500000Y-80600000D03*
X105500000Y-93200000D03*
X117400000Y-103600000D03*
X142800000Y-99000000D03*
X119300000Y-101300000D03*
X103800000Y-95000000D03*
X105300000Y-78900000D03*
X113300000Y-97800000D03*
X94900000Y-95100000D03*
X127200000Y-69900000D03*
X109900000Y-81800000D03*
X130400000Y-83800000D03*
X93200000Y-93400000D03*
X97100000Y-94800000D03*
X102000000Y-94700000D03*
X144900000Y-99500000D03*
X99300000Y-96400000D03*
X86000000Y-101100000D03*
X132100000Y-82200000D03*
X111500000Y-97800000D03*
X127300000Y-74900000D03*
D19*
%TO.N,PIC_RST*%
X122120000Y-81120000D03*
X122100000Y-83200000D03*
%TO.N,PIC_GP4*%
X137500000Y-92400000D03*
%TO.N,PIC_ICSPCLK*%
X138200000Y-80800000D03*
X137250000Y-88350000D03*
%TO.N,PIC_GP5*%
X134100000Y-95800000D03*
X131900000Y-95800000D03*
%TD*%
%TO.N,PIC_ICSPDAT*%
D21*
X136900000Y-82100000D02*
X136900000Y-85900000D01*
X133600000Y-78800000D02*
X136900000Y-82100000D01*
%TO.N,PIC_RST*%
X122120000Y-81120000D02*
X122100000Y-81140000D01*
X122100000Y-83200000D02*
X122100000Y-82800000D01*
X122100000Y-81140000D02*
X122100000Y-83200000D01*
%TO.N,PIC_GP4*%
X129800000Y-92400000D02*
X128470000Y-91070000D01*
X128470000Y-91070000D02*
X125190000Y-91070000D01*
X129800000Y-92400000D02*
X137500000Y-92400000D01*
%TO.N,PIC_ICSPCLK*%
X138200000Y-80800000D02*
X138200000Y-87400000D01*
X138200000Y-87400000D02*
X137300000Y-88300000D01*
%TO.N,PIC_GP5*%
X131900000Y-95800000D02*
X134100000Y-95800000D01*
%TD*%
%TA.AperFunction,Conductor*%
%TO.N,GND*%
G36*
X147042539Y-67920185D02*
G01*
X147088294Y-67972989D01*
X147099500Y-68024500D01*
X147099500Y-107175500D01*
X147079815Y-107242539D01*
X147027011Y-107288294D01*
X146975500Y-107299500D01*
X77824500Y-107299500D01*
X77757461Y-107279815D01*
X77711706Y-107227011D01*
X77700500Y-107175500D01*
X77700500Y-103870097D01*
X79349500Y-103870097D01*
X79349500Y-104129902D01*
X79390140Y-104386493D01*
X79470422Y-104633576D01*
X79588368Y-104865054D01*
X79681759Y-104993596D01*
X79741069Y-105075229D01*
X79924771Y-105258931D01*
X80134949Y-105411634D01*
X80282445Y-105486787D01*
X80366423Y-105529577D01*
X80366425Y-105529577D01*
X80366428Y-105529579D01*
X80613507Y-105609860D01*
X80745706Y-105630797D01*
X80870098Y-105650500D01*
X80870103Y-105650500D01*
X81129902Y-105650500D01*
X81243298Y-105632539D01*
X81386493Y-105609860D01*
X81633572Y-105529579D01*
X81865051Y-105411634D01*
X82075229Y-105258931D01*
X82258931Y-105075229D01*
X82411634Y-104865051D01*
X82529579Y-104633572D01*
X82609860Y-104386493D01*
X82632539Y-104243298D01*
X82650500Y-104129902D01*
X82650500Y-103870097D01*
X82642254Y-103818036D01*
X82625178Y-103710222D01*
X82609860Y-103613507D01*
X82529579Y-103366428D01*
X82529577Y-103366425D01*
X82529577Y-103366423D01*
X82474781Y-103258881D01*
X82411634Y-103134949D01*
X82258931Y-102924771D01*
X82075229Y-102741069D01*
X82075223Y-102741064D01*
X82075220Y-102741062D01*
X81952850Y-102652155D01*
X118000000Y-102652155D01*
X118000000Y-103350000D01*
X119024722Y-103350000D01*
X118980667Y-103426306D01*
X118950000Y-103540756D01*
X118950000Y-103659244D01*
X118980667Y-103773694D01*
X119024722Y-103850000D01*
X118000000Y-103850000D01*
X118000000Y-104547844D01*
X118006401Y-104607372D01*
X118006403Y-104607379D01*
X118056645Y-104742086D01*
X118056649Y-104742093D01*
X118142809Y-104857187D01*
X118142812Y-104857190D01*
X118257906Y-104943350D01*
X118257913Y-104943354D01*
X118392620Y-104993596D01*
X118392627Y-104993598D01*
X118452155Y-104999999D01*
X118452172Y-105000000D01*
X119150000Y-105000000D01*
X119150000Y-103975277D01*
X119226306Y-104019333D01*
X119340756Y-104050000D01*
X119459244Y-104050000D01*
X119573694Y-104019333D01*
X119650000Y-103975277D01*
X119650000Y-105000000D01*
X120347828Y-105000000D01*
X120347844Y-104999999D01*
X120407372Y-104993598D01*
X120407379Y-104993596D01*
X120542086Y-104943354D01*
X120542093Y-104943350D01*
X120657187Y-104857190D01*
X120657190Y-104857187D01*
X120743350Y-104742093D01*
X120743354Y-104742086D01*
X120773213Y-104662031D01*
X120815084Y-104606097D01*
X120880548Y-104581680D01*
X120948821Y-104596531D01*
X120977076Y-104617683D01*
X121027636Y-104668243D01*
X121027641Y-104668247D01*
X121183192Y-104781260D01*
X121205978Y-104797815D01*
X121322501Y-104857187D01*
X121402393Y-104897895D01*
X121402396Y-104897896D01*
X121507221Y-104931955D01*
X121612049Y-104966015D01*
X121829778Y-105000500D01*
X121829779Y-105000500D01*
X122050221Y-105000500D01*
X122050222Y-105000500D01*
X122267951Y-104966015D01*
X122477606Y-104897895D01*
X122674022Y-104797815D01*
X122852365Y-104668242D01*
X123008242Y-104512365D01*
X123137815Y-104334022D01*
X123237895Y-104137606D01*
X123306015Y-103927951D01*
X123340500Y-103710222D01*
X123340500Y-103489778D01*
X123306015Y-103272049D01*
X123271955Y-103167221D01*
X123237896Y-103062396D01*
X123237895Y-103062393D01*
X123167773Y-102924774D01*
X123137815Y-102865978D01*
X123059312Y-102757927D01*
X123008247Y-102687641D01*
X123008243Y-102687636D01*
X122852363Y-102531756D01*
X122852358Y-102531752D01*
X122674025Y-102402187D01*
X122674024Y-102402186D01*
X122674022Y-102402185D01*
X122603033Y-102366014D01*
X122477606Y-102302104D01*
X122477603Y-102302103D01*
X122267952Y-102233985D01*
X122149903Y-102215288D01*
X122050222Y-102199500D01*
X121829778Y-102199500D01*
X121757201Y-102210995D01*
X121612047Y-102233985D01*
X121402396Y-102302103D01*
X121402393Y-102302104D01*
X121205974Y-102402187D01*
X121027641Y-102531752D01*
X121027636Y-102531756D01*
X120977075Y-102582317D01*
X120915752Y-102615801D01*
X120846060Y-102610816D01*
X120790127Y-102568945D01*
X120773213Y-102537968D01*
X120743354Y-102457913D01*
X120743350Y-102457906D01*
X120657190Y-102342812D01*
X120657187Y-102342809D01*
X120542093Y-102256649D01*
X120542086Y-102256645D01*
X120407379Y-102206403D01*
X120407372Y-102206401D01*
X120347844Y-102200000D01*
X119650000Y-102200000D01*
X119650000Y-103224722D01*
X119573694Y-103180667D01*
X119459244Y-103150000D01*
X119340756Y-103150000D01*
X119226306Y-103180667D01*
X119150000Y-103224722D01*
X119150000Y-102200000D01*
X118452155Y-102200000D01*
X118392627Y-102206401D01*
X118392620Y-102206403D01*
X118257913Y-102256645D01*
X118257906Y-102256649D01*
X118142812Y-102342809D01*
X118142809Y-102342812D01*
X118056649Y-102457906D01*
X118056645Y-102457913D01*
X118006403Y-102592620D01*
X118006401Y-102592627D01*
X118000000Y-102652155D01*
X81952850Y-102652155D01*
X81865054Y-102588368D01*
X81865053Y-102588367D01*
X81865051Y-102588366D01*
X81766140Y-102537968D01*
X81633576Y-102470422D01*
X81386493Y-102390140D01*
X81129902Y-102349500D01*
X81129897Y-102349500D01*
X80870103Y-102349500D01*
X80870098Y-102349500D01*
X80613506Y-102390140D01*
X80366423Y-102470422D01*
X80134945Y-102588368D01*
X79924774Y-102741066D01*
X79924768Y-102741071D01*
X79741071Y-102924768D01*
X79741066Y-102924774D01*
X79588368Y-103134945D01*
X79470422Y-103366423D01*
X79390140Y-103613506D01*
X79349500Y-103870097D01*
X77700500Y-103870097D01*
X77700500Y-100052155D01*
X88200000Y-100052155D01*
X88200000Y-100750000D01*
X89224722Y-100750000D01*
X89180667Y-100826306D01*
X89150000Y-100940756D01*
X89150000Y-101059244D01*
X89180667Y-101173694D01*
X89224722Y-101250000D01*
X88200000Y-101250000D01*
X88200000Y-101947844D01*
X88206401Y-102007372D01*
X88206403Y-102007379D01*
X88256645Y-102142086D01*
X88256649Y-102142093D01*
X88342809Y-102257187D01*
X88342812Y-102257190D01*
X88457906Y-102343350D01*
X88457913Y-102343354D01*
X88592620Y-102393596D01*
X88592627Y-102393598D01*
X88652155Y-102399999D01*
X88652172Y-102400000D01*
X89350000Y-102400000D01*
X89350000Y-101375277D01*
X89426306Y-101419333D01*
X89540756Y-101450000D01*
X89659244Y-101450000D01*
X89773694Y-101419333D01*
X89850000Y-101375277D01*
X89850000Y-102400000D01*
X90547828Y-102400000D01*
X90547844Y-102399999D01*
X90607372Y-102393598D01*
X90607379Y-102393596D01*
X90742086Y-102343354D01*
X90742093Y-102343350D01*
X90857187Y-102257190D01*
X90857190Y-102257187D01*
X90943350Y-102142093D01*
X90943354Y-102142086D01*
X90973213Y-102062031D01*
X91015084Y-102006097D01*
X91080548Y-101981680D01*
X91148821Y-101996531D01*
X91177076Y-102017683D01*
X91227636Y-102068243D01*
X91227641Y-102068247D01*
X91383192Y-102181260D01*
X91405978Y-102197815D01*
X91521437Y-102256645D01*
X91602393Y-102297895D01*
X91602396Y-102297896D01*
X91684929Y-102324712D01*
X91812049Y-102366015D01*
X92029778Y-102400500D01*
X92029779Y-102400500D01*
X92250221Y-102400500D01*
X92250222Y-102400500D01*
X92467951Y-102366015D01*
X92677606Y-102297895D01*
X92874022Y-102197815D01*
X93052365Y-102068242D01*
X93208242Y-101912365D01*
X93337815Y-101734022D01*
X93437895Y-101537606D01*
X93506015Y-101327951D01*
X93540500Y-101110222D01*
X93540500Y-100889778D01*
X93506015Y-100672049D01*
X93471955Y-100567221D01*
X93437896Y-100462396D01*
X93437895Y-100462393D01*
X93403237Y-100394375D01*
X93337815Y-100265978D01*
X93242155Y-100134312D01*
X93208247Y-100087641D01*
X93208243Y-100087636D01*
X93052363Y-99931756D01*
X93052358Y-99931752D01*
X92874025Y-99802187D01*
X92874024Y-99802186D01*
X92874022Y-99802185D01*
X92802743Y-99765866D01*
X92677606Y-99702104D01*
X92677603Y-99702103D01*
X92467952Y-99633985D01*
X92359086Y-99616742D01*
X92250222Y-99599500D01*
X92029778Y-99599500D01*
X91957201Y-99610995D01*
X91812047Y-99633985D01*
X91602396Y-99702103D01*
X91602393Y-99702104D01*
X91405974Y-99802187D01*
X91227641Y-99931752D01*
X91227636Y-99931756D01*
X91177075Y-99982317D01*
X91115752Y-100015801D01*
X91046060Y-100010816D01*
X90990127Y-99968945D01*
X90973213Y-99937968D01*
X90943354Y-99857913D01*
X90943350Y-99857906D01*
X90857190Y-99742812D01*
X90857187Y-99742809D01*
X90742093Y-99656649D01*
X90742086Y-99656645D01*
X90607379Y-99606403D01*
X90607372Y-99606401D01*
X90547844Y-99600000D01*
X89850000Y-99600000D01*
X89850000Y-100624722D01*
X89773694Y-100580667D01*
X89659244Y-100550000D01*
X89540756Y-100550000D01*
X89426306Y-100580667D01*
X89350000Y-100624722D01*
X89350000Y-99600000D01*
X88652155Y-99600000D01*
X88592627Y-99606401D01*
X88592620Y-99606403D01*
X88457913Y-99656645D01*
X88457906Y-99656649D01*
X88342812Y-99742809D01*
X88342809Y-99742812D01*
X88256649Y-99857906D01*
X88256645Y-99857913D01*
X88206403Y-99992620D01*
X88206401Y-99992627D01*
X88200000Y-100052155D01*
X77700500Y-100052155D01*
X77700500Y-98415513D01*
X103599500Y-98415513D01*
X103599500Y-98604486D01*
X103629059Y-98791118D01*
X103687454Y-98970836D01*
X103773240Y-99139199D01*
X103884310Y-99292073D01*
X104017927Y-99425690D01*
X104170801Y-99536760D01*
X104250347Y-99577290D01*
X104339163Y-99622545D01*
X104339165Y-99622545D01*
X104339168Y-99622547D01*
X104428734Y-99651649D01*
X104460803Y-99662069D01*
X104518478Y-99701507D01*
X104545676Y-99765866D01*
X104533761Y-99834712D01*
X104486516Y-99886188D01*
X104460803Y-99897931D01*
X104339163Y-99937454D01*
X104170800Y-100023240D01*
X104131003Y-100052155D01*
X104017927Y-100134310D01*
X104017925Y-100134312D01*
X104017924Y-100134312D01*
X103884312Y-100267924D01*
X103884312Y-100267925D01*
X103884310Y-100267927D01*
X103836610Y-100333579D01*
X103773240Y-100420800D01*
X103687454Y-100589163D01*
X103629059Y-100768881D01*
X103599500Y-100955513D01*
X103599500Y-101144486D01*
X103629059Y-101331118D01*
X103687454Y-101510836D01*
X103773240Y-101679199D01*
X103884310Y-101832073D01*
X104017927Y-101965690D01*
X104170801Y-102076760D01*
X104241033Y-102112545D01*
X104339163Y-102162545D01*
X104339165Y-102162545D01*
X104339168Y-102162547D01*
X104428297Y-102191507D01*
X104518881Y-102220940D01*
X104705514Y-102250500D01*
X104705519Y-102250500D01*
X104894486Y-102250500D01*
X105081118Y-102220940D01*
X105098513Y-102215288D01*
X105260832Y-102162547D01*
X105429199Y-102076760D01*
X105582073Y-101965690D01*
X105715690Y-101832073D01*
X105826760Y-101679199D01*
X105912547Y-101510832D01*
X105970940Y-101331118D01*
X105983788Y-101250000D01*
X106000500Y-101144486D01*
X106000500Y-100955514D01*
X105994882Y-100920046D01*
X105994882Y-100920045D01*
X105992580Y-100905513D01*
X131799500Y-100905513D01*
X131799500Y-101094486D01*
X131829059Y-101281118D01*
X131887454Y-101460836D01*
X131926571Y-101537606D01*
X131973240Y-101629199D01*
X132084310Y-101782073D01*
X132217927Y-101915690D01*
X132370801Y-102026760D01*
X132450347Y-102067290D01*
X132539163Y-102112545D01*
X132539165Y-102112545D01*
X132539168Y-102112547D01*
X132628734Y-102141649D01*
X132660803Y-102152069D01*
X132718478Y-102191507D01*
X132745676Y-102255866D01*
X132733761Y-102324712D01*
X132686516Y-102376188D01*
X132660803Y-102387931D01*
X132539163Y-102427454D01*
X132370800Y-102513240D01*
X132294130Y-102568945D01*
X132217927Y-102624310D01*
X132217925Y-102624312D01*
X132217924Y-102624312D01*
X132084312Y-102757924D01*
X132084312Y-102757925D01*
X132084310Y-102757927D01*
X132036610Y-102823579D01*
X131973240Y-102910800D01*
X131887454Y-103079163D01*
X131829059Y-103258881D01*
X131799500Y-103445513D01*
X131799500Y-103634486D01*
X131829059Y-103821118D01*
X131887454Y-104000836D01*
X131973240Y-104169199D01*
X132084310Y-104322073D01*
X132217927Y-104455690D01*
X132370801Y-104566760D01*
X132429230Y-104596531D01*
X132539163Y-104652545D01*
X132539165Y-104652545D01*
X132539168Y-104652547D01*
X132635497Y-104683846D01*
X132718881Y-104710940D01*
X132905514Y-104740500D01*
X132905519Y-104740500D01*
X133094486Y-104740500D01*
X133281118Y-104710940D01*
X133460832Y-104652547D01*
X133629199Y-104566760D01*
X133782073Y-104455690D01*
X133915690Y-104322073D01*
X134026760Y-104169199D01*
X134112547Y-104000832D01*
X134155026Y-103870097D01*
X142149500Y-103870097D01*
X142149500Y-104129902D01*
X142190140Y-104386493D01*
X142270422Y-104633576D01*
X142388368Y-104865054D01*
X142481759Y-104993596D01*
X142541069Y-105075229D01*
X142724771Y-105258931D01*
X142934949Y-105411634D01*
X143082445Y-105486787D01*
X143166423Y-105529577D01*
X143166425Y-105529577D01*
X143166428Y-105529579D01*
X143413507Y-105609860D01*
X143545706Y-105630797D01*
X143670098Y-105650500D01*
X143670103Y-105650500D01*
X143929902Y-105650500D01*
X144043298Y-105632539D01*
X144186493Y-105609860D01*
X144433572Y-105529579D01*
X144665051Y-105411634D01*
X144875229Y-105258931D01*
X145058931Y-105075229D01*
X145211634Y-104865051D01*
X145329579Y-104633572D01*
X145409860Y-104386493D01*
X145432539Y-104243298D01*
X145450500Y-104129902D01*
X145450500Y-103870097D01*
X145425178Y-103710221D01*
X145409860Y-103613507D01*
X145329579Y-103366428D01*
X145329577Y-103366425D01*
X145329577Y-103366423D01*
X145274781Y-103258881D01*
X145211634Y-103134949D01*
X145058931Y-102924771D01*
X144875229Y-102741069D01*
X144665051Y-102588366D01*
X144566140Y-102537968D01*
X144433576Y-102470422D01*
X144186493Y-102390140D01*
X143929902Y-102349500D01*
X143929897Y-102349500D01*
X143670103Y-102349500D01*
X143670098Y-102349500D01*
X143413506Y-102390140D01*
X143166423Y-102470422D01*
X142934945Y-102588368D01*
X142724774Y-102741066D01*
X142724768Y-102741071D01*
X142541071Y-102924768D01*
X142541066Y-102924774D01*
X142388368Y-103134945D01*
X142270422Y-103366423D01*
X142190140Y-103613506D01*
X142149500Y-103870097D01*
X134155026Y-103870097D01*
X134161556Y-103850000D01*
X134169058Y-103826912D01*
X134169058Y-103826911D01*
X134170938Y-103821123D01*
X134170940Y-103821118D01*
X134188504Y-103710221D01*
X134200500Y-103634486D01*
X134200500Y-103445513D01*
X134170940Y-103258881D01*
X134112545Y-103079163D01*
X134067290Y-102990347D01*
X134026760Y-102910801D01*
X133915690Y-102757927D01*
X133782073Y-102624310D01*
X133629199Y-102513240D01*
X133460836Y-102427454D01*
X133376338Y-102399999D01*
X133339195Y-102387930D01*
X133281521Y-102348493D01*
X133254323Y-102284134D01*
X133266238Y-102215288D01*
X133313482Y-102163812D01*
X133339194Y-102152069D01*
X133460832Y-102112547D01*
X133629199Y-102026760D01*
X133782073Y-101915690D01*
X133915690Y-101782073D01*
X134026760Y-101629199D01*
X134112547Y-101460832D01*
X134170940Y-101281118D01*
X134175869Y-101250000D01*
X134200500Y-101094486D01*
X134200500Y-100905513D01*
X134170940Y-100718881D01*
X134126031Y-100580667D01*
X134112547Y-100539168D01*
X134112545Y-100539165D01*
X134112545Y-100539163D01*
X134026759Y-100370800D01*
X133915690Y-100217927D01*
X133782073Y-100084310D01*
X133629199Y-99973240D01*
X133559974Y-99937968D01*
X133460836Y-99887454D01*
X133281118Y-99829059D01*
X133094486Y-99799500D01*
X133094481Y-99799500D01*
X132905519Y-99799500D01*
X132905514Y-99799500D01*
X132718881Y-99829059D01*
X132539163Y-99887454D01*
X132370800Y-99973240D01*
X132344117Y-99992627D01*
X132217927Y-100084310D01*
X132217925Y-100084312D01*
X132217924Y-100084312D01*
X132084312Y-100217924D01*
X132084312Y-100217925D01*
X132084310Y-100217927D01*
X132049402Y-100265974D01*
X131973240Y-100370800D01*
X131887454Y-100539163D01*
X131829059Y-100718881D01*
X131799500Y-100905513D01*
X105992580Y-100905513D01*
X105970940Y-100768881D01*
X105912545Y-100589163D01*
X105867290Y-100500347D01*
X105826760Y-100420801D01*
X105715690Y-100267927D01*
X105582073Y-100134310D01*
X105429199Y-100023240D01*
X105414599Y-100015801D01*
X105260836Y-99937454D01*
X105186472Y-99913291D01*
X105139195Y-99897930D01*
X105081521Y-99858493D01*
X105054323Y-99794134D01*
X105066238Y-99725288D01*
X105113482Y-99673812D01*
X105139194Y-99662069D01*
X105260832Y-99622547D01*
X105429199Y-99536760D01*
X105582073Y-99425690D01*
X105715690Y-99292073D01*
X105826760Y-99139199D01*
X105912547Y-98970832D01*
X105970940Y-98791118D01*
X106000500Y-98604486D01*
X106000500Y-98415513D01*
X105970940Y-98228881D01*
X105944117Y-98146330D01*
X105912545Y-98049163D01*
X105826759Y-97880800D01*
X105715690Y-97727927D01*
X105582073Y-97594310D01*
X105429199Y-97483240D01*
X105260836Y-97397454D01*
X105081118Y-97339059D01*
X104894486Y-97309500D01*
X104894481Y-97309500D01*
X104705519Y-97309500D01*
X104705514Y-97309500D01*
X104518881Y-97339059D01*
X104339163Y-97397454D01*
X104170800Y-97483240D01*
X104092678Y-97540000D01*
X104017927Y-97594310D01*
X104017925Y-97594312D01*
X104017924Y-97594312D01*
X103884312Y-97727924D01*
X103884312Y-97727925D01*
X103884310Y-97727927D01*
X103870053Y-97747550D01*
X103773240Y-97880800D01*
X103687454Y-98049163D01*
X103629059Y-98228881D01*
X103599500Y-98415513D01*
X77700500Y-98415513D01*
X77700500Y-90362014D01*
X81200000Y-90362014D01*
X81200000Y-90597985D01*
X81230799Y-90831914D01*
X81291870Y-91059837D01*
X81382160Y-91277819D01*
X81382165Y-91277828D01*
X81500144Y-91482171D01*
X81500145Y-91482172D01*
X81562721Y-91563723D01*
X82398958Y-90727487D01*
X82423978Y-90787890D01*
X82495112Y-90894351D01*
X82585649Y-90984888D01*
X82692110Y-91056022D01*
X82752511Y-91081041D01*
X81916275Y-91917277D01*
X81997827Y-91979854D01*
X81997828Y-91979855D01*
X82202171Y-92097834D01*
X82202180Y-92097839D01*
X82420163Y-92188129D01*
X82420161Y-92188129D01*
X82648085Y-92249200D01*
X82882014Y-92279999D01*
X82882029Y-92280000D01*
X83117971Y-92280000D01*
X83117985Y-92279999D01*
X83351914Y-92249200D01*
X83579837Y-92188129D01*
X83797819Y-92097839D01*
X83797828Y-92097834D01*
X84002181Y-91979850D01*
X84083723Y-91917279D01*
X84083723Y-91917276D01*
X83247487Y-91081041D01*
X83307890Y-91056022D01*
X83414351Y-90984888D01*
X83504888Y-90894351D01*
X83576022Y-90787890D01*
X83601041Y-90727487D01*
X84437276Y-91563723D01*
X84437279Y-91563723D01*
X84499850Y-91482181D01*
X84617834Y-91277828D01*
X84617839Y-91277819D01*
X84708129Y-91059837D01*
X84769200Y-90831914D01*
X84799999Y-90597985D01*
X84800000Y-90597971D01*
X84800000Y-90362028D01*
X84799999Y-90362014D01*
X84769200Y-90128085D01*
X84708129Y-89900162D01*
X84617839Y-89682180D01*
X84617834Y-89682171D01*
X84499855Y-89477828D01*
X84499854Y-89477827D01*
X84437277Y-89396275D01*
X83601041Y-90232511D01*
X83576022Y-90172110D01*
X83504888Y-90065649D01*
X83414351Y-89975112D01*
X83307890Y-89903978D01*
X83247488Y-89878958D01*
X84083723Y-89042721D01*
X84002172Y-88980145D01*
X84002171Y-88980144D01*
X83797828Y-88862165D01*
X83797819Y-88862160D01*
X83579836Y-88771870D01*
X83579838Y-88771870D01*
X83351914Y-88710799D01*
X83117985Y-88680000D01*
X82882014Y-88680000D01*
X82648085Y-88710799D01*
X82420162Y-88771870D01*
X82202180Y-88862160D01*
X82202171Y-88862165D01*
X81997828Y-88980144D01*
X81997818Y-88980150D01*
X81916275Y-89042720D01*
X81916275Y-89042721D01*
X82752512Y-89878958D01*
X82692110Y-89903978D01*
X82585649Y-89975112D01*
X82495112Y-90065649D01*
X82423978Y-90172110D01*
X82398958Y-90232511D01*
X81562721Y-89396275D01*
X81562720Y-89396275D01*
X81500150Y-89477818D01*
X81500144Y-89477828D01*
X81382165Y-89682171D01*
X81382160Y-89682180D01*
X81291870Y-89900162D01*
X81230799Y-90128085D01*
X81200000Y-90362014D01*
X77700500Y-90362014D01*
X77700500Y-84299983D01*
X81199500Y-84299983D01*
X81199500Y-86500001D01*
X81199501Y-86500018D01*
X81210000Y-86602796D01*
X81210001Y-86602799D01*
X81247487Y-86715922D01*
X81265186Y-86769334D01*
X81357288Y-86918656D01*
X81481344Y-87042712D01*
X81630666Y-87134814D01*
X81797203Y-87189999D01*
X81899991Y-87200500D01*
X84100008Y-87200499D01*
X84202797Y-87189999D01*
X84369334Y-87134814D01*
X84518656Y-87042712D01*
X84642712Y-86918656D01*
X84734814Y-86769334D01*
X84789999Y-86602797D01*
X84800500Y-86500009D01*
X84800499Y-85389983D01*
X123889500Y-85389983D01*
X123889500Y-86590001D01*
X123889501Y-86590018D01*
X123900000Y-86692796D01*
X123900001Y-86692799D01*
X123926814Y-86773713D01*
X123955186Y-86859334D01*
X124047288Y-87008656D01*
X124171344Y-87132712D01*
X124320666Y-87224814D01*
X124402570Y-87251954D01*
X124460015Y-87291727D01*
X124486838Y-87356243D01*
X124474523Y-87425018D01*
X124436451Y-87469978D01*
X124342787Y-87538028D01*
X124342782Y-87538032D01*
X124198028Y-87682786D01*
X124077715Y-87848386D01*
X123984781Y-88030776D01*
X123921522Y-88225465D01*
X123889500Y-88427648D01*
X123889500Y-88632351D01*
X123921522Y-88834534D01*
X123984781Y-89029223D01*
X124077715Y-89211613D01*
X124198028Y-89377213D01*
X124342786Y-89521971D01*
X124497749Y-89634556D01*
X124508390Y-89642287D01*
X124599840Y-89688883D01*
X124601080Y-89689515D01*
X124651876Y-89737490D01*
X124668671Y-89805311D01*
X124646134Y-89871446D01*
X124601080Y-89910485D01*
X124508386Y-89957715D01*
X124342786Y-90078028D01*
X124198028Y-90222786D01*
X124077715Y-90388386D01*
X123984781Y-90570776D01*
X123921522Y-90765465D01*
X123889500Y-90967648D01*
X123889500Y-91172351D01*
X123921522Y-91374534D01*
X123984781Y-91569223D01*
X124039703Y-91677011D01*
X124058132Y-91713181D01*
X124077715Y-91751613D01*
X124198028Y-91917213D01*
X124342786Y-92061971D01*
X124497749Y-92174556D01*
X124508390Y-92182287D01*
X124599840Y-92228883D01*
X124601080Y-92229515D01*
X124651876Y-92277490D01*
X124668671Y-92345311D01*
X124646134Y-92411446D01*
X124601080Y-92450485D01*
X124508386Y-92497715D01*
X124342786Y-92618028D01*
X124198028Y-92762786D01*
X124077715Y-92928386D01*
X123984781Y-93110776D01*
X123921522Y-93305465D01*
X123889500Y-93507648D01*
X123889500Y-93712351D01*
X123921522Y-93914534D01*
X123984781Y-94109223D01*
X124077715Y-94291613D01*
X124198028Y-94457213D01*
X124342786Y-94601971D01*
X124497749Y-94714556D01*
X124508390Y-94722287D01*
X124624607Y-94781503D01*
X124690776Y-94815218D01*
X124690778Y-94815218D01*
X124690781Y-94815220D01*
X124795137Y-94849127D01*
X124885465Y-94878477D01*
X124986557Y-94894488D01*
X125087648Y-94910500D01*
X125087649Y-94910500D01*
X125292351Y-94910500D01*
X125292352Y-94910500D01*
X125494534Y-94878477D01*
X125689219Y-94815220D01*
X125871610Y-94722287D01*
X126031272Y-94606287D01*
X126037213Y-94601971D01*
X126037215Y-94601968D01*
X126037219Y-94601966D01*
X126181966Y-94457219D01*
X126181968Y-94457215D01*
X126181971Y-94457213D01*
X126234732Y-94384590D01*
X126302287Y-94291610D01*
X126395220Y-94109219D01*
X126458477Y-93914534D01*
X126490500Y-93712352D01*
X126490500Y-93507648D01*
X126464024Y-93340486D01*
X126458477Y-93305465D01*
X126405681Y-93142977D01*
X126395220Y-93110781D01*
X126395218Y-93110778D01*
X126395218Y-93110776D01*
X126351768Y-93025502D01*
X126302287Y-92928390D01*
X126285491Y-92905272D01*
X126181971Y-92762786D01*
X126037213Y-92618028D01*
X125871614Y-92497715D01*
X125853903Y-92488691D01*
X125778917Y-92450483D01*
X125728123Y-92402511D01*
X125711328Y-92334690D01*
X125733865Y-92268555D01*
X125778917Y-92229516D01*
X125871610Y-92182287D01*
X125892770Y-92166913D01*
X126037213Y-92061971D01*
X126037215Y-92061968D01*
X126037219Y-92061966D01*
X126181966Y-91917219D01*
X126287753Y-91771613D01*
X126343082Y-91728949D01*
X126388071Y-91720500D01*
X128149192Y-91720500D01*
X128216231Y-91740185D01*
X128236873Y-91756819D01*
X129385325Y-92905272D01*
X129385328Y-92905275D01*
X129419922Y-92928390D01*
X129472517Y-92963532D01*
X129472518Y-92963533D01*
X129472517Y-92963533D01*
X129491871Y-92976464D01*
X129491872Y-92976464D01*
X129491873Y-92976465D01*
X129610256Y-93025501D01*
X129610260Y-93025501D01*
X129610261Y-93025502D01*
X129735928Y-93050500D01*
X129735931Y-93050500D01*
X131453695Y-93050500D01*
X131520734Y-93070185D01*
X131566489Y-93122989D01*
X131576433Y-93192147D01*
X131571626Y-93212819D01*
X131541522Y-93305465D01*
X131509500Y-93507648D01*
X131509500Y-93712351D01*
X131541522Y-93914534D01*
X131604781Y-94109223D01*
X131697715Y-94291613D01*
X131818028Y-94457213D01*
X131818034Y-94457219D01*
X131962781Y-94601966D01*
X132063554Y-94675181D01*
X132106220Y-94730511D01*
X132112199Y-94800125D01*
X132079594Y-94861920D01*
X132018755Y-94896277D01*
X131990669Y-94899500D01*
X131811306Y-94899500D01*
X131637341Y-94934103D01*
X131637332Y-94934106D01*
X131473459Y-95001983D01*
X131473446Y-95001990D01*
X131325965Y-95100535D01*
X131325961Y-95100538D01*
X131200538Y-95225961D01*
X131200535Y-95225965D01*
X131101990Y-95373446D01*
X131101983Y-95373459D01*
X131034106Y-95537332D01*
X131034103Y-95537341D01*
X130999500Y-95711304D01*
X130999500Y-95888695D01*
X131034103Y-96062658D01*
X131034106Y-96062667D01*
X131101983Y-96226540D01*
X131101990Y-96226553D01*
X131200535Y-96374034D01*
X131200538Y-96374038D01*
X131325961Y-96499461D01*
X131325965Y-96499464D01*
X131473446Y-96598009D01*
X131473459Y-96598016D01*
X131596363Y-96648923D01*
X131637334Y-96665894D01*
X131637336Y-96665894D01*
X131637341Y-96665896D01*
X131811304Y-96700499D01*
X131811307Y-96700500D01*
X131811309Y-96700500D01*
X131988693Y-96700500D01*
X131988694Y-96700499D01*
X132059345Y-96686446D01*
X132162658Y-96665896D01*
X132162661Y-96665894D01*
X132162666Y-96665894D01*
X132326547Y-96598013D01*
X132474035Y-96499464D01*
X132474038Y-96499461D01*
X132486681Y-96486819D01*
X132548004Y-96453334D01*
X132574362Y-96450500D01*
X133425638Y-96450500D01*
X133492677Y-96470185D01*
X133513319Y-96486819D01*
X133525961Y-96499461D01*
X133525965Y-96499464D01*
X133673446Y-96598009D01*
X133673459Y-96598016D01*
X133796363Y-96648923D01*
X133837334Y-96665894D01*
X133837336Y-96665894D01*
X133837341Y-96665896D01*
X134011304Y-96700499D01*
X134011307Y-96700500D01*
X134011309Y-96700500D01*
X134188693Y-96700500D01*
X134188694Y-96700499D01*
X134259345Y-96686446D01*
X134362658Y-96665896D01*
X134362661Y-96665894D01*
X134362666Y-96665894D01*
X134526547Y-96598013D01*
X134674035Y-96499464D01*
X134799464Y-96374035D01*
X134898013Y-96226547D01*
X134965894Y-96062666D01*
X135000500Y-95888691D01*
X135000500Y-95711309D01*
X135000500Y-95711306D01*
X135000499Y-95711304D01*
X134965896Y-95537341D01*
X134965893Y-95537332D01*
X134898016Y-95373459D01*
X134898009Y-95373446D01*
X134799464Y-95225965D01*
X134799461Y-95225961D01*
X134674038Y-95100538D01*
X134674034Y-95100535D01*
X134526553Y-95001990D01*
X134526540Y-95001983D01*
X134362667Y-94934106D01*
X134362658Y-94934103D01*
X134188694Y-94899500D01*
X134188691Y-94899500D01*
X134011309Y-94899500D01*
X134011306Y-94899500D01*
X133837341Y-94934103D01*
X133837332Y-94934106D01*
X133673459Y-95001983D01*
X133673446Y-95001990D01*
X133525965Y-95100535D01*
X133525961Y-95100538D01*
X133513319Y-95113181D01*
X133451996Y-95146666D01*
X133425638Y-95149500D01*
X132978931Y-95149500D01*
X132911892Y-95129815D01*
X132866137Y-95077011D01*
X132856193Y-95007853D01*
X132885218Y-94944297D01*
X132943996Y-94906523D01*
X132959530Y-94903027D01*
X133114534Y-94878477D01*
X133309219Y-94815220D01*
X133491610Y-94722287D01*
X133651272Y-94606287D01*
X133657213Y-94601971D01*
X133657215Y-94601968D01*
X133657219Y-94601966D01*
X133801966Y-94457219D01*
X133801968Y-94457215D01*
X133801971Y-94457213D01*
X133854732Y-94384590D01*
X133922287Y-94291610D01*
X134015220Y-94109219D01*
X134078477Y-93914534D01*
X134110500Y-93712352D01*
X134110500Y-93507648D01*
X134084024Y-93340486D01*
X134078477Y-93305465D01*
X134048374Y-93212819D01*
X134046379Y-93142977D01*
X134082459Y-93083144D01*
X134145160Y-93052316D01*
X134166305Y-93050500D01*
X136825638Y-93050500D01*
X136892677Y-93070185D01*
X136913319Y-93086819D01*
X136925961Y-93099461D01*
X136925965Y-93099464D01*
X137073446Y-93198009D01*
X137073459Y-93198016D01*
X137195203Y-93248443D01*
X137237334Y-93265894D01*
X137237336Y-93265894D01*
X137237341Y-93265896D01*
X137411304Y-93300499D01*
X137411307Y-93300500D01*
X137411309Y-93300500D01*
X137588693Y-93300500D01*
X137588694Y-93300499D01*
X137646682Y-93288964D01*
X137762658Y-93265896D01*
X137762661Y-93265894D01*
X137762666Y-93265894D01*
X137926547Y-93198013D01*
X138074035Y-93099464D01*
X138199464Y-92974035D01*
X138298013Y-92826547D01*
X138365894Y-92662666D01*
X138400500Y-92488691D01*
X138400500Y-92311309D01*
X138400500Y-92311306D01*
X138400499Y-92311304D01*
X138365896Y-92137341D01*
X138365893Y-92137332D01*
X138298016Y-91973459D01*
X138298009Y-91973446D01*
X138199464Y-91825965D01*
X138199461Y-91825961D01*
X138074038Y-91700538D01*
X138074034Y-91700535D01*
X137926553Y-91601990D01*
X137926540Y-91601983D01*
X137762667Y-91534106D01*
X137762658Y-91534103D01*
X137588694Y-91499500D01*
X137588691Y-91499500D01*
X137411309Y-91499500D01*
X137411306Y-91499500D01*
X137237341Y-91534103D01*
X137237332Y-91534106D01*
X137073459Y-91601983D01*
X137073446Y-91601990D01*
X136925965Y-91700535D01*
X136925961Y-91700538D01*
X136913319Y-91713181D01*
X136851996Y-91746666D01*
X136825638Y-91749500D01*
X134125712Y-91749500D01*
X134058673Y-91729815D01*
X134012918Y-91677011D01*
X134002974Y-91607853D01*
X134013742Y-91573889D01*
X134013353Y-91573728D01*
X134015215Y-91569229D01*
X134015215Y-91569228D01*
X134015220Y-91569219D01*
X134078477Y-91374534D01*
X134110500Y-91172352D01*
X134110500Y-90967648D01*
X134089261Y-90833554D01*
X134078477Y-90765465D01*
X134024059Y-90597985D01*
X134015220Y-90570781D01*
X134015218Y-90570778D01*
X134015218Y-90570776D01*
X133975861Y-90493534D01*
X133922287Y-90388390D01*
X133903124Y-90362014D01*
X133801971Y-90222786D01*
X133657213Y-90078028D01*
X133491614Y-89957715D01*
X133485006Y-89954348D01*
X133398917Y-89910483D01*
X133348123Y-89862511D01*
X133331328Y-89794690D01*
X133353865Y-89728555D01*
X133398917Y-89689516D01*
X133491610Y-89642287D01*
X133651272Y-89526287D01*
X133657213Y-89521971D01*
X133657215Y-89521968D01*
X133657219Y-89521966D01*
X133801966Y-89377219D01*
X133801968Y-89377215D01*
X133801971Y-89377213D01*
X133894032Y-89250500D01*
X133922287Y-89211610D01*
X134015220Y-89029219D01*
X134078477Y-88834534D01*
X134110500Y-88632352D01*
X134110500Y-88427648D01*
X134084024Y-88260486D01*
X134078477Y-88225465D01*
X134033595Y-88087334D01*
X134015220Y-88030781D01*
X134015218Y-88030778D01*
X134015218Y-88030776D01*
X133981503Y-87964607D01*
X133922287Y-87848390D01*
X133897790Y-87814672D01*
X133801971Y-87682786D01*
X133657213Y-87538028D01*
X133491611Y-87417713D01*
X133398369Y-87370203D01*
X133347574Y-87322229D01*
X133330779Y-87254407D01*
X133353317Y-87188273D01*
X133398371Y-87149234D01*
X133491346Y-87101861D01*
X133491347Y-87101861D01*
X133535921Y-87069474D01*
X132856447Y-86390000D01*
X132862661Y-86390000D01*
X132964394Y-86362741D01*
X133055606Y-86310080D01*
X133130080Y-86235606D01*
X133182741Y-86144394D01*
X133210000Y-86042661D01*
X133210000Y-86036448D01*
X133889474Y-86715922D01*
X133889474Y-86715921D01*
X133921859Y-86671349D01*
X134014755Y-86489031D01*
X134077990Y-86294417D01*
X134110000Y-86092317D01*
X134110000Y-85887682D01*
X134077990Y-85685582D01*
X134014755Y-85490968D01*
X133921859Y-85308650D01*
X133889474Y-85264077D01*
X133889474Y-85264076D01*
X133210000Y-85943551D01*
X133210000Y-85937339D01*
X133182741Y-85835606D01*
X133130080Y-85744394D01*
X133055606Y-85669920D01*
X132964394Y-85617259D01*
X132862661Y-85590000D01*
X132856446Y-85590000D01*
X133535922Y-84910524D01*
X133535921Y-84910523D01*
X133491359Y-84878147D01*
X133491350Y-84878141D01*
X133309031Y-84785244D01*
X133114417Y-84722009D01*
X132912317Y-84690000D01*
X132707683Y-84690000D01*
X132505582Y-84722009D01*
X132310968Y-84785244D01*
X132128644Y-84878143D01*
X132084077Y-84910523D01*
X132084077Y-84910524D01*
X132763554Y-85590000D01*
X132757339Y-85590000D01*
X132655606Y-85617259D01*
X132564394Y-85669920D01*
X132489920Y-85744394D01*
X132437259Y-85835606D01*
X132410000Y-85937339D01*
X132410000Y-85943553D01*
X131730524Y-85264077D01*
X131730523Y-85264077D01*
X131698143Y-85308644D01*
X131605244Y-85490968D01*
X131542009Y-85685582D01*
X131510000Y-85887682D01*
X131510000Y-86092317D01*
X131542009Y-86294417D01*
X131605244Y-86489031D01*
X131698141Y-86671350D01*
X131698147Y-86671359D01*
X131730523Y-86715921D01*
X131730524Y-86715922D01*
X132410000Y-86036446D01*
X132410000Y-86042661D01*
X132437259Y-86144394D01*
X132489920Y-86235606D01*
X132564394Y-86310080D01*
X132655606Y-86362741D01*
X132757339Y-86390000D01*
X132763553Y-86390000D01*
X132084076Y-87069474D01*
X132128652Y-87101861D01*
X132221628Y-87149234D01*
X132272425Y-87197208D01*
X132289220Y-87265029D01*
X132266683Y-87331164D01*
X132221630Y-87370203D01*
X132128388Y-87417713D01*
X131962786Y-87538028D01*
X131818028Y-87682786D01*
X131697715Y-87848386D01*
X131604781Y-88030776D01*
X131541522Y-88225465D01*
X131509500Y-88427648D01*
X131509500Y-88632351D01*
X131541522Y-88834534D01*
X131604781Y-89029223D01*
X131697715Y-89211613D01*
X131818028Y-89377213D01*
X131962786Y-89521971D01*
X132117749Y-89634556D01*
X132128390Y-89642287D01*
X132219840Y-89688883D01*
X132221080Y-89689515D01*
X132271876Y-89737490D01*
X132288671Y-89805311D01*
X132266134Y-89871446D01*
X132221080Y-89910485D01*
X132128386Y-89957715D01*
X131962786Y-90078028D01*
X131818028Y-90222786D01*
X131697715Y-90388386D01*
X131604781Y-90570776D01*
X131541522Y-90765465D01*
X131509500Y-90967648D01*
X131509500Y-91172351D01*
X131541522Y-91374534D01*
X131563309Y-91441585D01*
X131604780Y-91569219D01*
X131604782Y-91569223D01*
X131604784Y-91569229D01*
X131606647Y-91573728D01*
X131605694Y-91574122D01*
X131617670Y-91637868D01*
X131591397Y-91702610D01*
X131534292Y-91742870D01*
X131494288Y-91749500D01*
X130120808Y-91749500D01*
X130053769Y-91729815D01*
X130033127Y-91713181D01*
X128884674Y-90564727D01*
X128884673Y-90564726D01*
X128884669Y-90564723D01*
X128778127Y-90493535D01*
X128745448Y-90479999D01*
X128659744Y-90444499D01*
X128659738Y-90444497D01*
X128534071Y-90419500D01*
X128534069Y-90419500D01*
X126388071Y-90419500D01*
X126321032Y-90399815D01*
X126287754Y-90368386D01*
X126181966Y-90222781D01*
X126037219Y-90078034D01*
X126037213Y-90078028D01*
X125871614Y-89957715D01*
X125865006Y-89954348D01*
X125778917Y-89910483D01*
X125728123Y-89862511D01*
X125711328Y-89794690D01*
X125733865Y-89728555D01*
X125778917Y-89689516D01*
X125871610Y-89642287D01*
X126031272Y-89526287D01*
X126037213Y-89521971D01*
X126037215Y-89521968D01*
X126037219Y-89521966D01*
X126181966Y-89377219D01*
X126181968Y-89377215D01*
X126181971Y-89377213D01*
X126274032Y-89250500D01*
X126302287Y-89211610D01*
X126395220Y-89029219D01*
X126458477Y-88834534D01*
X126490500Y-88632352D01*
X126490500Y-88427648D01*
X126464024Y-88260486D01*
X126458477Y-88225465D01*
X126413595Y-88087334D01*
X126395220Y-88030781D01*
X126395218Y-88030778D01*
X126395218Y-88030776D01*
X126361503Y-87964607D01*
X126302287Y-87848390D01*
X126277790Y-87814672D01*
X126181971Y-87682786D01*
X126037219Y-87538034D01*
X126037211Y-87538028D01*
X125943547Y-87469978D01*
X125900882Y-87414649D01*
X125894903Y-87345036D01*
X125927508Y-87283240D01*
X125977426Y-87251955D01*
X126059334Y-87224814D01*
X126208656Y-87132712D01*
X126332712Y-87008656D01*
X126424814Y-86859334D01*
X126479999Y-86692797D01*
X126490500Y-86590009D01*
X126490499Y-85389992D01*
X126488467Y-85370104D01*
X126479999Y-85287203D01*
X126479998Y-85287200D01*
X126457659Y-85219786D01*
X126424814Y-85120666D01*
X126379882Y-85047820D01*
X126364500Y-85022881D01*
X126364499Y-85022880D01*
X126332712Y-84971344D01*
X126208656Y-84847288D01*
X126059334Y-84755186D01*
X125892797Y-84700001D01*
X125892795Y-84700000D01*
X125790010Y-84689500D01*
X124589998Y-84689500D01*
X124589981Y-84689501D01*
X124487203Y-84700000D01*
X124487200Y-84700001D01*
X124320668Y-84755185D01*
X124320663Y-84755187D01*
X124171342Y-84847289D01*
X124047289Y-84971342D01*
X123955187Y-85120663D01*
X123955186Y-85120666D01*
X123900001Y-85287203D01*
X123900001Y-85287204D01*
X123900000Y-85287204D01*
X123889500Y-85389983D01*
X84800499Y-85389983D01*
X84800499Y-84299992D01*
X84789999Y-84197203D01*
X84734814Y-84030666D01*
X84642712Y-83881344D01*
X84518656Y-83757288D01*
X84369334Y-83665186D01*
X84202797Y-83610001D01*
X84202795Y-83610000D01*
X84100010Y-83599500D01*
X81899998Y-83599500D01*
X81899981Y-83599501D01*
X81797203Y-83610000D01*
X81797200Y-83610001D01*
X81630668Y-83665185D01*
X81630663Y-83665187D01*
X81481342Y-83757289D01*
X81357289Y-83881342D01*
X81265187Y-84030663D01*
X81265185Y-84030668D01*
X81253512Y-84065896D01*
X81210001Y-84197203D01*
X81210001Y-84197204D01*
X81210000Y-84197204D01*
X81199500Y-84299983D01*
X77700500Y-84299983D01*
X77700500Y-83111304D01*
X121199500Y-83111304D01*
X121199500Y-83288695D01*
X121234103Y-83462658D01*
X121234106Y-83462667D01*
X121301983Y-83626540D01*
X121301990Y-83626553D01*
X121400535Y-83774034D01*
X121400538Y-83774038D01*
X121525961Y-83899461D01*
X121525965Y-83899464D01*
X121673446Y-83998009D01*
X121673459Y-83998016D01*
X121752285Y-84030666D01*
X121837334Y-84065894D01*
X121837336Y-84065894D01*
X121837341Y-84065896D01*
X122011304Y-84100499D01*
X122011307Y-84100500D01*
X122011309Y-84100500D01*
X122188693Y-84100500D01*
X122188694Y-84100499D01*
X122246682Y-84088964D01*
X122362658Y-84065896D01*
X122362661Y-84065894D01*
X122362666Y-84065894D01*
X122526547Y-83998013D01*
X122674035Y-83899464D01*
X122799464Y-83774035D01*
X122898013Y-83626547D01*
X122965894Y-83462666D01*
X123000500Y-83288691D01*
X123000500Y-83111309D01*
X123000500Y-83111306D01*
X123000499Y-83111304D01*
X122965896Y-82937341D01*
X122965893Y-82937332D01*
X122898016Y-82773459D01*
X122898009Y-82773446D01*
X122799464Y-82625965D01*
X122799461Y-82625961D01*
X122786819Y-82613319D01*
X122753334Y-82551996D01*
X122750500Y-82525638D01*
X122750500Y-81814361D01*
X122770185Y-81747322D01*
X122786820Y-81726679D01*
X122819461Y-81694038D01*
X122819464Y-81694035D01*
X122918013Y-81546547D01*
X122985894Y-81382666D01*
X122987612Y-81374033D01*
X123016948Y-81226547D01*
X123020500Y-81208691D01*
X123020500Y-81031309D01*
X123020500Y-81031306D01*
X123020499Y-81031304D01*
X122985896Y-80857341D01*
X122985893Y-80857332D01*
X122918016Y-80693459D01*
X122918009Y-80693446D01*
X122819464Y-80545965D01*
X122819461Y-80545961D01*
X122694038Y-80420538D01*
X122694034Y-80420535D01*
X122546553Y-80321990D01*
X122546540Y-80321983D01*
X122382667Y-80254106D01*
X122382658Y-80254103D01*
X122208694Y-80219500D01*
X122208691Y-80219500D01*
X122031309Y-80219500D01*
X122031306Y-80219500D01*
X121857341Y-80254103D01*
X121857332Y-80254106D01*
X121693459Y-80321983D01*
X121693446Y-80321990D01*
X121545965Y-80420535D01*
X121545961Y-80420538D01*
X121420538Y-80545961D01*
X121420535Y-80545965D01*
X121321990Y-80693446D01*
X121321983Y-80693459D01*
X121254106Y-80857332D01*
X121254103Y-80857341D01*
X121219500Y-81031304D01*
X121219500Y-81208695D01*
X121254103Y-81382658D01*
X121254106Y-81382667D01*
X121321983Y-81546540D01*
X121321990Y-81546553D01*
X121420535Y-81694035D01*
X121421353Y-81695031D01*
X121421617Y-81695654D01*
X121423920Y-81699100D01*
X121423266Y-81699536D01*
X121448666Y-81759341D01*
X121449500Y-81773696D01*
X121449500Y-82525638D01*
X121429815Y-82592677D01*
X121413181Y-82613319D01*
X121400538Y-82625961D01*
X121400535Y-82625965D01*
X121301990Y-82773446D01*
X121301983Y-82773459D01*
X121234106Y-82937332D01*
X121234103Y-82937341D01*
X121199500Y-83111304D01*
X77700500Y-83111304D01*
X77700500Y-75702135D01*
X97049500Y-75702135D01*
X97049500Y-77497870D01*
X97049501Y-77497876D01*
X97055908Y-77557483D01*
X97106202Y-77692328D01*
X97106206Y-77692335D01*
X97192452Y-77807544D01*
X97192455Y-77807547D01*
X97307664Y-77893793D01*
X97307671Y-77893797D01*
X97439082Y-77942810D01*
X97495016Y-77984681D01*
X97519433Y-78050145D01*
X97504582Y-78118418D01*
X97483431Y-78146673D01*
X97369889Y-78260215D01*
X97244951Y-78432179D01*
X97148444Y-78621585D01*
X97082753Y-78823760D01*
X97049500Y-79033713D01*
X97049500Y-79246287D01*
X97082754Y-79456243D01*
X97096797Y-79499464D01*
X97148444Y-79658414D01*
X97244951Y-79847820D01*
X97369890Y-80019786D01*
X97520213Y-80170109D01*
X97692182Y-80295050D01*
X97700946Y-80299516D01*
X97751742Y-80347491D01*
X97768536Y-80415312D01*
X97745998Y-80481447D01*
X97700946Y-80520484D01*
X97692182Y-80524949D01*
X97520213Y-80649890D01*
X97369890Y-80800213D01*
X97244951Y-80972179D01*
X97148444Y-81161585D01*
X97148443Y-81161587D01*
X97148443Y-81161588D01*
X97115598Y-81262672D01*
X97082753Y-81363760D01*
X97049500Y-81573713D01*
X97049500Y-81786286D01*
X97082753Y-81996239D01*
X97148444Y-82198414D01*
X97244951Y-82387820D01*
X97369890Y-82559786D01*
X97520213Y-82710109D01*
X97692179Y-82835048D01*
X97692181Y-82835049D01*
X97692184Y-82835051D01*
X97881588Y-82931557D01*
X98083757Y-82997246D01*
X98293713Y-83030500D01*
X98293714Y-83030500D01*
X98506286Y-83030500D01*
X98506287Y-83030500D01*
X98716243Y-82997246D01*
X98918412Y-82931557D01*
X99107816Y-82835051D01*
X99214580Y-82757483D01*
X99279786Y-82710109D01*
X99279788Y-82710106D01*
X99279792Y-82710104D01*
X99430104Y-82559792D01*
X99430106Y-82559788D01*
X99430109Y-82559786D01*
X99555048Y-82387820D01*
X99555047Y-82387820D01*
X99555051Y-82387816D01*
X99651557Y-82198412D01*
X99717246Y-81996243D01*
X99750500Y-81786287D01*
X99750500Y-81573713D01*
X99717246Y-81363757D01*
X99651557Y-81161588D01*
X99555051Y-80972184D01*
X99555049Y-80972181D01*
X99555048Y-80972179D01*
X99430109Y-80800213D01*
X99279786Y-80649890D01*
X99107820Y-80524951D01*
X99107115Y-80524591D01*
X99099054Y-80520485D01*
X99048259Y-80472512D01*
X99031463Y-80404692D01*
X99053999Y-80338556D01*
X99099054Y-80299515D01*
X99107816Y-80295051D01*
X99129789Y-80279086D01*
X99279786Y-80170109D01*
X99279788Y-80170106D01*
X99279792Y-80170104D01*
X99430104Y-80019792D01*
X99430106Y-80019788D01*
X99430109Y-80019786D01*
X99555048Y-79847820D01*
X99555047Y-79847820D01*
X99555051Y-79847816D01*
X99651557Y-79658412D01*
X99717246Y-79456243D01*
X99750500Y-79246287D01*
X99750500Y-79033713D01*
X99717246Y-78823757D01*
X99680708Y-78711304D01*
X132699500Y-78711304D01*
X132699500Y-78888695D01*
X132734103Y-79062658D01*
X132734106Y-79062667D01*
X132801983Y-79226540D01*
X132801990Y-79226553D01*
X132900535Y-79374034D01*
X132900538Y-79374038D01*
X133025961Y-79499461D01*
X133025965Y-79499464D01*
X133173446Y-79598009D01*
X133173459Y-79598016D01*
X133296363Y-79648923D01*
X133337334Y-79665894D01*
X133337336Y-79665894D01*
X133337341Y-79665896D01*
X133511304Y-79700499D01*
X133511307Y-79700500D01*
X133511309Y-79700500D01*
X133529192Y-79700500D01*
X133596231Y-79720185D01*
X133616873Y-79736819D01*
X136213181Y-82333127D01*
X136246666Y-82394450D01*
X136249500Y-82420808D01*
X136249500Y-85225638D01*
X136229815Y-85292677D01*
X136213181Y-85313319D01*
X136200538Y-85325961D01*
X136200535Y-85325965D01*
X136101990Y-85473446D01*
X136101983Y-85473459D01*
X136034106Y-85637332D01*
X136034103Y-85637341D01*
X135999500Y-85811304D01*
X135999500Y-85988695D01*
X136034103Y-86162658D01*
X136034106Y-86162667D01*
X136101983Y-86326540D01*
X136101990Y-86326553D01*
X136200535Y-86474034D01*
X136200538Y-86474038D01*
X136325961Y-86599461D01*
X136325965Y-86599464D01*
X136473446Y-86698009D01*
X136473459Y-86698016D01*
X136596363Y-86748923D01*
X136637334Y-86765894D01*
X136637336Y-86765894D01*
X136637341Y-86765896D01*
X136811304Y-86800499D01*
X136811307Y-86800500D01*
X136811309Y-86800500D01*
X136988693Y-86800500D01*
X136988694Y-86800499D01*
X137086583Y-86781028D01*
X137162658Y-86765896D01*
X137162661Y-86765894D01*
X137162666Y-86765894D01*
X137326547Y-86698013D01*
X137356608Y-86677926D01*
X137423285Y-86657048D01*
X137490665Y-86675531D01*
X137537356Y-86727510D01*
X137549500Y-86781028D01*
X137549500Y-87079192D01*
X137529815Y-87146231D01*
X137513181Y-87166873D01*
X137266873Y-87413181D01*
X137205550Y-87446666D01*
X137179192Y-87449500D01*
X137161306Y-87449500D01*
X136987341Y-87484103D01*
X136987332Y-87484106D01*
X136823459Y-87551983D01*
X136823446Y-87551990D01*
X136675965Y-87650535D01*
X136675961Y-87650538D01*
X136550538Y-87775961D01*
X136550535Y-87775965D01*
X136451990Y-87923446D01*
X136451983Y-87923459D01*
X136384106Y-88087332D01*
X136384103Y-88087341D01*
X136349500Y-88261304D01*
X136349500Y-88438695D01*
X136384103Y-88612658D01*
X136384106Y-88612667D01*
X136451983Y-88776540D01*
X136451990Y-88776553D01*
X136550535Y-88924034D01*
X136550538Y-88924038D01*
X136675961Y-89049461D01*
X136675965Y-89049464D01*
X136823446Y-89148009D01*
X136823459Y-89148016D01*
X136946363Y-89198923D01*
X136987334Y-89215894D01*
X136987336Y-89215894D01*
X136987341Y-89215896D01*
X137161304Y-89250499D01*
X137161307Y-89250500D01*
X137161309Y-89250500D01*
X137338693Y-89250500D01*
X137338694Y-89250499D01*
X137396682Y-89238964D01*
X137512658Y-89215896D01*
X137512661Y-89215894D01*
X137512666Y-89215894D01*
X137676547Y-89148013D01*
X137824035Y-89049464D01*
X137949464Y-88924035D01*
X138048013Y-88776547D01*
X138115894Y-88612666D01*
X138150500Y-88438691D01*
X138150500Y-88420807D01*
X138170185Y-88353768D01*
X138186819Y-88333126D01*
X138705273Y-87814672D01*
X138705276Y-87814669D01*
X138776465Y-87708127D01*
X138825501Y-87589744D01*
X138835788Y-87538028D01*
X138850500Y-87464071D01*
X138850500Y-81474361D01*
X138870185Y-81407322D01*
X138886816Y-81386682D01*
X138899464Y-81374035D01*
X138998013Y-81226547D01*
X139065894Y-81062666D01*
X139072132Y-81031309D01*
X139097826Y-80902135D01*
X143649500Y-80902135D01*
X143649500Y-82697870D01*
X143649501Y-82697876D01*
X143655908Y-82757483D01*
X143706202Y-82892328D01*
X143706206Y-82892335D01*
X143792452Y-83007544D01*
X143792455Y-83007547D01*
X143907664Y-83093793D01*
X143907671Y-83093797D01*
X144039082Y-83142810D01*
X144095016Y-83184681D01*
X144119433Y-83250145D01*
X144104582Y-83318418D01*
X144083431Y-83346673D01*
X143969889Y-83460215D01*
X143844951Y-83632179D01*
X143748444Y-83821585D01*
X143682753Y-84023760D01*
X143670599Y-84100499D01*
X143649500Y-84233713D01*
X143649500Y-84446287D01*
X143682754Y-84656243D01*
X143714902Y-84755185D01*
X143748444Y-84858414D01*
X143844951Y-85047820D01*
X143969890Y-85219786D01*
X144120213Y-85370109D01*
X144292182Y-85495050D01*
X144300946Y-85499516D01*
X144351742Y-85547491D01*
X144368536Y-85615312D01*
X144345998Y-85681447D01*
X144300946Y-85720484D01*
X144292182Y-85724949D01*
X144120213Y-85849890D01*
X143969890Y-86000213D01*
X143844951Y-86172179D01*
X143748444Y-86361585D01*
X143682753Y-86563760D01*
X143649500Y-86773713D01*
X143649500Y-86986286D01*
X143681491Y-87188273D01*
X143682754Y-87196243D01*
X143739277Y-87370203D01*
X143748444Y-87398414D01*
X143844951Y-87587820D01*
X143969890Y-87759786D01*
X144120213Y-87910109D01*
X144292182Y-88035050D01*
X144300946Y-88039516D01*
X144351742Y-88087491D01*
X144368536Y-88155312D01*
X144345998Y-88221447D01*
X144300946Y-88260484D01*
X144292182Y-88264949D01*
X144120213Y-88389890D01*
X143969890Y-88540213D01*
X143844951Y-88712179D01*
X143748444Y-88901585D01*
X143748443Y-88901587D01*
X143748443Y-88901588D01*
X143741149Y-88924038D01*
X143682753Y-89103760D01*
X143665671Y-89211613D01*
X143649500Y-89313713D01*
X143649500Y-89526287D01*
X143682754Y-89736243D01*
X143726684Y-89871446D01*
X143748444Y-89938414D01*
X143844951Y-90127820D01*
X143969890Y-90299786D01*
X144120213Y-90450109D01*
X144292182Y-90575050D01*
X144300946Y-90579516D01*
X144351742Y-90627491D01*
X144368536Y-90695312D01*
X144345998Y-90761447D01*
X144300946Y-90800484D01*
X144292182Y-90804949D01*
X144120213Y-90929890D01*
X143969890Y-91080213D01*
X143844951Y-91252179D01*
X143748444Y-91441585D01*
X143682753Y-91643760D01*
X143649500Y-91853713D01*
X143649500Y-92066286D01*
X143678470Y-92249200D01*
X143682754Y-92276243D01*
X143726684Y-92411446D01*
X143748444Y-92478414D01*
X143844951Y-92667820D01*
X143969890Y-92839786D01*
X144120213Y-92990109D01*
X144292182Y-93115050D01*
X144300946Y-93119516D01*
X144351742Y-93167491D01*
X144368536Y-93235312D01*
X144345998Y-93301447D01*
X144300946Y-93340484D01*
X144292182Y-93344949D01*
X144120213Y-93469890D01*
X143969890Y-93620213D01*
X143844951Y-93792179D01*
X143748444Y-93981585D01*
X143682753Y-94183760D01*
X143649500Y-94393713D01*
X143649500Y-94606286D01*
X143682591Y-94815218D01*
X143682754Y-94816243D01*
X143745012Y-95007853D01*
X143748444Y-95018414D01*
X143844951Y-95207820D01*
X143969890Y-95379786D01*
X144120213Y-95530109D01*
X144292179Y-95655048D01*
X144292181Y-95655049D01*
X144292184Y-95655051D01*
X144301493Y-95659794D01*
X144352290Y-95707766D01*
X144369087Y-95775587D01*
X144346552Y-95841722D01*
X144301505Y-95880760D01*
X144292446Y-95885376D01*
X144292440Y-95885380D01*
X144238282Y-95924727D01*
X144238282Y-95924728D01*
X144870591Y-96557037D01*
X144807007Y-96574075D01*
X144692993Y-96639901D01*
X144599901Y-96732993D01*
X144534075Y-96847007D01*
X144517037Y-96910590D01*
X143884728Y-96278282D01*
X143884727Y-96278282D01*
X143845380Y-96332439D01*
X143748904Y-96521782D01*
X143683242Y-96723869D01*
X143683242Y-96723872D01*
X143650000Y-96933753D01*
X143650000Y-97146246D01*
X143683242Y-97356127D01*
X143683242Y-97356130D01*
X143748904Y-97558217D01*
X143845375Y-97747550D01*
X143884728Y-97801716D01*
X144517037Y-97169408D01*
X144534075Y-97232993D01*
X144599901Y-97347007D01*
X144692993Y-97440099D01*
X144807007Y-97505925D01*
X144870590Y-97522962D01*
X144238282Y-98155269D01*
X144238282Y-98155270D01*
X144292449Y-98194624D01*
X144481782Y-98291095D01*
X144683870Y-98356757D01*
X144893754Y-98390000D01*
X145106246Y-98390000D01*
X145316127Y-98356757D01*
X145316130Y-98356757D01*
X145518217Y-98291095D01*
X145707554Y-98194622D01*
X145761716Y-98155270D01*
X145761717Y-98155270D01*
X145129408Y-97522962D01*
X145192993Y-97505925D01*
X145307007Y-97440099D01*
X145400099Y-97347007D01*
X145465925Y-97232993D01*
X145482962Y-97169408D01*
X146115270Y-97801717D01*
X146115270Y-97801716D01*
X146154622Y-97747554D01*
X146251095Y-97558217D01*
X146316757Y-97356130D01*
X146316757Y-97356127D01*
X146350000Y-97146246D01*
X146350000Y-96933753D01*
X146316757Y-96723872D01*
X146316757Y-96723869D01*
X146251095Y-96521782D01*
X146154624Y-96332449D01*
X146115270Y-96278282D01*
X146115269Y-96278282D01*
X145482962Y-96910590D01*
X145465925Y-96847007D01*
X145400099Y-96732993D01*
X145307007Y-96639901D01*
X145192993Y-96574075D01*
X145129409Y-96557037D01*
X145761716Y-95924728D01*
X145707547Y-95885373D01*
X145707547Y-95885372D01*
X145698500Y-95880763D01*
X145647706Y-95832788D01*
X145630912Y-95764966D01*
X145653451Y-95698832D01*
X145698508Y-95659793D01*
X145707816Y-95655051D01*
X145787007Y-95597515D01*
X145879786Y-95530109D01*
X145879788Y-95530106D01*
X145879792Y-95530104D01*
X146030104Y-95379792D01*
X146030106Y-95379788D01*
X146030109Y-95379786D01*
X146155048Y-95207820D01*
X146155047Y-95207820D01*
X146155051Y-95207816D01*
X146251557Y-95018412D01*
X146317246Y-94816243D01*
X146350500Y-94606287D01*
X146350500Y-94393713D01*
X146317246Y-94183757D01*
X146251557Y-93981588D01*
X146155051Y-93792184D01*
X146155049Y-93792181D01*
X146155048Y-93792179D01*
X146030109Y-93620213D01*
X145879786Y-93469890D01*
X145707820Y-93344951D01*
X145707115Y-93344591D01*
X145699054Y-93340485D01*
X145648259Y-93292512D01*
X145631463Y-93224692D01*
X145653999Y-93158556D01*
X145699054Y-93119515D01*
X145707816Y-93115051D01*
X145794164Y-93052316D01*
X145879786Y-92990109D01*
X145879788Y-92990106D01*
X145879792Y-92990104D01*
X146030104Y-92839792D01*
X146030106Y-92839788D01*
X146030109Y-92839786D01*
X146155048Y-92667820D01*
X146155047Y-92667820D01*
X146155051Y-92667816D01*
X146251557Y-92478412D01*
X146317246Y-92276243D01*
X146350500Y-92066287D01*
X146350500Y-91853713D01*
X146317246Y-91643757D01*
X146251557Y-91441588D01*
X146155051Y-91252184D01*
X146155049Y-91252181D01*
X146155048Y-91252179D01*
X146030109Y-91080213D01*
X145879786Y-90929890D01*
X145707820Y-90804951D01*
X145707115Y-90804591D01*
X145699054Y-90800485D01*
X145648259Y-90752512D01*
X145631463Y-90684692D01*
X145653999Y-90618556D01*
X145699054Y-90579515D01*
X145707816Y-90575051D01*
X145820014Y-90493535D01*
X145879786Y-90450109D01*
X145879788Y-90450106D01*
X145879792Y-90450104D01*
X146030104Y-90299792D01*
X146030106Y-90299788D01*
X146030109Y-90299786D01*
X146139086Y-90149789D01*
X146155051Y-90127816D01*
X146251557Y-89938412D01*
X146317246Y-89736243D01*
X146350500Y-89526287D01*
X146350500Y-89313713D01*
X146317246Y-89103757D01*
X146251557Y-88901588D01*
X146155051Y-88712184D01*
X146155049Y-88712181D01*
X146155048Y-88712179D01*
X146030109Y-88540213D01*
X145879786Y-88389890D01*
X145707820Y-88264951D01*
X145707115Y-88264591D01*
X145699054Y-88260485D01*
X145648259Y-88212512D01*
X145631463Y-88144692D01*
X145653999Y-88078556D01*
X145699054Y-88039515D01*
X145707816Y-88035051D01*
X145729789Y-88019086D01*
X145879786Y-87910109D01*
X145879788Y-87910106D01*
X145879792Y-87910104D01*
X146030104Y-87759792D01*
X146030106Y-87759788D01*
X146030109Y-87759786D01*
X146155048Y-87587820D01*
X146155047Y-87587820D01*
X146155051Y-87587816D01*
X146251557Y-87398412D01*
X146317246Y-87196243D01*
X146350500Y-86986287D01*
X146350500Y-86773713D01*
X146317246Y-86563757D01*
X146251557Y-86361588D01*
X146155051Y-86172184D01*
X146155049Y-86172181D01*
X146155048Y-86172179D01*
X146030109Y-86000213D01*
X145879786Y-85849890D01*
X145707820Y-85724951D01*
X145707115Y-85724591D01*
X145699054Y-85720485D01*
X145648259Y-85672512D01*
X145631463Y-85604692D01*
X145653999Y-85538556D01*
X145699054Y-85499515D01*
X145707816Y-85495051D01*
X145737553Y-85473446D01*
X145879786Y-85370109D01*
X145879788Y-85370106D01*
X145879792Y-85370104D01*
X146030104Y-85219792D01*
X146030106Y-85219788D01*
X146030109Y-85219786D01*
X146155048Y-85047820D01*
X146155047Y-85047820D01*
X146155051Y-85047816D01*
X146251557Y-84858412D01*
X146317246Y-84656243D01*
X146350500Y-84446287D01*
X146350500Y-84233713D01*
X146317246Y-84023757D01*
X146251557Y-83821588D01*
X146155051Y-83632184D01*
X146155049Y-83632181D01*
X146155048Y-83632179D01*
X146030109Y-83460213D01*
X145916569Y-83346673D01*
X145883084Y-83285350D01*
X145888068Y-83215658D01*
X145929940Y-83159725D01*
X145960915Y-83142810D01*
X146092331Y-83093796D01*
X146207546Y-83007546D01*
X146293796Y-82892331D01*
X146344091Y-82757483D01*
X146350500Y-82697873D01*
X146350499Y-80902128D01*
X146344091Y-80842517D01*
X146293796Y-80707669D01*
X146293795Y-80707668D01*
X146293793Y-80707664D01*
X146207547Y-80592455D01*
X146207544Y-80592452D01*
X146092335Y-80506206D01*
X146092328Y-80506202D01*
X145957482Y-80455908D01*
X145957483Y-80455908D01*
X145897883Y-80449501D01*
X145897881Y-80449500D01*
X145897873Y-80449500D01*
X145897864Y-80449500D01*
X144102129Y-80449500D01*
X144102123Y-80449501D01*
X144042516Y-80455908D01*
X143907671Y-80506202D01*
X143907664Y-80506206D01*
X143792455Y-80592452D01*
X143792452Y-80592455D01*
X143706206Y-80707664D01*
X143706202Y-80707671D01*
X143655908Y-80842517D01*
X143650944Y-80888692D01*
X143649501Y-80902123D01*
X143649500Y-80902135D01*
X139097826Y-80902135D01*
X139100499Y-80888696D01*
X139100500Y-80888692D01*
X139100500Y-80711306D01*
X139100499Y-80711304D01*
X139065896Y-80537341D01*
X139065893Y-80537332D01*
X139058914Y-80520484D01*
X139029513Y-80449501D01*
X138998016Y-80373459D01*
X138998009Y-80373446D01*
X138899464Y-80225965D01*
X138899461Y-80225961D01*
X138774038Y-80100538D01*
X138774034Y-80100535D01*
X138626553Y-80001990D01*
X138626540Y-80001983D01*
X138462667Y-79934106D01*
X138462658Y-79934103D01*
X138288694Y-79899500D01*
X138288691Y-79899500D01*
X138111309Y-79899500D01*
X138111306Y-79899500D01*
X137937341Y-79934103D01*
X137937332Y-79934106D01*
X137773459Y-80001983D01*
X137773446Y-80001990D01*
X137625965Y-80100535D01*
X137625961Y-80100538D01*
X137500538Y-80225961D01*
X137500535Y-80225965D01*
X137401990Y-80373446D01*
X137401983Y-80373459D01*
X137334106Y-80537332D01*
X137334103Y-80537341D01*
X137299500Y-80711304D01*
X137299500Y-80888695D01*
X137334103Y-81062658D01*
X137334106Y-81062667D01*
X137401983Y-81226540D01*
X137401990Y-81226553D01*
X137500534Y-81374033D01*
X137500535Y-81374034D01*
X137500536Y-81374035D01*
X137513180Y-81386679D01*
X137546665Y-81447999D01*
X137549500Y-81474361D01*
X137549500Y-81530191D01*
X137529815Y-81597230D01*
X137477011Y-81642985D01*
X137407853Y-81652929D01*
X137344297Y-81623904D01*
X137337819Y-81617872D01*
X134536819Y-78816872D01*
X134503334Y-78755549D01*
X134500500Y-78729191D01*
X134500500Y-78711306D01*
X134500499Y-78711304D01*
X134465896Y-78537341D01*
X134465893Y-78537332D01*
X134398016Y-78373459D01*
X134398009Y-78373446D01*
X134299464Y-78225965D01*
X134299461Y-78225961D01*
X134174038Y-78100538D01*
X134174034Y-78100535D01*
X134026553Y-78001990D01*
X134026540Y-78001983D01*
X133862667Y-77934106D01*
X133862658Y-77934103D01*
X133688694Y-77899500D01*
X133688691Y-77899500D01*
X133511309Y-77899500D01*
X133511306Y-77899500D01*
X133337341Y-77934103D01*
X133337332Y-77934106D01*
X133173459Y-78001983D01*
X133173446Y-78001990D01*
X133025965Y-78100535D01*
X133025961Y-78100538D01*
X132900538Y-78225961D01*
X132900535Y-78225965D01*
X132801990Y-78373446D01*
X132801983Y-78373459D01*
X132734106Y-78537332D01*
X132734103Y-78537341D01*
X132699500Y-78711304D01*
X99680708Y-78711304D01*
X99651557Y-78621588D01*
X99555051Y-78432184D01*
X99555049Y-78432181D01*
X99555048Y-78432179D01*
X99430109Y-78260213D01*
X99316569Y-78146673D01*
X99283084Y-78085350D01*
X99288068Y-78015658D01*
X99329940Y-77959725D01*
X99360915Y-77942810D01*
X99492331Y-77893796D01*
X99607546Y-77807546D01*
X99693796Y-77692331D01*
X99744091Y-77557483D01*
X99750500Y-77497873D01*
X99750499Y-75702128D01*
X99744091Y-75642517D01*
X99693796Y-75507669D01*
X99693795Y-75507668D01*
X99693793Y-75507664D01*
X99607547Y-75392455D01*
X99607544Y-75392452D01*
X99492335Y-75306206D01*
X99492328Y-75306202D01*
X99357482Y-75255908D01*
X99357483Y-75255908D01*
X99297883Y-75249501D01*
X99297881Y-75249500D01*
X99297873Y-75249500D01*
X99297864Y-75249500D01*
X97502129Y-75249500D01*
X97502123Y-75249501D01*
X97442516Y-75255908D01*
X97307671Y-75306202D01*
X97307664Y-75306206D01*
X97192455Y-75392452D01*
X97192452Y-75392455D01*
X97106206Y-75507664D01*
X97106202Y-75507671D01*
X97055908Y-75642517D01*
X97049501Y-75702116D01*
X97049501Y-75702123D01*
X97049500Y-75702135D01*
X77700500Y-75702135D01*
X77700500Y-71070097D01*
X79349500Y-71070097D01*
X79349500Y-71329902D01*
X79390140Y-71586493D01*
X79470422Y-71833576D01*
X79551534Y-71992764D01*
X79588366Y-72065051D01*
X79741069Y-72275229D01*
X79924771Y-72458931D01*
X80134949Y-72611634D01*
X80282445Y-72686787D01*
X80366423Y-72729577D01*
X80366425Y-72729577D01*
X80366428Y-72729579D01*
X80613507Y-72809860D01*
X80745706Y-72830797D01*
X80870098Y-72850500D01*
X80870103Y-72850500D01*
X81129902Y-72850500D01*
X81243298Y-72832539D01*
X81386493Y-72809860D01*
X81633572Y-72729579D01*
X81865051Y-72611634D01*
X82075229Y-72458931D01*
X82258931Y-72275229D01*
X82411634Y-72065051D01*
X82529579Y-71833572D01*
X82609860Y-71586493D01*
X82620358Y-71520213D01*
X82623221Y-71502135D01*
X120769500Y-71502135D01*
X120769500Y-73297870D01*
X120769501Y-73297876D01*
X120775908Y-73357483D01*
X120826202Y-73492328D01*
X120826206Y-73492335D01*
X120912452Y-73607544D01*
X120912455Y-73607547D01*
X121027664Y-73693793D01*
X121027671Y-73693797D01*
X121162517Y-73744091D01*
X121162516Y-73744091D01*
X121169444Y-73744835D01*
X121222127Y-73750500D01*
X123017872Y-73750499D01*
X123077483Y-73744091D01*
X123212331Y-73693796D01*
X123327546Y-73607546D01*
X123413796Y-73492331D01*
X123462810Y-73360916D01*
X123504681Y-73304984D01*
X123570145Y-73280566D01*
X123638418Y-73295417D01*
X123666673Y-73316569D01*
X123780213Y-73430109D01*
X123952179Y-73555048D01*
X123952181Y-73555049D01*
X123952184Y-73555051D01*
X124141588Y-73651557D01*
X124343757Y-73717246D01*
X124553713Y-73750500D01*
X124553714Y-73750500D01*
X124766286Y-73750500D01*
X124766287Y-73750500D01*
X124976243Y-73717246D01*
X125178412Y-73651557D01*
X125367816Y-73555051D01*
X125454138Y-73492335D01*
X125539786Y-73430109D01*
X125539788Y-73430106D01*
X125539792Y-73430104D01*
X125690104Y-73279792D01*
X125690106Y-73279788D01*
X125690109Y-73279786D01*
X125775890Y-73161717D01*
X125815051Y-73107816D01*
X125819793Y-73098508D01*
X125867763Y-73047711D01*
X125935583Y-73030911D01*
X126001719Y-73053445D01*
X126040763Y-73098500D01*
X126045373Y-73107547D01*
X126084728Y-73161716D01*
X126717037Y-72529408D01*
X126734075Y-72592993D01*
X126799901Y-72707007D01*
X126892993Y-72800099D01*
X127007007Y-72865925D01*
X127070590Y-72882962D01*
X126438282Y-73515269D01*
X126438282Y-73515270D01*
X126492449Y-73554624D01*
X126681782Y-73651095D01*
X126883870Y-73716757D01*
X127093754Y-73750000D01*
X127306246Y-73750000D01*
X127516127Y-73716757D01*
X127516130Y-73716757D01*
X127718217Y-73651095D01*
X127907554Y-73554622D01*
X127961716Y-73515270D01*
X127961717Y-73515270D01*
X127329408Y-72882962D01*
X127392993Y-72865925D01*
X127507007Y-72800099D01*
X127600099Y-72707007D01*
X127665925Y-72592993D01*
X127682962Y-72529408D01*
X128315270Y-73161717D01*
X128315270Y-73161716D01*
X128354622Y-73107555D01*
X128359232Y-73098507D01*
X128407205Y-73047709D01*
X128475025Y-73030912D01*
X128541161Y-73053447D01*
X128580204Y-73098504D01*
X128584949Y-73107817D01*
X128709890Y-73279786D01*
X128860213Y-73430109D01*
X129032179Y-73555048D01*
X129032181Y-73555049D01*
X129032184Y-73555051D01*
X129221588Y-73651557D01*
X129423757Y-73717246D01*
X129633713Y-73750500D01*
X129633714Y-73750500D01*
X129846286Y-73750500D01*
X129846287Y-73750500D01*
X130056243Y-73717246D01*
X130258412Y-73651557D01*
X130447816Y-73555051D01*
X130534138Y-73492335D01*
X130619786Y-73430109D01*
X130619788Y-73430106D01*
X130619792Y-73430104D01*
X130770104Y-73279792D01*
X130770106Y-73279788D01*
X130770109Y-73279786D01*
X130895048Y-73107820D01*
X130895047Y-73107820D01*
X130895051Y-73107816D01*
X130899514Y-73099054D01*
X130947488Y-73048259D01*
X131015308Y-73031463D01*
X131081444Y-73053999D01*
X131120486Y-73099056D01*
X131124951Y-73107820D01*
X131249890Y-73279786D01*
X131400213Y-73430109D01*
X131572179Y-73555048D01*
X131572181Y-73555049D01*
X131572184Y-73555051D01*
X131761588Y-73651557D01*
X131963757Y-73717246D01*
X132173713Y-73750500D01*
X132173714Y-73750500D01*
X132386286Y-73750500D01*
X132386287Y-73750500D01*
X132596243Y-73717246D01*
X132798412Y-73651557D01*
X132987816Y-73555051D01*
X133074138Y-73492335D01*
X133159786Y-73430109D01*
X133159788Y-73430106D01*
X133159792Y-73430104D01*
X133310104Y-73279792D01*
X133310106Y-73279788D01*
X133310109Y-73279786D01*
X133435048Y-73107820D01*
X133435047Y-73107820D01*
X133435051Y-73107816D01*
X133439514Y-73099054D01*
X133487488Y-73048259D01*
X133555308Y-73031463D01*
X133621444Y-73053999D01*
X133660486Y-73099056D01*
X133664951Y-73107820D01*
X133789890Y-73279786D01*
X133940213Y-73430109D01*
X134112179Y-73555048D01*
X134112181Y-73555049D01*
X134112184Y-73555051D01*
X134301588Y-73651557D01*
X134503757Y-73717246D01*
X134713713Y-73750500D01*
X134713714Y-73750500D01*
X134926286Y-73750500D01*
X134926287Y-73750500D01*
X135136243Y-73717246D01*
X135338412Y-73651557D01*
X135527816Y-73555051D01*
X135614138Y-73492335D01*
X135699786Y-73430109D01*
X135699788Y-73430106D01*
X135699792Y-73430104D01*
X135850104Y-73279792D01*
X135850106Y-73279788D01*
X135850109Y-73279786D01*
X135975048Y-73107820D01*
X135975047Y-73107820D01*
X135975051Y-73107816D01*
X136071557Y-72918412D01*
X136137246Y-72716243D01*
X136170500Y-72506287D01*
X136170500Y-72293713D01*
X136137246Y-72083757D01*
X136071557Y-71881588D01*
X135975051Y-71692184D01*
X135975049Y-71692181D01*
X135975048Y-71692179D01*
X135850109Y-71520213D01*
X135699786Y-71369890D01*
X135527820Y-71244951D01*
X135504668Y-71233154D01*
X135338412Y-71148443D01*
X135136243Y-71082754D01*
X135136241Y-71082753D01*
X135136240Y-71082753D01*
X135056334Y-71070097D01*
X142149500Y-71070097D01*
X142149500Y-71329902D01*
X142190140Y-71586493D01*
X142270422Y-71833576D01*
X142351534Y-71992764D01*
X142388366Y-72065051D01*
X142541069Y-72275229D01*
X142724771Y-72458931D01*
X142934949Y-72611634D01*
X143082445Y-72686787D01*
X143166423Y-72729577D01*
X143166425Y-72729577D01*
X143166428Y-72729579D01*
X143413507Y-72809860D01*
X143545706Y-72830797D01*
X143670098Y-72850500D01*
X143670103Y-72850500D01*
X143929902Y-72850500D01*
X144043298Y-72832539D01*
X144186493Y-72809860D01*
X144433572Y-72729579D01*
X144665051Y-72611634D01*
X144875229Y-72458931D01*
X145058931Y-72275229D01*
X145211634Y-72065051D01*
X145329579Y-71833572D01*
X145409860Y-71586493D01*
X145444166Y-71369890D01*
X145450500Y-71329902D01*
X145450500Y-71070097D01*
X145428947Y-70934021D01*
X145409860Y-70813507D01*
X145329579Y-70566428D01*
X145329577Y-70566425D01*
X145329577Y-70566423D01*
X145286787Y-70482445D01*
X145211634Y-70334949D01*
X145058931Y-70124771D01*
X144875229Y-69941069D01*
X144665051Y-69788366D01*
X144592764Y-69751534D01*
X144433576Y-69670422D01*
X144186493Y-69590140D01*
X143929902Y-69549500D01*
X143929897Y-69549500D01*
X143670103Y-69549500D01*
X143670098Y-69549500D01*
X143413506Y-69590140D01*
X143166423Y-69670422D01*
X142934945Y-69788368D01*
X142724774Y-69941066D01*
X142724768Y-69941071D01*
X142541071Y-70124768D01*
X142541066Y-70124774D01*
X142388368Y-70334945D01*
X142270422Y-70566423D01*
X142190140Y-70813506D01*
X142149500Y-71070097D01*
X135056334Y-71070097D01*
X134974957Y-71057208D01*
X134926287Y-71049500D01*
X134713713Y-71049500D01*
X134665042Y-71057208D01*
X134503760Y-71082753D01*
X134301585Y-71148444D01*
X134112179Y-71244951D01*
X133940213Y-71369890D01*
X133789890Y-71520213D01*
X133664949Y-71692182D01*
X133660484Y-71700946D01*
X133612509Y-71751742D01*
X133544688Y-71768536D01*
X133478553Y-71745998D01*
X133439516Y-71700946D01*
X133435050Y-71692182D01*
X133310109Y-71520213D01*
X133159786Y-71369890D01*
X132987820Y-71244951D01*
X132798414Y-71148444D01*
X132798413Y-71148443D01*
X132798412Y-71148443D01*
X132596243Y-71082754D01*
X132596241Y-71082753D01*
X132596240Y-71082753D01*
X132434957Y-71057208D01*
X132386287Y-71049500D01*
X132173713Y-71049500D01*
X132125042Y-71057208D01*
X131963760Y-71082753D01*
X131761585Y-71148444D01*
X131572179Y-71244951D01*
X131400213Y-71369890D01*
X131249890Y-71520213D01*
X131124949Y-71692182D01*
X131120484Y-71700946D01*
X131072509Y-71751742D01*
X131004688Y-71768536D01*
X130938553Y-71745998D01*
X130899516Y-71700946D01*
X130895050Y-71692182D01*
X130770109Y-71520213D01*
X130619786Y-71369890D01*
X130447820Y-71244951D01*
X130258414Y-71148444D01*
X130258413Y-71148443D01*
X130258412Y-71148443D01*
X130056243Y-71082754D01*
X130056241Y-71082753D01*
X130056240Y-71082753D01*
X129894957Y-71057208D01*
X129846287Y-71049500D01*
X129633713Y-71049500D01*
X129585042Y-71057208D01*
X129423760Y-71082753D01*
X129221585Y-71148444D01*
X129032179Y-71244951D01*
X128860213Y-71369890D01*
X128709890Y-71520213D01*
X128584949Y-71692182D01*
X128580202Y-71701499D01*
X128532227Y-71752293D01*
X128464405Y-71769087D01*
X128398271Y-71746548D01*
X128359234Y-71701495D01*
X128354626Y-71692452D01*
X128315270Y-71638282D01*
X128315269Y-71638282D01*
X127682962Y-72270590D01*
X127665925Y-72207007D01*
X127600099Y-72092993D01*
X127507007Y-71999901D01*
X127392993Y-71934075D01*
X127329409Y-71917037D01*
X127961716Y-71284728D01*
X127907550Y-71245375D01*
X127718217Y-71148904D01*
X127516129Y-71083242D01*
X127306246Y-71050000D01*
X127093754Y-71050000D01*
X126883872Y-71083242D01*
X126883869Y-71083242D01*
X126681782Y-71148904D01*
X126492439Y-71245380D01*
X126438282Y-71284727D01*
X126438282Y-71284728D01*
X127070591Y-71917037D01*
X127007007Y-71934075D01*
X126892993Y-71999901D01*
X126799901Y-72092993D01*
X126734075Y-72207007D01*
X126717037Y-72270591D01*
X126084728Y-71638282D01*
X126084727Y-71638282D01*
X126045380Y-71692440D01*
X126045376Y-71692446D01*
X126040760Y-71701505D01*
X125992781Y-71752297D01*
X125924959Y-71769087D01*
X125858826Y-71746543D01*
X125819794Y-71701493D01*
X125815051Y-71692184D01*
X125815049Y-71692181D01*
X125815048Y-71692179D01*
X125690109Y-71520213D01*
X125539786Y-71369890D01*
X125367820Y-71244951D01*
X125178414Y-71148444D01*
X125178413Y-71148443D01*
X125178412Y-71148443D01*
X124976243Y-71082754D01*
X124976241Y-71082753D01*
X124976240Y-71082753D01*
X124814957Y-71057208D01*
X124766287Y-71049500D01*
X124553713Y-71049500D01*
X124505042Y-71057208D01*
X124343760Y-71082753D01*
X124141585Y-71148444D01*
X123952179Y-71244951D01*
X123780215Y-71369889D01*
X123666673Y-71483431D01*
X123605350Y-71516915D01*
X123535658Y-71511931D01*
X123479725Y-71470059D01*
X123462810Y-71439082D01*
X123413797Y-71307671D01*
X123413793Y-71307664D01*
X123327547Y-71192455D01*
X123327544Y-71192452D01*
X123212335Y-71106206D01*
X123212328Y-71106202D01*
X123077482Y-71055908D01*
X123077483Y-71055908D01*
X123017883Y-71049501D01*
X123017881Y-71049500D01*
X123017873Y-71049500D01*
X123017864Y-71049500D01*
X121222129Y-71049500D01*
X121222123Y-71049501D01*
X121162516Y-71055908D01*
X121027671Y-71106202D01*
X121027664Y-71106206D01*
X120912455Y-71192452D01*
X120912452Y-71192455D01*
X120826206Y-71307664D01*
X120826202Y-71307671D01*
X120775908Y-71442517D01*
X120769501Y-71502116D01*
X120769500Y-71502135D01*
X82623221Y-71502135D01*
X82626821Y-71479408D01*
X82650500Y-71329902D01*
X82650500Y-71070097D01*
X82628947Y-70934021D01*
X82609860Y-70813507D01*
X82529579Y-70566428D01*
X82529577Y-70566425D01*
X82529577Y-70566423D01*
X82486787Y-70482445D01*
X82411634Y-70334949D01*
X82258931Y-70124771D01*
X82075229Y-69941069D01*
X81865051Y-69788366D01*
X81792764Y-69751534D01*
X81633576Y-69670422D01*
X81386493Y-69590140D01*
X81129902Y-69549500D01*
X81129897Y-69549500D01*
X80870103Y-69549500D01*
X80870098Y-69549500D01*
X80613506Y-69590140D01*
X80366423Y-69670422D01*
X80134945Y-69788368D01*
X79924774Y-69941066D01*
X79924768Y-69941071D01*
X79741071Y-70124768D01*
X79741066Y-70124774D01*
X79588368Y-70334945D01*
X79470422Y-70566423D01*
X79390140Y-70813506D01*
X79349500Y-71070097D01*
X77700500Y-71070097D01*
X77700500Y-68024500D01*
X77720185Y-67957461D01*
X77772989Y-67911706D01*
X77824500Y-67900500D01*
X146975500Y-67900500D01*
X147042539Y-67920185D01*
G37*
%TD.AperFunction*%
%TD*%
M02*
