M48
; DRILL file KiCad 10.0.5-10.0.5~ubuntu24.04.1 date 2026-08-08T16:18:37
; FORMAT={-:-/ absolute / metric / decimal}
; #@! TF.CreationDate,2026-08-08T16:18:37+02:00
; #@! TF.GenerationSoftware,Kicad,Pcbnew,10.0.5-10.0.5~ubuntu24.04.1
; #@! TF.FileFunction,MixedPlating,1,2
FMAT,2
METRIC
; #@! TA.AperFunction,Plated,PTH,ViaDrill
T1C0.450
; #@! TA.AperFunction,Plated,PTH,ViaDrill
T2C0.500
; #@! TA.AperFunction,Plated,PTH,ComponentDrill
T3C0.800
; #@! TA.AperFunction,Plated,PTH,ComponentDrill
T4C0.900
; #@! TA.AperFunction,Plated,PTH,ComponentDrill
T5C1.000
; #@! TA.AperFunction,Plated,PTH,ComponentDrill
T6C1.300
; #@! TA.AperFunction,NonPlated,NPTH,ComponentDrill
T7C2.700
%
G90
G05
T1
X122.1Y-83.2
X122.12Y-81.12
X131.9Y-95.8
X133.6Y-78.8
X134.1Y-95.8
X136.9Y-85.9
X137.25Y-88.35
X137.5Y-92.4
X138.2Y-80.8
T2
X86.0Y-101.1
X93.2Y-93.4
X94.9Y-95.1
X97.1Y-94.8
X99.3Y-96.4
X101.6Y-78.9
X102.0Y-94.7
X103.5Y-80.6
X103.8Y-95.0
X105.3Y-78.9
X105.5Y-93.2
X108.0Y-79.1
X109.9Y-81.8
X111.1Y-79.5
X111.5Y-97.8
X113.3Y-97.8
X117.4Y-103.6
X119.3Y-101.3
X119.3Y-106.1
X127.2Y-69.9
X127.3Y-74.9
X130.4Y-83.8
X132.1Y-82.2
X132.9Y-83.8
X134.8Y-85.9
X142.8Y-99.0
X144.9Y-99.5
T3
X104.8Y-98.51
X104.8Y-101.05
X125.19Y-85.99
X125.19Y-88.53
X125.19Y-91.07
X125.19Y-93.61
X132.81Y-85.99
X132.81Y-88.53
X132.81Y-91.07
X132.81Y-93.61
X133.0Y-101.0
X133.0Y-103.54
T4
X89.6Y-101.0
X92.14Y-101.0
X119.4Y-103.6
X121.94Y-103.6
T5
X98.4Y-76.6
X98.4Y-79.14
X98.4Y-81.68
X122.12Y-72.4
X124.66Y-72.4
X127.2Y-72.4
X129.74Y-72.4
X132.28Y-72.4
X134.82Y-72.4
X145.0Y-81.8
X145.0Y-84.34
X145.0Y-86.88
X145.0Y-89.42
X145.0Y-91.96
X145.0Y-94.5
X145.0Y-97.04
T6
X83.0Y-85.4
X83.0Y-90.48
T7
X81.0Y-71.2
X81.0Y-104.0
X143.8Y-71.2
X143.8Y-104.0
M30
