%TF.GenerationSoftware,KiCad,Pcbnew,10.0.5-10.0.5~ubuntu24.04.1*%
%TF.CreationDate,2026-08-08T16:18:18+02:00*%
%TF.ProjectId,PIC12_UNIVERSAL_Devboard_v1_THT,50494331-325f-4554-9e49-56455253414c,rev?*%
%TF.SameCoordinates,Original*%
%TF.FileFunction,Legend,Top*%
%TF.FilePolarity,Positive*%
%FSLAX46Y46*%
G04 Gerber Fmt 4.6, Leading zero omitted, Abs format (unit mm)*
G04 Created by KiCad (PCBNEW 10.0.5-10.0.5~ubuntu24.04.1) date 2026-08-08 16:18:18*
%MOMM*%
%LPD*%
G01*
G04 APERTURE LIST*
%ADD10C,0.150000*%
%ADD11C,0.450000*%
%ADD12C,0.200000*%
%ADD13C,0.120000*%
%ADD14C,0.060000*%
G04 APERTURE END LIST*
D10*
X140666667Y-81254819D02*
X141000000Y-82254819D01*
X141000000Y-82254819D02*
X141333333Y-81254819D01*
X141666667Y-82254819D02*
X141666667Y-81254819D01*
X141666667Y-81254819D02*
X141904762Y-81254819D01*
X141904762Y-81254819D02*
X142047619Y-81302438D01*
X142047619Y-81302438D02*
X142142857Y-81397676D01*
X142142857Y-81397676D02*
X142190476Y-81492914D01*
X142190476Y-81492914D02*
X142238095Y-81683390D01*
X142238095Y-81683390D02*
X142238095Y-81826247D01*
X142238095Y-81826247D02*
X142190476Y-82016723D01*
X142190476Y-82016723D02*
X142142857Y-82111961D01*
X142142857Y-82111961D02*
X142047619Y-82207200D01*
X142047619Y-82207200D02*
X141904762Y-82254819D01*
X141904762Y-82254819D02*
X141666667Y-82254819D01*
X142666667Y-82254819D02*
X142666667Y-81254819D01*
X142666667Y-81254819D02*
X142904762Y-81254819D01*
X142904762Y-81254819D02*
X143047619Y-81302438D01*
X143047619Y-81302438D02*
X143142857Y-81397676D01*
X143142857Y-81397676D02*
X143190476Y-81492914D01*
X143190476Y-81492914D02*
X143238095Y-81683390D01*
X143238095Y-81683390D02*
X143238095Y-81826247D01*
X143238095Y-81826247D02*
X143190476Y-82016723D01*
X143190476Y-82016723D02*
X143142857Y-82111961D01*
X143142857Y-82111961D02*
X143047619Y-82207200D01*
X143047619Y-82207200D02*
X142904762Y-82254819D01*
X142904762Y-82254819D02*
X142666667Y-82254819D01*
X141285714Y-83902438D02*
X141190476Y-83854819D01*
X141190476Y-83854819D02*
X141047619Y-83854819D01*
X141047619Y-83854819D02*
X140904762Y-83902438D01*
X140904762Y-83902438D02*
X140809524Y-83997676D01*
X140809524Y-83997676D02*
X140761905Y-84092914D01*
X140761905Y-84092914D02*
X140714286Y-84283390D01*
X140714286Y-84283390D02*
X140714286Y-84426247D01*
X140714286Y-84426247D02*
X140761905Y-84616723D01*
X140761905Y-84616723D02*
X140809524Y-84711961D01*
X140809524Y-84711961D02*
X140904762Y-84807200D01*
X140904762Y-84807200D02*
X141047619Y-84854819D01*
X141047619Y-84854819D02*
X141142857Y-84854819D01*
X141142857Y-84854819D02*
X141285714Y-84807200D01*
X141285714Y-84807200D02*
X141333333Y-84759580D01*
X141333333Y-84759580D02*
X141333333Y-84426247D01*
X141333333Y-84426247D02*
X141142857Y-84426247D01*
X141761905Y-84854819D02*
X141761905Y-83854819D01*
X141761905Y-83854819D02*
X142142857Y-83854819D01*
X142142857Y-83854819D02*
X142238095Y-83902438D01*
X142238095Y-83902438D02*
X142285714Y-83950057D01*
X142285714Y-83950057D02*
X142333333Y-84045295D01*
X142333333Y-84045295D02*
X142333333Y-84188152D01*
X142333333Y-84188152D02*
X142285714Y-84283390D01*
X142285714Y-84283390D02*
X142238095Y-84331009D01*
X142238095Y-84331009D02*
X142142857Y-84378628D01*
X142142857Y-84378628D02*
X141761905Y-84378628D01*
X142952381Y-83854819D02*
X143047619Y-83854819D01*
X143047619Y-83854819D02*
X143142857Y-83902438D01*
X143142857Y-83902438D02*
X143190476Y-83950057D01*
X143190476Y-83950057D02*
X143238095Y-84045295D01*
X143238095Y-84045295D02*
X143285714Y-84235771D01*
X143285714Y-84235771D02*
X143285714Y-84473866D01*
X143285714Y-84473866D02*
X143238095Y-84664342D01*
X143238095Y-84664342D02*
X143190476Y-84759580D01*
X143190476Y-84759580D02*
X143142857Y-84807200D01*
X143142857Y-84807200D02*
X143047619Y-84854819D01*
X143047619Y-84854819D02*
X142952381Y-84854819D01*
X142952381Y-84854819D02*
X142857143Y-84807200D01*
X142857143Y-84807200D02*
X142809524Y-84759580D01*
X142809524Y-84759580D02*
X142761905Y-84664342D01*
X142761905Y-84664342D02*
X142714286Y-84473866D01*
X142714286Y-84473866D02*
X142714286Y-84235771D01*
X142714286Y-84235771D02*
X142761905Y-84045295D01*
X142761905Y-84045295D02*
X142809524Y-83950057D01*
X142809524Y-83950057D02*
X142857143Y-83902438D01*
X142857143Y-83902438D02*
X142952381Y-83854819D01*
X141285714Y-86502438D02*
X141190476Y-86454819D01*
X141190476Y-86454819D02*
X141047619Y-86454819D01*
X141047619Y-86454819D02*
X140904762Y-86502438D01*
X140904762Y-86502438D02*
X140809524Y-86597676D01*
X140809524Y-86597676D02*
X140761905Y-86692914D01*
X140761905Y-86692914D02*
X140714286Y-86883390D01*
X140714286Y-86883390D02*
X140714286Y-87026247D01*
X140714286Y-87026247D02*
X140761905Y-87216723D01*
X140761905Y-87216723D02*
X140809524Y-87311961D01*
X140809524Y-87311961D02*
X140904762Y-87407200D01*
X140904762Y-87407200D02*
X141047619Y-87454819D01*
X141047619Y-87454819D02*
X141142857Y-87454819D01*
X141142857Y-87454819D02*
X141285714Y-87407200D01*
X141285714Y-87407200D02*
X141333333Y-87359580D01*
X141333333Y-87359580D02*
X141333333Y-87026247D01*
X141333333Y-87026247D02*
X141142857Y-87026247D01*
X141761905Y-87454819D02*
X141761905Y-86454819D01*
X141761905Y-86454819D02*
X142142857Y-86454819D01*
X142142857Y-86454819D02*
X142238095Y-86502438D01*
X142238095Y-86502438D02*
X142285714Y-86550057D01*
X142285714Y-86550057D02*
X142333333Y-86645295D01*
X142333333Y-86645295D02*
X142333333Y-86788152D01*
X142333333Y-86788152D02*
X142285714Y-86883390D01*
X142285714Y-86883390D02*
X142238095Y-86931009D01*
X142238095Y-86931009D02*
X142142857Y-86978628D01*
X142142857Y-86978628D02*
X141761905Y-86978628D01*
X143285714Y-87454819D02*
X142714286Y-87454819D01*
X143000000Y-87454819D02*
X143000000Y-86454819D01*
X143000000Y-86454819D02*
X142904762Y-86597676D01*
X142904762Y-86597676D02*
X142809524Y-86692914D01*
X142809524Y-86692914D02*
X142714286Y-86740533D01*
X141285714Y-89102438D02*
X141190476Y-89054819D01*
X141190476Y-89054819D02*
X141047619Y-89054819D01*
X141047619Y-89054819D02*
X140904762Y-89102438D01*
X140904762Y-89102438D02*
X140809524Y-89197676D01*
X140809524Y-89197676D02*
X140761905Y-89292914D01*
X140761905Y-89292914D02*
X140714286Y-89483390D01*
X140714286Y-89483390D02*
X140714286Y-89626247D01*
X140714286Y-89626247D02*
X140761905Y-89816723D01*
X140761905Y-89816723D02*
X140809524Y-89911961D01*
X140809524Y-89911961D02*
X140904762Y-90007200D01*
X140904762Y-90007200D02*
X141047619Y-90054819D01*
X141047619Y-90054819D02*
X141142857Y-90054819D01*
X141142857Y-90054819D02*
X141285714Y-90007200D01*
X141285714Y-90007200D02*
X141333333Y-89959580D01*
X141333333Y-89959580D02*
X141333333Y-89626247D01*
X141333333Y-89626247D02*
X141142857Y-89626247D01*
X141761905Y-90054819D02*
X141761905Y-89054819D01*
X141761905Y-89054819D02*
X142142857Y-89054819D01*
X142142857Y-89054819D02*
X142238095Y-89102438D01*
X142238095Y-89102438D02*
X142285714Y-89150057D01*
X142285714Y-89150057D02*
X142333333Y-89245295D01*
X142333333Y-89245295D02*
X142333333Y-89388152D01*
X142333333Y-89388152D02*
X142285714Y-89483390D01*
X142285714Y-89483390D02*
X142238095Y-89531009D01*
X142238095Y-89531009D02*
X142142857Y-89578628D01*
X142142857Y-89578628D02*
X141761905Y-89578628D01*
X142714286Y-89150057D02*
X142761905Y-89102438D01*
X142761905Y-89102438D02*
X142857143Y-89054819D01*
X142857143Y-89054819D02*
X143095238Y-89054819D01*
X143095238Y-89054819D02*
X143190476Y-89102438D01*
X143190476Y-89102438D02*
X143238095Y-89150057D01*
X143238095Y-89150057D02*
X143285714Y-89245295D01*
X143285714Y-89245295D02*
X143285714Y-89340533D01*
X143285714Y-89340533D02*
X143238095Y-89483390D01*
X143238095Y-89483390D02*
X142666667Y-90054819D01*
X142666667Y-90054819D02*
X143285714Y-90054819D01*
D11*
X142825000Y-79600000D02*
G75*
G02*
X142375000Y-79600000I-225000J0D01*
G01*
X142375000Y-79600000D02*
G75*
G02*
X142825000Y-79600000I225000J0D01*
G01*
X121425000Y-74800000D02*
G75*
G02*
X120975000Y-74800000I-225000J0D01*
G01*
X120975000Y-74800000D02*
G75*
G02*
X121425000Y-74800000I225000J0D01*
G01*
D12*
X134488720Y-76006028D02*
X134488720Y-74506028D01*
X136060149Y-75863171D02*
X135988721Y-75934600D01*
X135988721Y-75934600D02*
X135774435Y-76006028D01*
X135774435Y-76006028D02*
X135631578Y-76006028D01*
X135631578Y-76006028D02*
X135417292Y-75934600D01*
X135417292Y-75934600D02*
X135274435Y-75791742D01*
X135274435Y-75791742D02*
X135203006Y-75648885D01*
X135203006Y-75648885D02*
X135131578Y-75363171D01*
X135131578Y-75363171D02*
X135131578Y-75148885D01*
X135131578Y-75148885D02*
X135203006Y-74863171D01*
X135203006Y-74863171D02*
X135274435Y-74720314D01*
X135274435Y-74720314D02*
X135417292Y-74577457D01*
X135417292Y-74577457D02*
X135631578Y-74506028D01*
X135631578Y-74506028D02*
X135774435Y-74506028D01*
X135774435Y-74506028D02*
X135988721Y-74577457D01*
X135988721Y-74577457D02*
X136060149Y-74648885D01*
X136631578Y-75934600D02*
X136845864Y-76006028D01*
X136845864Y-76006028D02*
X137203006Y-76006028D01*
X137203006Y-76006028D02*
X137345864Y-75934600D01*
X137345864Y-75934600D02*
X137417292Y-75863171D01*
X137417292Y-75863171D02*
X137488721Y-75720314D01*
X137488721Y-75720314D02*
X137488721Y-75577457D01*
X137488721Y-75577457D02*
X137417292Y-75434600D01*
X137417292Y-75434600D02*
X137345864Y-75363171D01*
X137345864Y-75363171D02*
X137203006Y-75291742D01*
X137203006Y-75291742D02*
X136917292Y-75220314D01*
X136917292Y-75220314D02*
X136774435Y-75148885D01*
X136774435Y-75148885D02*
X136703006Y-75077457D01*
X136703006Y-75077457D02*
X136631578Y-74934600D01*
X136631578Y-74934600D02*
X136631578Y-74791742D01*
X136631578Y-74791742D02*
X136703006Y-74648885D01*
X136703006Y-74648885D02*
X136774435Y-74577457D01*
X136774435Y-74577457D02*
X136917292Y-74506028D01*
X136917292Y-74506028D02*
X137274435Y-74506028D01*
X137274435Y-74506028D02*
X137488721Y-74577457D01*
X138131577Y-76006028D02*
X138131577Y-74506028D01*
X138131577Y-74506028D02*
X138703006Y-74506028D01*
X138703006Y-74506028D02*
X138845863Y-74577457D01*
X138845863Y-74577457D02*
X138917292Y-74648885D01*
X138917292Y-74648885D02*
X138988720Y-74791742D01*
X138988720Y-74791742D02*
X138988720Y-75006028D01*
X138988720Y-75006028D02*
X138917292Y-75148885D01*
X138917292Y-75148885D02*
X138845863Y-75220314D01*
X138845863Y-75220314D02*
X138703006Y-75291742D01*
X138703006Y-75291742D02*
X138131577Y-75291742D01*
D10*
X141238095Y-96702438D02*
X141142857Y-96654819D01*
X141142857Y-96654819D02*
X141000000Y-96654819D01*
X141000000Y-96654819D02*
X140857143Y-96702438D01*
X140857143Y-96702438D02*
X140761905Y-96797676D01*
X140761905Y-96797676D02*
X140714286Y-96892914D01*
X140714286Y-96892914D02*
X140666667Y-97083390D01*
X140666667Y-97083390D02*
X140666667Y-97226247D01*
X140666667Y-97226247D02*
X140714286Y-97416723D01*
X140714286Y-97416723D02*
X140761905Y-97511961D01*
X140761905Y-97511961D02*
X140857143Y-97607200D01*
X140857143Y-97607200D02*
X141000000Y-97654819D01*
X141000000Y-97654819D02*
X141095238Y-97654819D01*
X141095238Y-97654819D02*
X141238095Y-97607200D01*
X141238095Y-97607200D02*
X141285714Y-97559580D01*
X141285714Y-97559580D02*
X141285714Y-97226247D01*
X141285714Y-97226247D02*
X141095238Y-97226247D01*
X141714286Y-97654819D02*
X141714286Y-96654819D01*
X141714286Y-96654819D02*
X142285714Y-97654819D01*
X142285714Y-97654819D02*
X142285714Y-96654819D01*
X142761905Y-97654819D02*
X142761905Y-96654819D01*
X142761905Y-96654819D02*
X143000000Y-96654819D01*
X143000000Y-96654819D02*
X143142857Y-96702438D01*
X143142857Y-96702438D02*
X143238095Y-96797676D01*
X143238095Y-96797676D02*
X143285714Y-96892914D01*
X143285714Y-96892914D02*
X143333333Y-97083390D01*
X143333333Y-97083390D02*
X143333333Y-97226247D01*
X143333333Y-97226247D02*
X143285714Y-97416723D01*
X143285714Y-97416723D02*
X143238095Y-97511961D01*
X143238095Y-97511961D02*
X143142857Y-97607200D01*
X143142857Y-97607200D02*
X143000000Y-97654819D01*
X143000000Y-97654819D02*
X142761905Y-97654819D01*
X141285714Y-94102438D02*
X141190476Y-94054819D01*
X141190476Y-94054819D02*
X141047619Y-94054819D01*
X141047619Y-94054819D02*
X140904762Y-94102438D01*
X140904762Y-94102438D02*
X140809524Y-94197676D01*
X140809524Y-94197676D02*
X140761905Y-94292914D01*
X140761905Y-94292914D02*
X140714286Y-94483390D01*
X140714286Y-94483390D02*
X140714286Y-94626247D01*
X140714286Y-94626247D02*
X140761905Y-94816723D01*
X140761905Y-94816723D02*
X140809524Y-94911961D01*
X140809524Y-94911961D02*
X140904762Y-95007200D01*
X140904762Y-95007200D02*
X141047619Y-95054819D01*
X141047619Y-95054819D02*
X141142857Y-95054819D01*
X141142857Y-95054819D02*
X141285714Y-95007200D01*
X141285714Y-95007200D02*
X141333333Y-94959580D01*
X141333333Y-94959580D02*
X141333333Y-94626247D01*
X141333333Y-94626247D02*
X141142857Y-94626247D01*
X141761905Y-95054819D02*
X141761905Y-94054819D01*
X141761905Y-94054819D02*
X142142857Y-94054819D01*
X142142857Y-94054819D02*
X142238095Y-94102438D01*
X142238095Y-94102438D02*
X142285714Y-94150057D01*
X142285714Y-94150057D02*
X142333333Y-94245295D01*
X142333333Y-94245295D02*
X142333333Y-94388152D01*
X142333333Y-94388152D02*
X142285714Y-94483390D01*
X142285714Y-94483390D02*
X142238095Y-94531009D01*
X142238095Y-94531009D02*
X142142857Y-94578628D01*
X142142857Y-94578628D02*
X141761905Y-94578628D01*
X143238095Y-94054819D02*
X142761905Y-94054819D01*
X142761905Y-94054819D02*
X142714286Y-94531009D01*
X142714286Y-94531009D02*
X142761905Y-94483390D01*
X142761905Y-94483390D02*
X142857143Y-94435771D01*
X142857143Y-94435771D02*
X143095238Y-94435771D01*
X143095238Y-94435771D02*
X143190476Y-94483390D01*
X143190476Y-94483390D02*
X143238095Y-94531009D01*
X143238095Y-94531009D02*
X143285714Y-94626247D01*
X143285714Y-94626247D02*
X143285714Y-94864342D01*
X143285714Y-94864342D02*
X143238095Y-94959580D01*
X143238095Y-94959580D02*
X143190476Y-95007200D01*
X143190476Y-95007200D02*
X143095238Y-95054819D01*
X143095238Y-95054819D02*
X142857143Y-95054819D01*
X142857143Y-95054819D02*
X142761905Y-95007200D01*
X142761905Y-95007200D02*
X142714286Y-94959580D01*
X141285714Y-91702438D02*
X141190476Y-91654819D01*
X141190476Y-91654819D02*
X141047619Y-91654819D01*
X141047619Y-91654819D02*
X140904762Y-91702438D01*
X140904762Y-91702438D02*
X140809524Y-91797676D01*
X140809524Y-91797676D02*
X140761905Y-91892914D01*
X140761905Y-91892914D02*
X140714286Y-92083390D01*
X140714286Y-92083390D02*
X140714286Y-92226247D01*
X140714286Y-92226247D02*
X140761905Y-92416723D01*
X140761905Y-92416723D02*
X140809524Y-92511961D01*
X140809524Y-92511961D02*
X140904762Y-92607200D01*
X140904762Y-92607200D02*
X141047619Y-92654819D01*
X141047619Y-92654819D02*
X141142857Y-92654819D01*
X141142857Y-92654819D02*
X141285714Y-92607200D01*
X141285714Y-92607200D02*
X141333333Y-92559580D01*
X141333333Y-92559580D02*
X141333333Y-92226247D01*
X141333333Y-92226247D02*
X141142857Y-92226247D01*
X141761905Y-92654819D02*
X141761905Y-91654819D01*
X141761905Y-91654819D02*
X142142857Y-91654819D01*
X142142857Y-91654819D02*
X142238095Y-91702438D01*
X142238095Y-91702438D02*
X142285714Y-91750057D01*
X142285714Y-91750057D02*
X142333333Y-91845295D01*
X142333333Y-91845295D02*
X142333333Y-91988152D01*
X142333333Y-91988152D02*
X142285714Y-92083390D01*
X142285714Y-92083390D02*
X142238095Y-92131009D01*
X142238095Y-92131009D02*
X142142857Y-92178628D01*
X142142857Y-92178628D02*
X141761905Y-92178628D01*
X143190476Y-91988152D02*
X143190476Y-92654819D01*
X142952381Y-91607200D02*
X142714286Y-92321485D01*
X142714286Y-92321485D02*
X143333333Y-92321485D01*
D12*
X94703006Y-80806028D02*
X93988720Y-80806028D01*
X93988720Y-80806028D02*
X93917292Y-81520314D01*
X93917292Y-81520314D02*
X93988720Y-81448885D01*
X93988720Y-81448885D02*
X94131578Y-81377457D01*
X94131578Y-81377457D02*
X94488720Y-81377457D01*
X94488720Y-81377457D02*
X94631578Y-81448885D01*
X94631578Y-81448885D02*
X94703006Y-81520314D01*
X94703006Y-81520314D02*
X94774435Y-81663171D01*
X94774435Y-81663171D02*
X94774435Y-82020314D01*
X94774435Y-82020314D02*
X94703006Y-82163171D01*
X94703006Y-82163171D02*
X94631578Y-82234600D01*
X94631578Y-82234600D02*
X94488720Y-82306028D01*
X94488720Y-82306028D02*
X94131578Y-82306028D01*
X94131578Y-82306028D02*
X93988720Y-82234600D01*
X93988720Y-82234600D02*
X93917292Y-82163171D01*
X95203006Y-80806028D02*
X95703006Y-82306028D01*
X95703006Y-82306028D02*
X96203006Y-80806028D01*
X92845863Y-75306028D02*
X93774435Y-75306028D01*
X93774435Y-75306028D02*
X93274435Y-75877457D01*
X93274435Y-75877457D02*
X93488720Y-75877457D01*
X93488720Y-75877457D02*
X93631578Y-75948885D01*
X93631578Y-75948885D02*
X93703006Y-76020314D01*
X93703006Y-76020314D02*
X93774435Y-76163171D01*
X93774435Y-76163171D02*
X93774435Y-76520314D01*
X93774435Y-76520314D02*
X93703006Y-76663171D01*
X93703006Y-76663171D02*
X93631578Y-76734600D01*
X93631578Y-76734600D02*
X93488720Y-76806028D01*
X93488720Y-76806028D02*
X93060149Y-76806028D01*
X93060149Y-76806028D02*
X92917292Y-76734600D01*
X92917292Y-76734600D02*
X92845863Y-76663171D01*
X94203006Y-75306028D02*
X94703006Y-76806028D01*
X94703006Y-76806028D02*
X95203006Y-75306028D01*
X95560148Y-75306028D02*
X96488720Y-75306028D01*
X96488720Y-75306028D02*
X95988720Y-75877457D01*
X95988720Y-75877457D02*
X96203005Y-75877457D01*
X96203005Y-75877457D02*
X96345863Y-75948885D01*
X96345863Y-75948885D02*
X96417291Y-76020314D01*
X96417291Y-76020314D02*
X96488720Y-76163171D01*
X96488720Y-76163171D02*
X96488720Y-76520314D01*
X96488720Y-76520314D02*
X96417291Y-76663171D01*
X96417291Y-76663171D02*
X96345863Y-76734600D01*
X96345863Y-76734600D02*
X96203005Y-76806028D01*
X96203005Y-76806028D02*
X95774434Y-76806028D01*
X95774434Y-76806028D02*
X95631577Y-76734600D01*
X95631577Y-76734600D02*
X95560148Y-76663171D01*
X90007768Y-85182933D02*
X91531578Y-85182933D01*
X90769673Y-85944838D02*
X90769673Y-84421028D01*
X90007768Y-90782933D02*
X91531578Y-90782933D01*
D10*
X125928571Y-77454819D02*
X125928571Y-76454819D01*
X125928571Y-76454819D02*
X126166666Y-76454819D01*
X126166666Y-76454819D02*
X126309523Y-76502438D01*
X126309523Y-76502438D02*
X126404761Y-76597676D01*
X126404761Y-76597676D02*
X126452380Y-76692914D01*
X126452380Y-76692914D02*
X126499999Y-76883390D01*
X126499999Y-76883390D02*
X126499999Y-77026247D01*
X126499999Y-77026247D02*
X126452380Y-77216723D01*
X126452380Y-77216723D02*
X126404761Y-77311961D01*
X126404761Y-77311961D02*
X126309523Y-77407200D01*
X126309523Y-77407200D02*
X126166666Y-77454819D01*
X126166666Y-77454819D02*
X125928571Y-77454819D01*
X126880952Y-77169104D02*
X127357142Y-77169104D01*
X126785714Y-77454819D02*
X127119047Y-76454819D01*
X127119047Y-76454819D02*
X127452380Y-77454819D01*
X127642857Y-76454819D02*
X128214285Y-76454819D01*
X127928571Y-77454819D02*
X127928571Y-76454819D01*
X120461905Y-101094819D02*
X120461905Y-100094819D01*
X120461905Y-100094819D02*
X120700000Y-100094819D01*
X120700000Y-100094819D02*
X120842857Y-100142438D01*
X120842857Y-100142438D02*
X120938095Y-100237676D01*
X120938095Y-100237676D02*
X120985714Y-100332914D01*
X120985714Y-100332914D02*
X121033333Y-100523390D01*
X121033333Y-100523390D02*
X121033333Y-100666247D01*
X121033333Y-100666247D02*
X120985714Y-100856723D01*
X120985714Y-100856723D02*
X120938095Y-100951961D01*
X120938095Y-100951961D02*
X120842857Y-101047200D01*
X120842857Y-101047200D02*
X120700000Y-101094819D01*
X120700000Y-101094819D02*
X120461905Y-101094819D01*
X121414286Y-100190057D02*
X121461905Y-100142438D01*
X121461905Y-100142438D02*
X121557143Y-100094819D01*
X121557143Y-100094819D02*
X121795238Y-100094819D01*
X121795238Y-100094819D02*
X121890476Y-100142438D01*
X121890476Y-100142438D02*
X121938095Y-100190057D01*
X121938095Y-100190057D02*
X121985714Y-100285295D01*
X121985714Y-100285295D02*
X121985714Y-100380533D01*
X121985714Y-100380533D02*
X121938095Y-100523390D01*
X121938095Y-100523390D02*
X121366667Y-101094819D01*
X121366667Y-101094819D02*
X121985714Y-101094819D01*
X113933333Y-104902438D02*
X113838095Y-104854819D01*
X113838095Y-104854819D02*
X113695238Y-104854819D01*
X113695238Y-104854819D02*
X113552381Y-104902438D01*
X113552381Y-104902438D02*
X113457143Y-104997676D01*
X113457143Y-104997676D02*
X113409524Y-105092914D01*
X113409524Y-105092914D02*
X113361905Y-105283390D01*
X113361905Y-105283390D02*
X113361905Y-105426247D01*
X113361905Y-105426247D02*
X113409524Y-105616723D01*
X113409524Y-105616723D02*
X113457143Y-105711961D01*
X113457143Y-105711961D02*
X113552381Y-105807200D01*
X113552381Y-105807200D02*
X113695238Y-105854819D01*
X113695238Y-105854819D02*
X113790476Y-105854819D01*
X113790476Y-105854819D02*
X113933333Y-105807200D01*
X113933333Y-105807200D02*
X113980952Y-105759580D01*
X113980952Y-105759580D02*
X113980952Y-105426247D01*
X113980952Y-105426247D02*
X113790476Y-105426247D01*
X114980952Y-105854819D02*
X114647619Y-105378628D01*
X114409524Y-105854819D02*
X114409524Y-104854819D01*
X114409524Y-104854819D02*
X114790476Y-104854819D01*
X114790476Y-104854819D02*
X114885714Y-104902438D01*
X114885714Y-104902438D02*
X114933333Y-104950057D01*
X114933333Y-104950057D02*
X114980952Y-105045295D01*
X114980952Y-105045295D02*
X114980952Y-105188152D01*
X114980952Y-105188152D02*
X114933333Y-105283390D01*
X114933333Y-105283390D02*
X114885714Y-105331009D01*
X114885714Y-105331009D02*
X114790476Y-105378628D01*
X114790476Y-105378628D02*
X114409524Y-105378628D01*
X115409524Y-105331009D02*
X115742857Y-105331009D01*
X115885714Y-105854819D02*
X115409524Y-105854819D01*
X115409524Y-105854819D02*
X115409524Y-104854819D01*
X115409524Y-104854819D02*
X115885714Y-104854819D01*
X116314286Y-105331009D02*
X116647619Y-105331009D01*
X116790476Y-105854819D02*
X116314286Y-105854819D01*
X116314286Y-105854819D02*
X116314286Y-104854819D01*
X116314286Y-104854819D02*
X116790476Y-104854819D01*
X117219048Y-105854819D02*
X117219048Y-104854819D01*
X117219048Y-104854819D02*
X117790476Y-105854819D01*
X117790476Y-105854819D02*
X117790476Y-104854819D01*
X116284819Y-89366666D02*
X115808628Y-89699999D01*
X116284819Y-89938094D02*
X115284819Y-89938094D01*
X115284819Y-89938094D02*
X115284819Y-89557142D01*
X115284819Y-89557142D02*
X115332438Y-89461904D01*
X115332438Y-89461904D02*
X115380057Y-89414285D01*
X115380057Y-89414285D02*
X115475295Y-89366666D01*
X115475295Y-89366666D02*
X115618152Y-89366666D01*
X115618152Y-89366666D02*
X115713390Y-89414285D01*
X115713390Y-89414285D02*
X115761009Y-89461904D01*
X115761009Y-89461904D02*
X115808628Y-89557142D01*
X115808628Y-89557142D02*
X115808628Y-89938094D01*
X115380057Y-88985713D02*
X115332438Y-88938094D01*
X115332438Y-88938094D02*
X115284819Y-88842856D01*
X115284819Y-88842856D02*
X115284819Y-88604761D01*
X115284819Y-88604761D02*
X115332438Y-88509523D01*
X115332438Y-88509523D02*
X115380057Y-88461904D01*
X115380057Y-88461904D02*
X115475295Y-88414285D01*
X115475295Y-88414285D02*
X115570533Y-88414285D01*
X115570533Y-88414285D02*
X115713390Y-88461904D01*
X115713390Y-88461904D02*
X116284819Y-89033332D01*
X116284819Y-89033332D02*
X116284819Y-88414285D01*
X112624819Y-89795238D02*
X112624819Y-90366666D01*
X112624819Y-90080952D02*
X111624819Y-90080952D01*
X111624819Y-90080952D02*
X111767676Y-90176190D01*
X111767676Y-90176190D02*
X111862914Y-90271428D01*
X111862914Y-90271428D02*
X111910533Y-90366666D01*
X111624819Y-89176190D02*
X111624819Y-89080952D01*
X111624819Y-89080952D02*
X111672438Y-88985714D01*
X111672438Y-88985714D02*
X111720057Y-88938095D01*
X111720057Y-88938095D02*
X111815295Y-88890476D01*
X111815295Y-88890476D02*
X112005771Y-88842857D01*
X112005771Y-88842857D02*
X112243866Y-88842857D01*
X112243866Y-88842857D02*
X112434342Y-88890476D01*
X112434342Y-88890476D02*
X112529580Y-88938095D01*
X112529580Y-88938095D02*
X112577200Y-88985714D01*
X112577200Y-88985714D02*
X112624819Y-89080952D01*
X112624819Y-89080952D02*
X112624819Y-89176190D01*
X112624819Y-89176190D02*
X112577200Y-89271428D01*
X112577200Y-89271428D02*
X112529580Y-89319047D01*
X112529580Y-89319047D02*
X112434342Y-89366666D01*
X112434342Y-89366666D02*
X112243866Y-89414285D01*
X112243866Y-89414285D02*
X112005771Y-89414285D01*
X112005771Y-89414285D02*
X111815295Y-89366666D01*
X111815295Y-89366666D02*
X111720057Y-89319047D01*
X111720057Y-89319047D02*
X111672438Y-89271428D01*
X111672438Y-89271428D02*
X111624819Y-89176190D01*
X112624819Y-88414285D02*
X111624819Y-88414285D01*
X112243866Y-88319047D02*
X112624819Y-88033333D01*
X111958152Y-88033333D02*
X112339104Y-88414285D01*
X96438095Y-95554819D02*
X96438095Y-96364342D01*
X96438095Y-96364342D02*
X96485714Y-96459580D01*
X96485714Y-96459580D02*
X96533333Y-96507200D01*
X96533333Y-96507200D02*
X96628571Y-96554819D01*
X96628571Y-96554819D02*
X96819047Y-96554819D01*
X96819047Y-96554819D02*
X96914285Y-96507200D01*
X96914285Y-96507200D02*
X96961904Y-96459580D01*
X96961904Y-96459580D02*
X97009523Y-96364342D01*
X97009523Y-96364342D02*
X97009523Y-95554819D01*
X97438095Y-95650057D02*
X97485714Y-95602438D01*
X97485714Y-95602438D02*
X97580952Y-95554819D01*
X97580952Y-95554819D02*
X97819047Y-95554819D01*
X97819047Y-95554819D02*
X97914285Y-95602438D01*
X97914285Y-95602438D02*
X97961904Y-95650057D01*
X97961904Y-95650057D02*
X98009523Y-95745295D01*
X98009523Y-95745295D02*
X98009523Y-95840533D01*
X98009523Y-95840533D02*
X97961904Y-95983390D01*
X97961904Y-95983390D02*
X97390476Y-96554819D01*
X97390476Y-96554819D02*
X98009523Y-96554819D01*
X100533333Y-96054819D02*
X101199999Y-96054819D01*
X101199999Y-96054819D02*
X100771428Y-97054819D01*
X101723809Y-96483390D02*
X101628571Y-96435771D01*
X101628571Y-96435771D02*
X101580952Y-96388152D01*
X101580952Y-96388152D02*
X101533333Y-96292914D01*
X101533333Y-96292914D02*
X101533333Y-96245295D01*
X101533333Y-96245295D02*
X101580952Y-96150057D01*
X101580952Y-96150057D02*
X101628571Y-96102438D01*
X101628571Y-96102438D02*
X101723809Y-96054819D01*
X101723809Y-96054819D02*
X101914285Y-96054819D01*
X101914285Y-96054819D02*
X102009523Y-96102438D01*
X102009523Y-96102438D02*
X102057142Y-96150057D01*
X102057142Y-96150057D02*
X102104761Y-96245295D01*
X102104761Y-96245295D02*
X102104761Y-96292914D01*
X102104761Y-96292914D02*
X102057142Y-96388152D01*
X102057142Y-96388152D02*
X102009523Y-96435771D01*
X102009523Y-96435771D02*
X101914285Y-96483390D01*
X101914285Y-96483390D02*
X101723809Y-96483390D01*
X101723809Y-96483390D02*
X101628571Y-96531009D01*
X101628571Y-96531009D02*
X101580952Y-96578628D01*
X101580952Y-96578628D02*
X101533333Y-96673866D01*
X101533333Y-96673866D02*
X101533333Y-96864342D01*
X101533333Y-96864342D02*
X101580952Y-96959580D01*
X101580952Y-96959580D02*
X101628571Y-97007200D01*
X101628571Y-97007200D02*
X101723809Y-97054819D01*
X101723809Y-97054819D02*
X101914285Y-97054819D01*
X101914285Y-97054819D02*
X102009523Y-97007200D01*
X102009523Y-97007200D02*
X102057142Y-96959580D01*
X102057142Y-96959580D02*
X102104761Y-96864342D01*
X102104761Y-96864342D02*
X102104761Y-96673866D01*
X102104761Y-96673866D02*
X102057142Y-96578628D01*
X102057142Y-96578628D02*
X102009523Y-96531009D01*
X102009523Y-96531009D02*
X101914285Y-96483390D01*
X103009523Y-97054819D02*
X102533333Y-97054819D01*
X102533333Y-97054819D02*
X102533333Y-96054819D01*
X103533333Y-96054819D02*
X103628571Y-96054819D01*
X103628571Y-96054819D02*
X103723809Y-96102438D01*
X103723809Y-96102438D02*
X103771428Y-96150057D01*
X103771428Y-96150057D02*
X103819047Y-96245295D01*
X103819047Y-96245295D02*
X103866666Y-96435771D01*
X103866666Y-96435771D02*
X103866666Y-96673866D01*
X103866666Y-96673866D02*
X103819047Y-96864342D01*
X103819047Y-96864342D02*
X103771428Y-96959580D01*
X103771428Y-96959580D02*
X103723809Y-97007200D01*
X103723809Y-97007200D02*
X103628571Y-97054819D01*
X103628571Y-97054819D02*
X103533333Y-97054819D01*
X103533333Y-97054819D02*
X103438095Y-97007200D01*
X103438095Y-97007200D02*
X103390476Y-96959580D01*
X103390476Y-96959580D02*
X103342857Y-96864342D01*
X103342857Y-96864342D02*
X103295238Y-96673866D01*
X103295238Y-96673866D02*
X103295238Y-96435771D01*
X103295238Y-96435771D02*
X103342857Y-96245295D01*
X103342857Y-96245295D02*
X103390476Y-96150057D01*
X103390476Y-96150057D02*
X103438095Y-96102438D01*
X103438095Y-96102438D02*
X103533333Y-96054819D01*
X104771428Y-96054819D02*
X104295238Y-96054819D01*
X104295238Y-96054819D02*
X104247619Y-96531009D01*
X104247619Y-96531009D02*
X104295238Y-96483390D01*
X104295238Y-96483390D02*
X104390476Y-96435771D01*
X104390476Y-96435771D02*
X104628571Y-96435771D01*
X104628571Y-96435771D02*
X104723809Y-96483390D01*
X104723809Y-96483390D02*
X104771428Y-96531009D01*
X104771428Y-96531009D02*
X104819047Y-96626247D01*
X104819047Y-96626247D02*
X104819047Y-96864342D01*
X104819047Y-96864342D02*
X104771428Y-96959580D01*
X104771428Y-96959580D02*
X104723809Y-97007200D01*
X104723809Y-97007200D02*
X104628571Y-97054819D01*
X104628571Y-97054819D02*
X104390476Y-97054819D01*
X104390476Y-97054819D02*
X104295238Y-97007200D01*
X104295238Y-97007200D02*
X104247619Y-96959580D01*
X105771428Y-96102438D02*
X105676190Y-96054819D01*
X105676190Y-96054819D02*
X105533333Y-96054819D01*
X105533333Y-96054819D02*
X105390476Y-96102438D01*
X105390476Y-96102438D02*
X105295238Y-96197676D01*
X105295238Y-96197676D02*
X105247619Y-96292914D01*
X105247619Y-96292914D02*
X105200000Y-96483390D01*
X105200000Y-96483390D02*
X105200000Y-96626247D01*
X105200000Y-96626247D02*
X105247619Y-96816723D01*
X105247619Y-96816723D02*
X105295238Y-96911961D01*
X105295238Y-96911961D02*
X105390476Y-97007200D01*
X105390476Y-97007200D02*
X105533333Y-97054819D01*
X105533333Y-97054819D02*
X105628571Y-97054819D01*
X105628571Y-97054819D02*
X105771428Y-97007200D01*
X105771428Y-97007200D02*
X105819047Y-96959580D01*
X105819047Y-96959580D02*
X105819047Y-96626247D01*
X105819047Y-96626247D02*
X105628571Y-96626247D01*
X115038095Y-73854819D02*
X115038095Y-74664342D01*
X115038095Y-74664342D02*
X115085714Y-74759580D01*
X115085714Y-74759580D02*
X115133333Y-74807200D01*
X115133333Y-74807200D02*
X115228571Y-74854819D01*
X115228571Y-74854819D02*
X115419047Y-74854819D01*
X115419047Y-74854819D02*
X115514285Y-74807200D01*
X115514285Y-74807200D02*
X115561904Y-74759580D01*
X115561904Y-74759580D02*
X115609523Y-74664342D01*
X115609523Y-74664342D02*
X115609523Y-73854819D01*
X116514285Y-74188152D02*
X116514285Y-74854819D01*
X116276190Y-73807200D02*
X116038095Y-74521485D01*
X116038095Y-74521485D02*
X116657142Y-74521485D01*
X115171429Y-79807200D02*
X115314286Y-79854819D01*
X115314286Y-79854819D02*
X115552381Y-79854819D01*
X115552381Y-79854819D02*
X115647619Y-79807200D01*
X115647619Y-79807200D02*
X115695238Y-79759580D01*
X115695238Y-79759580D02*
X115742857Y-79664342D01*
X115742857Y-79664342D02*
X115742857Y-79569104D01*
X115742857Y-79569104D02*
X115695238Y-79473866D01*
X115695238Y-79473866D02*
X115647619Y-79426247D01*
X115647619Y-79426247D02*
X115552381Y-79378628D01*
X115552381Y-79378628D02*
X115361905Y-79331009D01*
X115361905Y-79331009D02*
X115266667Y-79283390D01*
X115266667Y-79283390D02*
X115219048Y-79235771D01*
X115219048Y-79235771D02*
X115171429Y-79140533D01*
X115171429Y-79140533D02*
X115171429Y-79045295D01*
X115171429Y-79045295D02*
X115219048Y-78950057D01*
X115219048Y-78950057D02*
X115266667Y-78902438D01*
X115266667Y-78902438D02*
X115361905Y-78854819D01*
X115361905Y-78854819D02*
X115600000Y-78854819D01*
X115600000Y-78854819D02*
X115742857Y-78902438D01*
X116171429Y-79854819D02*
X116171429Y-78854819D01*
X116600000Y-78950057D02*
X116647619Y-78902438D01*
X116647619Y-78902438D02*
X116742857Y-78854819D01*
X116742857Y-78854819D02*
X116980952Y-78854819D01*
X116980952Y-78854819D02*
X117076190Y-78902438D01*
X117076190Y-78902438D02*
X117123809Y-78950057D01*
X117123809Y-78950057D02*
X117171428Y-79045295D01*
X117171428Y-79045295D02*
X117171428Y-79140533D01*
X117171428Y-79140533D02*
X117123809Y-79283390D01*
X117123809Y-79283390D02*
X116552381Y-79854819D01*
X116552381Y-79854819D02*
X117171428Y-79854819D01*
X117504762Y-78854819D02*
X118123809Y-78854819D01*
X118123809Y-78854819D02*
X117790476Y-79235771D01*
X117790476Y-79235771D02*
X117933333Y-79235771D01*
X117933333Y-79235771D02*
X118028571Y-79283390D01*
X118028571Y-79283390D02*
X118076190Y-79331009D01*
X118076190Y-79331009D02*
X118123809Y-79426247D01*
X118123809Y-79426247D02*
X118123809Y-79664342D01*
X118123809Y-79664342D02*
X118076190Y-79759580D01*
X118076190Y-79759580D02*
X118028571Y-79807200D01*
X118028571Y-79807200D02*
X117933333Y-79854819D01*
X117933333Y-79854819D02*
X117647619Y-79854819D01*
X117647619Y-79854819D02*
X117552381Y-79807200D01*
X117552381Y-79807200D02*
X117504762Y-79759580D01*
X118742857Y-78854819D02*
X118838095Y-78854819D01*
X118838095Y-78854819D02*
X118933333Y-78902438D01*
X118933333Y-78902438D02*
X118980952Y-78950057D01*
X118980952Y-78950057D02*
X119028571Y-79045295D01*
X119028571Y-79045295D02*
X119076190Y-79235771D01*
X119076190Y-79235771D02*
X119076190Y-79473866D01*
X119076190Y-79473866D02*
X119028571Y-79664342D01*
X119028571Y-79664342D02*
X118980952Y-79759580D01*
X118980952Y-79759580D02*
X118933333Y-79807200D01*
X118933333Y-79807200D02*
X118838095Y-79854819D01*
X118838095Y-79854819D02*
X118742857Y-79854819D01*
X118742857Y-79854819D02*
X118647619Y-79807200D01*
X118647619Y-79807200D02*
X118600000Y-79759580D01*
X118600000Y-79759580D02*
X118552381Y-79664342D01*
X118552381Y-79664342D02*
X118504762Y-79473866D01*
X118504762Y-79473866D02*
X118504762Y-79235771D01*
X118504762Y-79235771D02*
X118552381Y-79045295D01*
X118552381Y-79045295D02*
X118600000Y-78950057D01*
X118600000Y-78950057D02*
X118647619Y-78902438D01*
X118647619Y-78902438D02*
X118742857Y-78854819D01*
X120028571Y-79854819D02*
X119457143Y-79854819D01*
X119742857Y-79854819D02*
X119742857Y-78854819D01*
X119742857Y-78854819D02*
X119647619Y-78997676D01*
X119647619Y-78997676D02*
X119552381Y-79092914D01*
X119552381Y-79092914D02*
X119457143Y-79140533D01*
X99783333Y-69454819D02*
X100116666Y-70454819D01*
X100116666Y-70454819D02*
X100449999Y-69454819D01*
X101354761Y-70359580D02*
X101307142Y-70407200D01*
X101307142Y-70407200D02*
X101164285Y-70454819D01*
X101164285Y-70454819D02*
X101069047Y-70454819D01*
X101069047Y-70454819D02*
X100926190Y-70407200D01*
X100926190Y-70407200D02*
X100830952Y-70311961D01*
X100830952Y-70311961D02*
X100783333Y-70216723D01*
X100783333Y-70216723D02*
X100735714Y-70026247D01*
X100735714Y-70026247D02*
X100735714Y-69883390D01*
X100735714Y-69883390D02*
X100783333Y-69692914D01*
X100783333Y-69692914D02*
X100830952Y-69597676D01*
X100830952Y-69597676D02*
X100926190Y-69502438D01*
X100926190Y-69502438D02*
X101069047Y-69454819D01*
X101069047Y-69454819D02*
X101164285Y-69454819D01*
X101164285Y-69454819D02*
X101307142Y-69502438D01*
X101307142Y-69502438D02*
X101354761Y-69550057D01*
X102354761Y-70359580D02*
X102307142Y-70407200D01*
X102307142Y-70407200D02*
X102164285Y-70454819D01*
X102164285Y-70454819D02*
X102069047Y-70454819D01*
X102069047Y-70454819D02*
X101926190Y-70407200D01*
X101926190Y-70407200D02*
X101830952Y-70311961D01*
X101830952Y-70311961D02*
X101783333Y-70216723D01*
X101783333Y-70216723D02*
X101735714Y-70026247D01*
X101735714Y-70026247D02*
X101735714Y-69883390D01*
X101735714Y-69883390D02*
X101783333Y-69692914D01*
X101783333Y-69692914D02*
X101830952Y-69597676D01*
X101830952Y-69597676D02*
X101926190Y-69502438D01*
X101926190Y-69502438D02*
X102069047Y-69454819D01*
X102069047Y-69454819D02*
X102164285Y-69454819D01*
X102164285Y-69454819D02*
X102307142Y-69502438D01*
X102307142Y-69502438D02*
X102354761Y-69550057D01*
X102688095Y-69454819D02*
X103307142Y-69454819D01*
X103307142Y-69454819D02*
X102973809Y-69835771D01*
X102973809Y-69835771D02*
X103116666Y-69835771D01*
X103116666Y-69835771D02*
X103211904Y-69883390D01*
X103211904Y-69883390D02*
X103259523Y-69931009D01*
X103259523Y-69931009D02*
X103307142Y-70026247D01*
X103307142Y-70026247D02*
X103307142Y-70264342D01*
X103307142Y-70264342D02*
X103259523Y-70359580D01*
X103259523Y-70359580D02*
X103211904Y-70407200D01*
X103211904Y-70407200D02*
X103116666Y-70454819D01*
X103116666Y-70454819D02*
X102830952Y-70454819D01*
X102830952Y-70454819D02*
X102735714Y-70407200D01*
X102735714Y-70407200D02*
X102688095Y-70359580D01*
X103497619Y-70550057D02*
X104259523Y-70550057D01*
X104402381Y-69454819D02*
X105021428Y-69454819D01*
X105021428Y-69454819D02*
X104688095Y-69835771D01*
X104688095Y-69835771D02*
X104830952Y-69835771D01*
X104830952Y-69835771D02*
X104926190Y-69883390D01*
X104926190Y-69883390D02*
X104973809Y-69931009D01*
X104973809Y-69931009D02*
X105021428Y-70026247D01*
X105021428Y-70026247D02*
X105021428Y-70264342D01*
X105021428Y-70264342D02*
X104973809Y-70359580D01*
X104973809Y-70359580D02*
X104926190Y-70407200D01*
X104926190Y-70407200D02*
X104830952Y-70454819D01*
X104830952Y-70454819D02*
X104545238Y-70454819D01*
X104545238Y-70454819D02*
X104450000Y-70407200D01*
X104450000Y-70407200D02*
X104402381Y-70359580D01*
X130833333Y-80749580D02*
X130785714Y-80797200D01*
X130785714Y-80797200D02*
X130642857Y-80844819D01*
X130642857Y-80844819D02*
X130547619Y-80844819D01*
X130547619Y-80844819D02*
X130404762Y-80797200D01*
X130404762Y-80797200D02*
X130309524Y-80701961D01*
X130309524Y-80701961D02*
X130261905Y-80606723D01*
X130261905Y-80606723D02*
X130214286Y-80416247D01*
X130214286Y-80416247D02*
X130214286Y-80273390D01*
X130214286Y-80273390D02*
X130261905Y-80082914D01*
X130261905Y-80082914D02*
X130309524Y-79987676D01*
X130309524Y-79987676D02*
X130404762Y-79892438D01*
X130404762Y-79892438D02*
X130547619Y-79844819D01*
X130547619Y-79844819D02*
X130642857Y-79844819D01*
X130642857Y-79844819D02*
X130785714Y-79892438D01*
X130785714Y-79892438D02*
X130833333Y-79940057D01*
X131738095Y-79844819D02*
X131261905Y-79844819D01*
X131261905Y-79844819D02*
X131214286Y-80321009D01*
X131214286Y-80321009D02*
X131261905Y-80273390D01*
X131261905Y-80273390D02*
X131357143Y-80225771D01*
X131357143Y-80225771D02*
X131595238Y-80225771D01*
X131595238Y-80225771D02*
X131690476Y-80273390D01*
X131690476Y-80273390D02*
X131738095Y-80321009D01*
X131738095Y-80321009D02*
X131785714Y-80416247D01*
X131785714Y-80416247D02*
X131785714Y-80654342D01*
X131785714Y-80654342D02*
X131738095Y-80749580D01*
X131738095Y-80749580D02*
X131690476Y-80797200D01*
X131690476Y-80797200D02*
X131595238Y-80844819D01*
X131595238Y-80844819D02*
X131357143Y-80844819D01*
X131357143Y-80844819D02*
X131261905Y-80797200D01*
X131261905Y-80797200D02*
X131214286Y-80749580D01*
X125652380Y-80854819D02*
X125080952Y-80854819D01*
X125366666Y-80854819D02*
X125366666Y-79854819D01*
X125366666Y-79854819D02*
X125271428Y-79997676D01*
X125271428Y-79997676D02*
X125176190Y-80092914D01*
X125176190Y-80092914D02*
X125080952Y-80140533D01*
X126271428Y-79854819D02*
X126366666Y-79854819D01*
X126366666Y-79854819D02*
X126461904Y-79902438D01*
X126461904Y-79902438D02*
X126509523Y-79950057D01*
X126509523Y-79950057D02*
X126557142Y-80045295D01*
X126557142Y-80045295D02*
X126604761Y-80235771D01*
X126604761Y-80235771D02*
X126604761Y-80473866D01*
X126604761Y-80473866D02*
X126557142Y-80664342D01*
X126557142Y-80664342D02*
X126509523Y-80759580D01*
X126509523Y-80759580D02*
X126461904Y-80807200D01*
X126461904Y-80807200D02*
X126366666Y-80854819D01*
X126366666Y-80854819D02*
X126271428Y-80854819D01*
X126271428Y-80854819D02*
X126176190Y-80807200D01*
X126176190Y-80807200D02*
X126128571Y-80759580D01*
X126128571Y-80759580D02*
X126080952Y-80664342D01*
X126080952Y-80664342D02*
X126033333Y-80473866D01*
X126033333Y-80473866D02*
X126033333Y-80235771D01*
X126033333Y-80235771D02*
X126080952Y-80045295D01*
X126080952Y-80045295D02*
X126128571Y-79950057D01*
X126128571Y-79950057D02*
X126176190Y-79902438D01*
X126176190Y-79902438D02*
X126271428Y-79854819D01*
X127223809Y-79854819D02*
X127319047Y-79854819D01*
X127319047Y-79854819D02*
X127414285Y-79902438D01*
X127414285Y-79902438D02*
X127461904Y-79950057D01*
X127461904Y-79950057D02*
X127509523Y-80045295D01*
X127509523Y-80045295D02*
X127557142Y-80235771D01*
X127557142Y-80235771D02*
X127557142Y-80473866D01*
X127557142Y-80473866D02*
X127509523Y-80664342D01*
X127509523Y-80664342D02*
X127461904Y-80759580D01*
X127461904Y-80759580D02*
X127414285Y-80807200D01*
X127414285Y-80807200D02*
X127319047Y-80854819D01*
X127319047Y-80854819D02*
X127223809Y-80854819D01*
X127223809Y-80854819D02*
X127128571Y-80807200D01*
X127128571Y-80807200D02*
X127080952Y-80759580D01*
X127080952Y-80759580D02*
X127033333Y-80664342D01*
X127033333Y-80664342D02*
X126985714Y-80473866D01*
X126985714Y-80473866D02*
X126985714Y-80235771D01*
X126985714Y-80235771D02*
X127033333Y-80045295D01*
X127033333Y-80045295D02*
X127080952Y-79950057D01*
X127080952Y-79950057D02*
X127128571Y-79902438D01*
X127128571Y-79902438D02*
X127223809Y-79854819D01*
X127985714Y-80188152D02*
X127985714Y-80854819D01*
X127985714Y-80283390D02*
X128033333Y-80235771D01*
X128033333Y-80235771D02*
X128128571Y-80188152D01*
X128128571Y-80188152D02*
X128271428Y-80188152D01*
X128271428Y-80188152D02*
X128366666Y-80235771D01*
X128366666Y-80235771D02*
X128414285Y-80331009D01*
X128414285Y-80331009D02*
X128414285Y-80854819D01*
X129223809Y-80331009D02*
X128890476Y-80331009D01*
X128890476Y-80854819D02*
X128890476Y-79854819D01*
X128890476Y-79854819D02*
X129366666Y-79854819D01*
X106438095Y-80054819D02*
X106438095Y-80864342D01*
X106438095Y-80864342D02*
X106485714Y-80959580D01*
X106485714Y-80959580D02*
X106533333Y-81007200D01*
X106533333Y-81007200D02*
X106628571Y-81054819D01*
X106628571Y-81054819D02*
X106819047Y-81054819D01*
X106819047Y-81054819D02*
X106914285Y-81007200D01*
X106914285Y-81007200D02*
X106961904Y-80959580D01*
X106961904Y-80959580D02*
X107009523Y-80864342D01*
X107009523Y-80864342D02*
X107009523Y-80054819D01*
X107390476Y-80054819D02*
X108009523Y-80054819D01*
X108009523Y-80054819D02*
X107676190Y-80435771D01*
X107676190Y-80435771D02*
X107819047Y-80435771D01*
X107819047Y-80435771D02*
X107914285Y-80483390D01*
X107914285Y-80483390D02*
X107961904Y-80531009D01*
X107961904Y-80531009D02*
X108009523Y-80626247D01*
X108009523Y-80626247D02*
X108009523Y-80864342D01*
X108009523Y-80864342D02*
X107961904Y-80959580D01*
X107961904Y-80959580D02*
X107914285Y-81007200D01*
X107914285Y-81007200D02*
X107819047Y-81054819D01*
X107819047Y-81054819D02*
X107533333Y-81054819D01*
X107533333Y-81054819D02*
X107438095Y-81007200D01*
X107438095Y-81007200D02*
X107390476Y-80959580D01*
X104023810Y-73254819D02*
X104690476Y-74254819D01*
X104690476Y-73254819D02*
X104023810Y-74254819D01*
X105642857Y-74159580D02*
X105595238Y-74207200D01*
X105595238Y-74207200D02*
X105452381Y-74254819D01*
X105452381Y-74254819D02*
X105357143Y-74254819D01*
X105357143Y-74254819D02*
X105214286Y-74207200D01*
X105214286Y-74207200D02*
X105119048Y-74111961D01*
X105119048Y-74111961D02*
X105071429Y-74016723D01*
X105071429Y-74016723D02*
X105023810Y-73826247D01*
X105023810Y-73826247D02*
X105023810Y-73683390D01*
X105023810Y-73683390D02*
X105071429Y-73492914D01*
X105071429Y-73492914D02*
X105119048Y-73397676D01*
X105119048Y-73397676D02*
X105214286Y-73302438D01*
X105214286Y-73302438D02*
X105357143Y-73254819D01*
X105357143Y-73254819D02*
X105452381Y-73254819D01*
X105452381Y-73254819D02*
X105595238Y-73302438D01*
X105595238Y-73302438D02*
X105642857Y-73350057D01*
X106500000Y-73254819D02*
X106309524Y-73254819D01*
X106309524Y-73254819D02*
X106214286Y-73302438D01*
X106214286Y-73302438D02*
X106166667Y-73350057D01*
X106166667Y-73350057D02*
X106071429Y-73492914D01*
X106071429Y-73492914D02*
X106023810Y-73683390D01*
X106023810Y-73683390D02*
X106023810Y-74064342D01*
X106023810Y-74064342D02*
X106071429Y-74159580D01*
X106071429Y-74159580D02*
X106119048Y-74207200D01*
X106119048Y-74207200D02*
X106214286Y-74254819D01*
X106214286Y-74254819D02*
X106404762Y-74254819D01*
X106404762Y-74254819D02*
X106500000Y-74207200D01*
X106500000Y-74207200D02*
X106547619Y-74159580D01*
X106547619Y-74159580D02*
X106595238Y-74064342D01*
X106595238Y-74064342D02*
X106595238Y-73826247D01*
X106595238Y-73826247D02*
X106547619Y-73731009D01*
X106547619Y-73731009D02*
X106500000Y-73683390D01*
X106500000Y-73683390D02*
X106404762Y-73635771D01*
X106404762Y-73635771D02*
X106214286Y-73635771D01*
X106214286Y-73635771D02*
X106119048Y-73683390D01*
X106119048Y-73683390D02*
X106071429Y-73731009D01*
X106071429Y-73731009D02*
X106023810Y-73826247D01*
X106976191Y-73350057D02*
X107023810Y-73302438D01*
X107023810Y-73302438D02*
X107119048Y-73254819D01*
X107119048Y-73254819D02*
X107357143Y-73254819D01*
X107357143Y-73254819D02*
X107452381Y-73302438D01*
X107452381Y-73302438D02*
X107500000Y-73350057D01*
X107500000Y-73350057D02*
X107547619Y-73445295D01*
X107547619Y-73445295D02*
X107547619Y-73540533D01*
X107547619Y-73540533D02*
X107500000Y-73683390D01*
X107500000Y-73683390D02*
X106928572Y-74254819D01*
X106928572Y-74254819D02*
X107547619Y-74254819D01*
X108166667Y-73254819D02*
X108261905Y-73254819D01*
X108261905Y-73254819D02*
X108357143Y-73302438D01*
X108357143Y-73302438D02*
X108404762Y-73350057D01*
X108404762Y-73350057D02*
X108452381Y-73445295D01*
X108452381Y-73445295D02*
X108500000Y-73635771D01*
X108500000Y-73635771D02*
X108500000Y-73873866D01*
X108500000Y-73873866D02*
X108452381Y-74064342D01*
X108452381Y-74064342D02*
X108404762Y-74159580D01*
X108404762Y-74159580D02*
X108357143Y-74207200D01*
X108357143Y-74207200D02*
X108261905Y-74254819D01*
X108261905Y-74254819D02*
X108166667Y-74254819D01*
X108166667Y-74254819D02*
X108071429Y-74207200D01*
X108071429Y-74207200D02*
X108023810Y-74159580D01*
X108023810Y-74159580D02*
X107976191Y-74064342D01*
X107976191Y-74064342D02*
X107928572Y-73873866D01*
X107928572Y-73873866D02*
X107928572Y-73635771D01*
X107928572Y-73635771D02*
X107976191Y-73445295D01*
X107976191Y-73445295D02*
X108023810Y-73350057D01*
X108023810Y-73350057D02*
X108071429Y-73302438D01*
X108071429Y-73302438D02*
X108166667Y-73254819D01*
X109357143Y-73254819D02*
X109166667Y-73254819D01*
X109166667Y-73254819D02*
X109071429Y-73302438D01*
X109071429Y-73302438D02*
X109023810Y-73350057D01*
X109023810Y-73350057D02*
X108928572Y-73492914D01*
X108928572Y-73492914D02*
X108880953Y-73683390D01*
X108880953Y-73683390D02*
X108880953Y-74064342D01*
X108880953Y-74064342D02*
X108928572Y-74159580D01*
X108928572Y-74159580D02*
X108976191Y-74207200D01*
X108976191Y-74207200D02*
X109071429Y-74254819D01*
X109071429Y-74254819D02*
X109261905Y-74254819D01*
X109261905Y-74254819D02*
X109357143Y-74207200D01*
X109357143Y-74207200D02*
X109404762Y-74159580D01*
X109404762Y-74159580D02*
X109452381Y-74064342D01*
X109452381Y-74064342D02*
X109452381Y-73826247D01*
X109452381Y-73826247D02*
X109404762Y-73731009D01*
X109404762Y-73731009D02*
X109357143Y-73683390D01*
X109357143Y-73683390D02*
X109261905Y-73635771D01*
X109261905Y-73635771D02*
X109071429Y-73635771D01*
X109071429Y-73635771D02*
X108976191Y-73683390D01*
X108976191Y-73683390D02*
X108928572Y-73731009D01*
X108928572Y-73731009D02*
X108880953Y-73826247D01*
X109880953Y-73873866D02*
X110642858Y-73873866D01*
X111023810Y-73254819D02*
X111642857Y-73254819D01*
X111642857Y-73254819D02*
X111309524Y-73635771D01*
X111309524Y-73635771D02*
X111452381Y-73635771D01*
X111452381Y-73635771D02*
X111547619Y-73683390D01*
X111547619Y-73683390D02*
X111595238Y-73731009D01*
X111595238Y-73731009D02*
X111642857Y-73826247D01*
X111642857Y-73826247D02*
X111642857Y-74064342D01*
X111642857Y-74064342D02*
X111595238Y-74159580D01*
X111595238Y-74159580D02*
X111547619Y-74207200D01*
X111547619Y-74207200D02*
X111452381Y-74254819D01*
X111452381Y-74254819D02*
X111166667Y-74254819D01*
X111166667Y-74254819D02*
X111071429Y-74207200D01*
X111071429Y-74207200D02*
X111023810Y-74159580D01*
X112071429Y-74159580D02*
X112119048Y-74207200D01*
X112119048Y-74207200D02*
X112071429Y-74254819D01*
X112071429Y-74254819D02*
X112023810Y-74207200D01*
X112023810Y-74207200D02*
X112071429Y-74159580D01*
X112071429Y-74159580D02*
X112071429Y-74254819D01*
X112452381Y-73254819D02*
X113071428Y-73254819D01*
X113071428Y-73254819D02*
X112738095Y-73635771D01*
X112738095Y-73635771D02*
X112880952Y-73635771D01*
X112880952Y-73635771D02*
X112976190Y-73683390D01*
X112976190Y-73683390D02*
X113023809Y-73731009D01*
X113023809Y-73731009D02*
X113071428Y-73826247D01*
X113071428Y-73826247D02*
X113071428Y-74064342D01*
X113071428Y-74064342D02*
X113023809Y-74159580D01*
X113023809Y-74159580D02*
X112976190Y-74207200D01*
X112976190Y-74207200D02*
X112880952Y-74254819D01*
X112880952Y-74254819D02*
X112595238Y-74254819D01*
X112595238Y-74254819D02*
X112500000Y-74207200D01*
X112500000Y-74207200D02*
X112452381Y-74159580D01*
X113357143Y-73254819D02*
X113690476Y-74254819D01*
X113690476Y-74254819D02*
X114023809Y-73254819D01*
X136085714Y-90502438D02*
X135990476Y-90454819D01*
X135990476Y-90454819D02*
X135847619Y-90454819D01*
X135847619Y-90454819D02*
X135704762Y-90502438D01*
X135704762Y-90502438D02*
X135609524Y-90597676D01*
X135609524Y-90597676D02*
X135561905Y-90692914D01*
X135561905Y-90692914D02*
X135514286Y-90883390D01*
X135514286Y-90883390D02*
X135514286Y-91026247D01*
X135514286Y-91026247D02*
X135561905Y-91216723D01*
X135561905Y-91216723D02*
X135609524Y-91311961D01*
X135609524Y-91311961D02*
X135704762Y-91407200D01*
X135704762Y-91407200D02*
X135847619Y-91454819D01*
X135847619Y-91454819D02*
X135942857Y-91454819D01*
X135942857Y-91454819D02*
X136085714Y-91407200D01*
X136085714Y-91407200D02*
X136133333Y-91359580D01*
X136133333Y-91359580D02*
X136133333Y-91026247D01*
X136133333Y-91026247D02*
X135942857Y-91026247D01*
X136561905Y-91454819D02*
X136561905Y-90454819D01*
X136561905Y-90454819D02*
X136942857Y-90454819D01*
X136942857Y-90454819D02*
X137038095Y-90502438D01*
X137038095Y-90502438D02*
X137085714Y-90550057D01*
X137085714Y-90550057D02*
X137133333Y-90645295D01*
X137133333Y-90645295D02*
X137133333Y-90788152D01*
X137133333Y-90788152D02*
X137085714Y-90883390D01*
X137085714Y-90883390D02*
X137038095Y-90931009D01*
X137038095Y-90931009D02*
X136942857Y-90978628D01*
X136942857Y-90978628D02*
X136561905Y-90978628D01*
X137990476Y-90788152D02*
X137990476Y-91454819D01*
X137752381Y-90407200D02*
X137514286Y-91121485D01*
X137514286Y-91121485D02*
X138133333Y-91121485D01*
X106059580Y-91766666D02*
X106107200Y-91814285D01*
X106107200Y-91814285D02*
X106154819Y-91957142D01*
X106154819Y-91957142D02*
X106154819Y-92052380D01*
X106154819Y-92052380D02*
X106107200Y-92195237D01*
X106107200Y-92195237D02*
X106011961Y-92290475D01*
X106011961Y-92290475D02*
X105916723Y-92338094D01*
X105916723Y-92338094D02*
X105726247Y-92385713D01*
X105726247Y-92385713D02*
X105583390Y-92385713D01*
X105583390Y-92385713D02*
X105392914Y-92338094D01*
X105392914Y-92338094D02*
X105297676Y-92290475D01*
X105297676Y-92290475D02*
X105202438Y-92195237D01*
X105202438Y-92195237D02*
X105154819Y-92052380D01*
X105154819Y-92052380D02*
X105154819Y-91957142D01*
X105154819Y-91957142D02*
X105202438Y-91814285D01*
X105202438Y-91814285D02*
X105250057Y-91766666D01*
X105250057Y-91385713D02*
X105202438Y-91338094D01*
X105202438Y-91338094D02*
X105154819Y-91242856D01*
X105154819Y-91242856D02*
X105154819Y-91004761D01*
X105154819Y-91004761D02*
X105202438Y-90909523D01*
X105202438Y-90909523D02*
X105250057Y-90861904D01*
X105250057Y-90861904D02*
X105345295Y-90814285D01*
X105345295Y-90814285D02*
X105440533Y-90814285D01*
X105440533Y-90814285D02*
X105583390Y-90861904D01*
X105583390Y-90861904D02*
X106154819Y-91433332D01*
X106154819Y-91433332D02*
X106154819Y-90814285D01*
X106788152Y-93762857D02*
X107454819Y-93762857D01*
X106407200Y-94000952D02*
X107121485Y-94239047D01*
X107121485Y-94239047D02*
X107121485Y-93620000D01*
X106454819Y-93334285D02*
X106454819Y-92667619D01*
X106454819Y-92667619D02*
X107454819Y-93096190D01*
X106454819Y-92096190D02*
X106454819Y-92000952D01*
X106454819Y-92000952D02*
X106502438Y-91905714D01*
X106502438Y-91905714D02*
X106550057Y-91858095D01*
X106550057Y-91858095D02*
X106645295Y-91810476D01*
X106645295Y-91810476D02*
X106835771Y-91762857D01*
X106835771Y-91762857D02*
X107073866Y-91762857D01*
X107073866Y-91762857D02*
X107264342Y-91810476D01*
X107264342Y-91810476D02*
X107359580Y-91858095D01*
X107359580Y-91858095D02*
X107407200Y-91905714D01*
X107407200Y-91905714D02*
X107454819Y-92000952D01*
X107454819Y-92000952D02*
X107454819Y-92096190D01*
X107454819Y-92096190D02*
X107407200Y-92191428D01*
X107407200Y-92191428D02*
X107359580Y-92239047D01*
X107359580Y-92239047D02*
X107264342Y-92286666D01*
X107264342Y-92286666D02*
X107073866Y-92334285D01*
X107073866Y-92334285D02*
X106835771Y-92334285D01*
X106835771Y-92334285D02*
X106645295Y-92286666D01*
X106645295Y-92286666D02*
X106550057Y-92239047D01*
X106550057Y-92239047D02*
X106502438Y-92191428D01*
X106502438Y-92191428D02*
X106454819Y-92096190D01*
X106788152Y-91334285D02*
X107454819Y-91334285D01*
X106883390Y-91334285D02*
X106835771Y-91286666D01*
X106835771Y-91286666D02*
X106788152Y-91191428D01*
X106788152Y-91191428D02*
X106788152Y-91048571D01*
X106788152Y-91048571D02*
X106835771Y-90953333D01*
X106835771Y-90953333D02*
X106931009Y-90905714D01*
X106931009Y-90905714D02*
X107454819Y-90905714D01*
X106931009Y-90096190D02*
X106931009Y-90429523D01*
X107454819Y-90429523D02*
X106454819Y-90429523D01*
X106454819Y-90429523D02*
X106454819Y-89953333D01*
X85238095Y-96502438D02*
X85142857Y-96454819D01*
X85142857Y-96454819D02*
X85000000Y-96454819D01*
X85000000Y-96454819D02*
X84857143Y-96502438D01*
X84857143Y-96502438D02*
X84761905Y-96597676D01*
X84761905Y-96597676D02*
X84714286Y-96692914D01*
X84714286Y-96692914D02*
X84666667Y-96883390D01*
X84666667Y-96883390D02*
X84666667Y-97026247D01*
X84666667Y-97026247D02*
X84714286Y-97216723D01*
X84714286Y-97216723D02*
X84761905Y-97311961D01*
X84761905Y-97311961D02*
X84857143Y-97407200D01*
X84857143Y-97407200D02*
X85000000Y-97454819D01*
X85000000Y-97454819D02*
X85095238Y-97454819D01*
X85095238Y-97454819D02*
X85238095Y-97407200D01*
X85238095Y-97407200D02*
X85285714Y-97359580D01*
X85285714Y-97359580D02*
X85285714Y-97026247D01*
X85285714Y-97026247D02*
X85095238Y-97026247D01*
X85714286Y-97454819D02*
X85714286Y-96454819D01*
X85714286Y-96454819D02*
X86285714Y-97454819D01*
X86285714Y-97454819D02*
X86285714Y-96454819D01*
X86761905Y-97454819D02*
X86761905Y-96454819D01*
X86761905Y-96454819D02*
X87000000Y-96454819D01*
X87000000Y-96454819D02*
X87142857Y-96502438D01*
X87142857Y-96502438D02*
X87238095Y-96597676D01*
X87238095Y-96597676D02*
X87285714Y-96692914D01*
X87285714Y-96692914D02*
X87333333Y-96883390D01*
X87333333Y-96883390D02*
X87333333Y-97026247D01*
X87333333Y-97026247D02*
X87285714Y-97216723D01*
X87285714Y-97216723D02*
X87238095Y-97311961D01*
X87238095Y-97311961D02*
X87142857Y-97407200D01*
X87142857Y-97407200D02*
X87000000Y-97454819D01*
X87000000Y-97454819D02*
X86761905Y-97454819D01*
X86361905Y-79154819D02*
X86361905Y-78154819D01*
X86361905Y-78154819D02*
X86600000Y-78154819D01*
X86600000Y-78154819D02*
X86742857Y-78202438D01*
X86742857Y-78202438D02*
X86838095Y-78297676D01*
X86838095Y-78297676D02*
X86885714Y-78392914D01*
X86885714Y-78392914D02*
X86933333Y-78583390D01*
X86933333Y-78583390D02*
X86933333Y-78726247D01*
X86933333Y-78726247D02*
X86885714Y-78916723D01*
X86885714Y-78916723D02*
X86838095Y-79011961D01*
X86838095Y-79011961D02*
X86742857Y-79107200D01*
X86742857Y-79107200D02*
X86600000Y-79154819D01*
X86600000Y-79154819D02*
X86361905Y-79154819D01*
X87885714Y-79154819D02*
X87314286Y-79154819D01*
X87600000Y-79154819D02*
X87600000Y-78154819D01*
X87600000Y-78154819D02*
X87504762Y-78297676D01*
X87504762Y-78297676D02*
X87409524Y-78392914D01*
X87409524Y-78392914D02*
X87314286Y-78440533D01*
X85385714Y-74007200D02*
X85528571Y-74054819D01*
X85528571Y-74054819D02*
X85766666Y-74054819D01*
X85766666Y-74054819D02*
X85861904Y-74007200D01*
X85861904Y-74007200D02*
X85909523Y-73959580D01*
X85909523Y-73959580D02*
X85957142Y-73864342D01*
X85957142Y-73864342D02*
X85957142Y-73769104D01*
X85957142Y-73769104D02*
X85909523Y-73673866D01*
X85909523Y-73673866D02*
X85861904Y-73626247D01*
X85861904Y-73626247D02*
X85766666Y-73578628D01*
X85766666Y-73578628D02*
X85576190Y-73531009D01*
X85576190Y-73531009D02*
X85480952Y-73483390D01*
X85480952Y-73483390D02*
X85433333Y-73435771D01*
X85433333Y-73435771D02*
X85385714Y-73340533D01*
X85385714Y-73340533D02*
X85385714Y-73245295D01*
X85385714Y-73245295D02*
X85433333Y-73150057D01*
X85433333Y-73150057D02*
X85480952Y-73102438D01*
X85480952Y-73102438D02*
X85576190Y-73054819D01*
X85576190Y-73054819D02*
X85814285Y-73054819D01*
X85814285Y-73054819D02*
X85957142Y-73102438D01*
X86338095Y-74007200D02*
X86480952Y-74054819D01*
X86480952Y-74054819D02*
X86719047Y-74054819D01*
X86719047Y-74054819D02*
X86814285Y-74007200D01*
X86814285Y-74007200D02*
X86861904Y-73959580D01*
X86861904Y-73959580D02*
X86909523Y-73864342D01*
X86909523Y-73864342D02*
X86909523Y-73769104D01*
X86909523Y-73769104D02*
X86861904Y-73673866D01*
X86861904Y-73673866D02*
X86814285Y-73626247D01*
X86814285Y-73626247D02*
X86719047Y-73578628D01*
X86719047Y-73578628D02*
X86528571Y-73531009D01*
X86528571Y-73531009D02*
X86433333Y-73483390D01*
X86433333Y-73483390D02*
X86385714Y-73435771D01*
X86385714Y-73435771D02*
X86338095Y-73340533D01*
X86338095Y-73340533D02*
X86338095Y-73245295D01*
X86338095Y-73245295D02*
X86385714Y-73150057D01*
X86385714Y-73150057D02*
X86433333Y-73102438D01*
X86433333Y-73102438D02*
X86528571Y-73054819D01*
X86528571Y-73054819D02*
X86766666Y-73054819D01*
X86766666Y-73054819D02*
X86909523Y-73102438D01*
X87861904Y-74054819D02*
X87290476Y-74054819D01*
X87576190Y-74054819D02*
X87576190Y-73054819D01*
X87576190Y-73054819D02*
X87480952Y-73197676D01*
X87480952Y-73197676D02*
X87385714Y-73292914D01*
X87385714Y-73292914D02*
X87290476Y-73340533D01*
X88719047Y-73388152D02*
X88719047Y-74054819D01*
X88480952Y-73007200D02*
X88242857Y-73721485D01*
X88242857Y-73721485D02*
X88861904Y-73721485D01*
X119194819Y-72733333D02*
X119909104Y-72733333D01*
X119909104Y-72733333D02*
X120051961Y-72780952D01*
X120051961Y-72780952D02*
X120147200Y-72876190D01*
X120147200Y-72876190D02*
X120194819Y-73019047D01*
X120194819Y-73019047D02*
X120194819Y-73114285D01*
X119290057Y-72304761D02*
X119242438Y-72257142D01*
X119242438Y-72257142D02*
X119194819Y-72161904D01*
X119194819Y-72161904D02*
X119194819Y-71923809D01*
X119194819Y-71923809D02*
X119242438Y-71828571D01*
X119242438Y-71828571D02*
X119290057Y-71780952D01*
X119290057Y-71780952D02*
X119385295Y-71733333D01*
X119385295Y-71733333D02*
X119480533Y-71733333D01*
X119480533Y-71733333D02*
X119623390Y-71780952D01*
X119623390Y-71780952D02*
X120194819Y-72352380D01*
X120194819Y-72352380D02*
X120194819Y-71733333D01*
X126357143Y-98407200D02*
X126500000Y-98454819D01*
X126500000Y-98454819D02*
X126738095Y-98454819D01*
X126738095Y-98454819D02*
X126833333Y-98407200D01*
X126833333Y-98407200D02*
X126880952Y-98359580D01*
X126880952Y-98359580D02*
X126928571Y-98264342D01*
X126928571Y-98264342D02*
X126928571Y-98169104D01*
X126928571Y-98169104D02*
X126880952Y-98073866D01*
X126880952Y-98073866D02*
X126833333Y-98026247D01*
X126833333Y-98026247D02*
X126738095Y-97978628D01*
X126738095Y-97978628D02*
X126547619Y-97931009D01*
X126547619Y-97931009D02*
X126452381Y-97883390D01*
X126452381Y-97883390D02*
X126404762Y-97835771D01*
X126404762Y-97835771D02*
X126357143Y-97740533D01*
X126357143Y-97740533D02*
X126357143Y-97645295D01*
X126357143Y-97645295D02*
X126404762Y-97550057D01*
X126404762Y-97550057D02*
X126452381Y-97502438D01*
X126452381Y-97502438D02*
X126547619Y-97454819D01*
X126547619Y-97454819D02*
X126785714Y-97454819D01*
X126785714Y-97454819D02*
X126928571Y-97502438D01*
X127833333Y-98454819D02*
X127357143Y-98454819D01*
X127357143Y-98454819D02*
X127357143Y-97454819D01*
X128166667Y-97931009D02*
X128500000Y-97931009D01*
X128642857Y-98454819D02*
X128166667Y-98454819D01*
X128166667Y-98454819D02*
X128166667Y-97454819D01*
X128166667Y-97454819D02*
X128642857Y-97454819D01*
X129071429Y-98454819D02*
X129071429Y-97454819D01*
X129071429Y-97454819D02*
X129309524Y-97454819D01*
X129309524Y-97454819D02*
X129452381Y-97502438D01*
X129452381Y-97502438D02*
X129547619Y-97597676D01*
X129547619Y-97597676D02*
X129595238Y-97692914D01*
X129595238Y-97692914D02*
X129642857Y-97883390D01*
X129642857Y-97883390D02*
X129642857Y-98026247D01*
X129642857Y-98026247D02*
X129595238Y-98216723D01*
X129595238Y-98216723D02*
X129547619Y-98311961D01*
X129547619Y-98311961D02*
X129452381Y-98407200D01*
X129452381Y-98407200D02*
X129309524Y-98454819D01*
X129309524Y-98454819D02*
X129071429Y-98454819D01*
X134957142Y-98454819D02*
X134480952Y-98454819D01*
X134480952Y-98454819D02*
X134480952Y-97454819D01*
X135290476Y-97931009D02*
X135623809Y-97931009D01*
X135766666Y-98454819D02*
X135290476Y-98454819D01*
X135290476Y-98454819D02*
X135290476Y-97454819D01*
X135290476Y-97454819D02*
X135766666Y-97454819D01*
X136195238Y-98454819D02*
X136195238Y-97454819D01*
X136195238Y-97454819D02*
X136433333Y-97454819D01*
X136433333Y-97454819D02*
X136576190Y-97502438D01*
X136576190Y-97502438D02*
X136671428Y-97597676D01*
X136671428Y-97597676D02*
X136719047Y-97692914D01*
X136719047Y-97692914D02*
X136766666Y-97883390D01*
X136766666Y-97883390D02*
X136766666Y-98026247D01*
X136766666Y-98026247D02*
X136719047Y-98216723D01*
X136719047Y-98216723D02*
X136671428Y-98311961D01*
X136671428Y-98311961D02*
X136576190Y-98407200D01*
X136576190Y-98407200D02*
X136433333Y-98454819D01*
X136433333Y-98454819D02*
X136195238Y-98454819D01*
X113159580Y-77566666D02*
X113207200Y-77614285D01*
X113207200Y-77614285D02*
X113254819Y-77757142D01*
X113254819Y-77757142D02*
X113254819Y-77852380D01*
X113254819Y-77852380D02*
X113207200Y-77995237D01*
X113207200Y-77995237D02*
X113111961Y-78090475D01*
X113111961Y-78090475D02*
X113016723Y-78138094D01*
X113016723Y-78138094D02*
X112826247Y-78185713D01*
X112826247Y-78185713D02*
X112683390Y-78185713D01*
X112683390Y-78185713D02*
X112492914Y-78138094D01*
X112492914Y-78138094D02*
X112397676Y-78090475D01*
X112397676Y-78090475D02*
X112302438Y-77995237D01*
X112302438Y-77995237D02*
X112254819Y-77852380D01*
X112254819Y-77852380D02*
X112254819Y-77757142D01*
X112254819Y-77757142D02*
X112302438Y-77614285D01*
X112302438Y-77614285D02*
X112350057Y-77566666D01*
X112254819Y-77233332D02*
X112254819Y-76614285D01*
X112254819Y-76614285D02*
X112635771Y-76947618D01*
X112635771Y-76947618D02*
X112635771Y-76804761D01*
X112635771Y-76804761D02*
X112683390Y-76709523D01*
X112683390Y-76709523D02*
X112731009Y-76661904D01*
X112731009Y-76661904D02*
X112826247Y-76614285D01*
X112826247Y-76614285D02*
X113064342Y-76614285D01*
X113064342Y-76614285D02*
X113159580Y-76661904D01*
X113159580Y-76661904D02*
X113207200Y-76709523D01*
X113207200Y-76709523D02*
X113254819Y-76804761D01*
X113254819Y-76804761D02*
X113254819Y-77090475D01*
X113254819Y-77090475D02*
X113207200Y-77185713D01*
X113207200Y-77185713D02*
X113159580Y-77233332D01*
X109754819Y-79176190D02*
X109754819Y-79747618D01*
X109754819Y-79461904D02*
X108754819Y-79461904D01*
X108754819Y-79461904D02*
X108897676Y-79557142D01*
X108897676Y-79557142D02*
X108992914Y-79652380D01*
X108992914Y-79652380D02*
X109040533Y-79747618D01*
X109088152Y-77557142D02*
X109754819Y-77557142D01*
X109088152Y-77985713D02*
X109611961Y-77985713D01*
X109611961Y-77985713D02*
X109707200Y-77938094D01*
X109707200Y-77938094D02*
X109754819Y-77842856D01*
X109754819Y-77842856D02*
X109754819Y-77699999D01*
X109754819Y-77699999D02*
X109707200Y-77604761D01*
X109707200Y-77604761D02*
X109659580Y-77557142D01*
X109231009Y-76747618D02*
X109231009Y-77080951D01*
X109754819Y-77080951D02*
X108754819Y-77080951D01*
X108754819Y-77080951D02*
X108754819Y-76604761D01*
X144666666Y-78874819D02*
X144666666Y-79589104D01*
X144666666Y-79589104D02*
X144619047Y-79731961D01*
X144619047Y-79731961D02*
X144523809Y-79827200D01*
X144523809Y-79827200D02*
X144380952Y-79874819D01*
X144380952Y-79874819D02*
X144285714Y-79874819D01*
X145571428Y-79208152D02*
X145571428Y-79874819D01*
X145333333Y-78827200D02*
X145095238Y-79541485D01*
X145095238Y-79541485D02*
X145714285Y-79541485D01*
X125838095Y-83354819D02*
X125838095Y-84164342D01*
X125838095Y-84164342D02*
X125885714Y-84259580D01*
X125885714Y-84259580D02*
X125933333Y-84307200D01*
X125933333Y-84307200D02*
X126028571Y-84354819D01*
X126028571Y-84354819D02*
X126219047Y-84354819D01*
X126219047Y-84354819D02*
X126314285Y-84307200D01*
X126314285Y-84307200D02*
X126361904Y-84259580D01*
X126361904Y-84259580D02*
X126409523Y-84164342D01*
X126409523Y-84164342D02*
X126409523Y-83354819D01*
X127409523Y-84354819D02*
X126838095Y-84354819D01*
X127123809Y-84354819D02*
X127123809Y-83354819D01*
X127123809Y-83354819D02*
X127028571Y-83497676D01*
X127028571Y-83497676D02*
X126933333Y-83592914D01*
X126933333Y-83592914D02*
X126838095Y-83640533D01*
X120066667Y-96454819D02*
X120066667Y-95454819D01*
X120066667Y-95454819D02*
X120447619Y-95454819D01*
X120447619Y-95454819D02*
X120542857Y-95502438D01*
X120542857Y-95502438D02*
X120590476Y-95550057D01*
X120590476Y-95550057D02*
X120638095Y-95645295D01*
X120638095Y-95645295D02*
X120638095Y-95788152D01*
X120638095Y-95788152D02*
X120590476Y-95883390D01*
X120590476Y-95883390D02*
X120542857Y-95931009D01*
X120542857Y-95931009D02*
X120447619Y-95978628D01*
X120447619Y-95978628D02*
X120066667Y-95978628D01*
X121066667Y-96454819D02*
X121066667Y-95454819D01*
X122114285Y-96359580D02*
X122066666Y-96407200D01*
X122066666Y-96407200D02*
X121923809Y-96454819D01*
X121923809Y-96454819D02*
X121828571Y-96454819D01*
X121828571Y-96454819D02*
X121685714Y-96407200D01*
X121685714Y-96407200D02*
X121590476Y-96311961D01*
X121590476Y-96311961D02*
X121542857Y-96216723D01*
X121542857Y-96216723D02*
X121495238Y-96026247D01*
X121495238Y-96026247D02*
X121495238Y-95883390D01*
X121495238Y-95883390D02*
X121542857Y-95692914D01*
X121542857Y-95692914D02*
X121590476Y-95597676D01*
X121590476Y-95597676D02*
X121685714Y-95502438D01*
X121685714Y-95502438D02*
X121828571Y-95454819D01*
X121828571Y-95454819D02*
X121923809Y-95454819D01*
X121923809Y-95454819D02*
X122066666Y-95502438D01*
X122066666Y-95502438D02*
X122114285Y-95550057D01*
X123066666Y-96454819D02*
X122495238Y-96454819D01*
X122780952Y-96454819D02*
X122780952Y-95454819D01*
X122780952Y-95454819D02*
X122685714Y-95597676D01*
X122685714Y-95597676D02*
X122590476Y-95692914D01*
X122590476Y-95692914D02*
X122495238Y-95740533D01*
X123447619Y-95550057D02*
X123495238Y-95502438D01*
X123495238Y-95502438D02*
X123590476Y-95454819D01*
X123590476Y-95454819D02*
X123828571Y-95454819D01*
X123828571Y-95454819D02*
X123923809Y-95502438D01*
X123923809Y-95502438D02*
X123971428Y-95550057D01*
X123971428Y-95550057D02*
X124019047Y-95645295D01*
X124019047Y-95645295D02*
X124019047Y-95740533D01*
X124019047Y-95740533D02*
X123971428Y-95883390D01*
X123971428Y-95883390D02*
X123400000Y-96454819D01*
X123400000Y-96454819D02*
X124019047Y-96454819D01*
X124780952Y-95931009D02*
X124447619Y-95931009D01*
X124447619Y-96454819D02*
X124447619Y-95454819D01*
X124447619Y-95454819D02*
X124923809Y-95454819D01*
X125733333Y-95454819D02*
X125542857Y-95454819D01*
X125542857Y-95454819D02*
X125447619Y-95502438D01*
X125447619Y-95502438D02*
X125400000Y-95550057D01*
X125400000Y-95550057D02*
X125304762Y-95692914D01*
X125304762Y-95692914D02*
X125257143Y-95883390D01*
X125257143Y-95883390D02*
X125257143Y-96264342D01*
X125257143Y-96264342D02*
X125304762Y-96359580D01*
X125304762Y-96359580D02*
X125352381Y-96407200D01*
X125352381Y-96407200D02*
X125447619Y-96454819D01*
X125447619Y-96454819D02*
X125638095Y-96454819D01*
X125638095Y-96454819D02*
X125733333Y-96407200D01*
X125733333Y-96407200D02*
X125780952Y-96359580D01*
X125780952Y-96359580D02*
X125828571Y-96264342D01*
X125828571Y-96264342D02*
X125828571Y-96026247D01*
X125828571Y-96026247D02*
X125780952Y-95931009D01*
X125780952Y-95931009D02*
X125733333Y-95883390D01*
X125733333Y-95883390D02*
X125638095Y-95835771D01*
X125638095Y-95835771D02*
X125447619Y-95835771D01*
X125447619Y-95835771D02*
X125352381Y-95883390D01*
X125352381Y-95883390D02*
X125304762Y-95931009D01*
X125304762Y-95931009D02*
X125257143Y-96026247D01*
X126780952Y-96454819D02*
X126209524Y-96454819D01*
X126495238Y-96454819D02*
X126495238Y-95454819D01*
X126495238Y-95454819D02*
X126400000Y-95597676D01*
X126400000Y-95597676D02*
X126304762Y-95692914D01*
X126304762Y-95692914D02*
X126209524Y-95740533D01*
X127114286Y-95454819D02*
X127780952Y-95454819D01*
X127780952Y-95454819D02*
X127352381Y-96454819D01*
X128161905Y-96073866D02*
X128923810Y-96073866D01*
X129304762Y-96454819D02*
X129828571Y-95788152D01*
X129304762Y-95788152D02*
X129828571Y-96454819D01*
X130209524Y-96454819D02*
X130209524Y-95454819D01*
X130209524Y-95454819D02*
X130590476Y-95454819D01*
X130590476Y-95454819D02*
X130685714Y-95502438D01*
X130685714Y-95502438D02*
X130733333Y-95550057D01*
X130733333Y-95550057D02*
X130780952Y-95645295D01*
X130780952Y-95645295D02*
X130780952Y-95788152D01*
X130780952Y-95788152D02*
X130733333Y-95883390D01*
X130733333Y-95883390D02*
X130685714Y-95931009D01*
X130685714Y-95931009D02*
X130590476Y-95978628D01*
X130590476Y-95978628D02*
X130209524Y-95978628D01*
X107866667Y-85054819D02*
X108200000Y-86054819D01*
X108200000Y-86054819D02*
X108533333Y-85054819D01*
X108866667Y-86054819D02*
X108866667Y-85054819D01*
X108866667Y-85054819D02*
X109104762Y-85054819D01*
X109104762Y-85054819D02*
X109247619Y-85102438D01*
X109247619Y-85102438D02*
X109342857Y-85197676D01*
X109342857Y-85197676D02*
X109390476Y-85292914D01*
X109390476Y-85292914D02*
X109438095Y-85483390D01*
X109438095Y-85483390D02*
X109438095Y-85626247D01*
X109438095Y-85626247D02*
X109390476Y-85816723D01*
X109390476Y-85816723D02*
X109342857Y-85911961D01*
X109342857Y-85911961D02*
X109247619Y-86007200D01*
X109247619Y-86007200D02*
X109104762Y-86054819D01*
X109104762Y-86054819D02*
X108866667Y-86054819D01*
X109866667Y-86054819D02*
X109866667Y-85054819D01*
X109866667Y-85054819D02*
X110104762Y-85054819D01*
X110104762Y-85054819D02*
X110247619Y-85102438D01*
X110247619Y-85102438D02*
X110342857Y-85197676D01*
X110342857Y-85197676D02*
X110390476Y-85292914D01*
X110390476Y-85292914D02*
X110438095Y-85483390D01*
X110438095Y-85483390D02*
X110438095Y-85626247D01*
X110438095Y-85626247D02*
X110390476Y-85816723D01*
X110390476Y-85816723D02*
X110342857Y-85911961D01*
X110342857Y-85911961D02*
X110247619Y-86007200D01*
X110247619Y-86007200D02*
X110104762Y-86054819D01*
X110104762Y-86054819D02*
X109866667Y-86054819D01*
X126983333Y-105884819D02*
X126650000Y-105408628D01*
X126411905Y-105884819D02*
X126411905Y-104884819D01*
X126411905Y-104884819D02*
X126792857Y-104884819D01*
X126792857Y-104884819D02*
X126888095Y-104932438D01*
X126888095Y-104932438D02*
X126935714Y-104980057D01*
X126935714Y-104980057D02*
X126983333Y-105075295D01*
X126983333Y-105075295D02*
X126983333Y-105218152D01*
X126983333Y-105218152D02*
X126935714Y-105313390D01*
X126935714Y-105313390D02*
X126888095Y-105361009D01*
X126888095Y-105361009D02*
X126792857Y-105408628D01*
X126792857Y-105408628D02*
X126411905Y-105408628D01*
X127935714Y-105884819D02*
X127364286Y-105884819D01*
X127650000Y-105884819D02*
X127650000Y-104884819D01*
X127650000Y-104884819D02*
X127554762Y-105027676D01*
X127554762Y-105027676D02*
X127459524Y-105122914D01*
X127459524Y-105122914D02*
X127364286Y-105170533D01*
X125638095Y-101224819D02*
X125447619Y-101224819D01*
X125447619Y-101224819D02*
X125352381Y-101272438D01*
X125352381Y-101272438D02*
X125304762Y-101320057D01*
X125304762Y-101320057D02*
X125209524Y-101462914D01*
X125209524Y-101462914D02*
X125161905Y-101653390D01*
X125161905Y-101653390D02*
X125161905Y-102034342D01*
X125161905Y-102034342D02*
X125209524Y-102129580D01*
X125209524Y-102129580D02*
X125257143Y-102177200D01*
X125257143Y-102177200D02*
X125352381Y-102224819D01*
X125352381Y-102224819D02*
X125542857Y-102224819D01*
X125542857Y-102224819D02*
X125638095Y-102177200D01*
X125638095Y-102177200D02*
X125685714Y-102129580D01*
X125685714Y-102129580D02*
X125733333Y-102034342D01*
X125733333Y-102034342D02*
X125733333Y-101796247D01*
X125733333Y-101796247D02*
X125685714Y-101701009D01*
X125685714Y-101701009D02*
X125638095Y-101653390D01*
X125638095Y-101653390D02*
X125542857Y-101605771D01*
X125542857Y-101605771D02*
X125352381Y-101605771D01*
X125352381Y-101605771D02*
X125257143Y-101653390D01*
X125257143Y-101653390D02*
X125209524Y-101701009D01*
X125209524Y-101701009D02*
X125161905Y-101796247D01*
X126304762Y-101653390D02*
X126209524Y-101605771D01*
X126209524Y-101605771D02*
X126161905Y-101558152D01*
X126161905Y-101558152D02*
X126114286Y-101462914D01*
X126114286Y-101462914D02*
X126114286Y-101415295D01*
X126114286Y-101415295D02*
X126161905Y-101320057D01*
X126161905Y-101320057D02*
X126209524Y-101272438D01*
X126209524Y-101272438D02*
X126304762Y-101224819D01*
X126304762Y-101224819D02*
X126495238Y-101224819D01*
X126495238Y-101224819D02*
X126590476Y-101272438D01*
X126590476Y-101272438D02*
X126638095Y-101320057D01*
X126638095Y-101320057D02*
X126685714Y-101415295D01*
X126685714Y-101415295D02*
X126685714Y-101462914D01*
X126685714Y-101462914D02*
X126638095Y-101558152D01*
X126638095Y-101558152D02*
X126590476Y-101605771D01*
X126590476Y-101605771D02*
X126495238Y-101653390D01*
X126495238Y-101653390D02*
X126304762Y-101653390D01*
X126304762Y-101653390D02*
X126209524Y-101701009D01*
X126209524Y-101701009D02*
X126161905Y-101748628D01*
X126161905Y-101748628D02*
X126114286Y-101843866D01*
X126114286Y-101843866D02*
X126114286Y-102034342D01*
X126114286Y-102034342D02*
X126161905Y-102129580D01*
X126161905Y-102129580D02*
X126209524Y-102177200D01*
X126209524Y-102177200D02*
X126304762Y-102224819D01*
X126304762Y-102224819D02*
X126495238Y-102224819D01*
X126495238Y-102224819D02*
X126590476Y-102177200D01*
X126590476Y-102177200D02*
X126638095Y-102129580D01*
X126638095Y-102129580D02*
X126685714Y-102034342D01*
X126685714Y-102034342D02*
X126685714Y-101843866D01*
X126685714Y-101843866D02*
X126638095Y-101748628D01*
X126638095Y-101748628D02*
X126590476Y-101701009D01*
X126590476Y-101701009D02*
X126495238Y-101653390D01*
X127304762Y-101224819D02*
X127400000Y-101224819D01*
X127400000Y-101224819D02*
X127495238Y-101272438D01*
X127495238Y-101272438D02*
X127542857Y-101320057D01*
X127542857Y-101320057D02*
X127590476Y-101415295D01*
X127590476Y-101415295D02*
X127638095Y-101605771D01*
X127638095Y-101605771D02*
X127638095Y-101843866D01*
X127638095Y-101843866D02*
X127590476Y-102034342D01*
X127590476Y-102034342D02*
X127542857Y-102129580D01*
X127542857Y-102129580D02*
X127495238Y-102177200D01*
X127495238Y-102177200D02*
X127400000Y-102224819D01*
X127400000Y-102224819D02*
X127304762Y-102224819D01*
X127304762Y-102224819D02*
X127209524Y-102177200D01*
X127209524Y-102177200D02*
X127161905Y-102129580D01*
X127161905Y-102129580D02*
X127114286Y-102034342D01*
X127114286Y-102034342D02*
X127066667Y-101843866D01*
X127066667Y-101843866D02*
X127066667Y-101605771D01*
X127066667Y-101605771D02*
X127114286Y-101415295D01*
X127114286Y-101415295D02*
X127161905Y-101320057D01*
X127161905Y-101320057D02*
X127209524Y-101272438D01*
X127209524Y-101272438D02*
X127304762Y-101224819D01*
X90131905Y-98494819D02*
X90131905Y-97494819D01*
X90131905Y-97494819D02*
X90370000Y-97494819D01*
X90370000Y-97494819D02*
X90512857Y-97542438D01*
X90512857Y-97542438D02*
X90608095Y-97637676D01*
X90608095Y-97637676D02*
X90655714Y-97732914D01*
X90655714Y-97732914D02*
X90703333Y-97923390D01*
X90703333Y-97923390D02*
X90703333Y-98066247D01*
X90703333Y-98066247D02*
X90655714Y-98256723D01*
X90655714Y-98256723D02*
X90608095Y-98351961D01*
X90608095Y-98351961D02*
X90512857Y-98447200D01*
X90512857Y-98447200D02*
X90370000Y-98494819D01*
X90370000Y-98494819D02*
X90131905Y-98494819D01*
X91036667Y-97494819D02*
X91655714Y-97494819D01*
X91655714Y-97494819D02*
X91322381Y-97875771D01*
X91322381Y-97875771D02*
X91465238Y-97875771D01*
X91465238Y-97875771D02*
X91560476Y-97923390D01*
X91560476Y-97923390D02*
X91608095Y-97971009D01*
X91608095Y-97971009D02*
X91655714Y-98066247D01*
X91655714Y-98066247D02*
X91655714Y-98304342D01*
X91655714Y-98304342D02*
X91608095Y-98399580D01*
X91608095Y-98399580D02*
X91560476Y-98447200D01*
X91560476Y-98447200D02*
X91465238Y-98494819D01*
X91465238Y-98494819D02*
X91179524Y-98494819D01*
X91179524Y-98494819D02*
X91084286Y-98447200D01*
X91084286Y-98447200D02*
X91036667Y-98399580D01*
X88512857Y-103938628D02*
X88512857Y-104414819D01*
X88179524Y-103414819D02*
X88512857Y-103938628D01*
X88512857Y-103938628D02*
X88846190Y-103414819D01*
X89179524Y-103891009D02*
X89512857Y-103891009D01*
X89655714Y-104414819D02*
X89179524Y-104414819D01*
X89179524Y-104414819D02*
X89179524Y-103414819D01*
X89179524Y-103414819D02*
X89655714Y-103414819D01*
X90560476Y-104414819D02*
X90084286Y-104414819D01*
X90084286Y-104414819D02*
X90084286Y-103414819D01*
X91370000Y-104414819D02*
X90893810Y-104414819D01*
X90893810Y-104414819D02*
X90893810Y-103414819D01*
X91893810Y-103414819D02*
X92084286Y-103414819D01*
X92084286Y-103414819D02*
X92179524Y-103462438D01*
X92179524Y-103462438D02*
X92274762Y-103557676D01*
X92274762Y-103557676D02*
X92322381Y-103748152D01*
X92322381Y-103748152D02*
X92322381Y-104081485D01*
X92322381Y-104081485D02*
X92274762Y-104271961D01*
X92274762Y-104271961D02*
X92179524Y-104367200D01*
X92179524Y-104367200D02*
X92084286Y-104414819D01*
X92084286Y-104414819D02*
X91893810Y-104414819D01*
X91893810Y-104414819D02*
X91798572Y-104367200D01*
X91798572Y-104367200D02*
X91703334Y-104271961D01*
X91703334Y-104271961D02*
X91655715Y-104081485D01*
X91655715Y-104081485D02*
X91655715Y-103748152D01*
X91655715Y-103748152D02*
X91703334Y-103557676D01*
X91703334Y-103557676D02*
X91798572Y-103462438D01*
X91798572Y-103462438D02*
X91893810Y-103414819D01*
X92655715Y-103414819D02*
X92893810Y-104414819D01*
X92893810Y-104414819D02*
X93084286Y-103700533D01*
X93084286Y-103700533D02*
X93274762Y-104414819D01*
X93274762Y-104414819D02*
X93512858Y-103414819D01*
X92333333Y-92359580D02*
X92285714Y-92407200D01*
X92285714Y-92407200D02*
X92142857Y-92454819D01*
X92142857Y-92454819D02*
X92047619Y-92454819D01*
X92047619Y-92454819D02*
X91904762Y-92407200D01*
X91904762Y-92407200D02*
X91809524Y-92311961D01*
X91809524Y-92311961D02*
X91761905Y-92216723D01*
X91761905Y-92216723D02*
X91714286Y-92026247D01*
X91714286Y-92026247D02*
X91714286Y-91883390D01*
X91714286Y-91883390D02*
X91761905Y-91692914D01*
X91761905Y-91692914D02*
X91809524Y-91597676D01*
X91809524Y-91597676D02*
X91904762Y-91502438D01*
X91904762Y-91502438D02*
X92047619Y-91454819D01*
X92047619Y-91454819D02*
X92142857Y-91454819D01*
X92142857Y-91454819D02*
X92285714Y-91502438D01*
X92285714Y-91502438D02*
X92333333Y-91550057D01*
X93285714Y-92454819D02*
X92714286Y-92454819D01*
X93000000Y-92454819D02*
X93000000Y-91454819D01*
X93000000Y-91454819D02*
X92904762Y-91597676D01*
X92904762Y-91597676D02*
X92809524Y-91692914D01*
X92809524Y-91692914D02*
X92714286Y-91740533D01*
X91023809Y-95454819D02*
X90452381Y-95454819D01*
X90738095Y-95454819D02*
X90738095Y-94454819D01*
X90738095Y-94454819D02*
X90642857Y-94597676D01*
X90642857Y-94597676D02*
X90547619Y-94692914D01*
X90547619Y-94692914D02*
X90452381Y-94740533D01*
X92642857Y-94788152D02*
X92642857Y-95454819D01*
X92214286Y-94788152D02*
X92214286Y-95311961D01*
X92214286Y-95311961D02*
X92261905Y-95407200D01*
X92261905Y-95407200D02*
X92357143Y-95454819D01*
X92357143Y-95454819D02*
X92500000Y-95454819D01*
X92500000Y-95454819D02*
X92595238Y-95407200D01*
X92595238Y-95407200D02*
X92642857Y-95359580D01*
X93452381Y-94931009D02*
X93119048Y-94931009D01*
X93119048Y-95454819D02*
X93119048Y-94454819D01*
X93119048Y-94454819D02*
X93595238Y-94454819D01*
X112133333Y-84084819D02*
X111800000Y-83608628D01*
X111561905Y-84084819D02*
X111561905Y-83084819D01*
X111561905Y-83084819D02*
X111942857Y-83084819D01*
X111942857Y-83084819D02*
X112038095Y-83132438D01*
X112038095Y-83132438D02*
X112085714Y-83180057D01*
X112085714Y-83180057D02*
X112133333Y-83275295D01*
X112133333Y-83275295D02*
X112133333Y-83418152D01*
X112133333Y-83418152D02*
X112085714Y-83513390D01*
X112085714Y-83513390D02*
X112038095Y-83561009D01*
X112038095Y-83561009D02*
X111942857Y-83608628D01*
X111942857Y-83608628D02*
X111561905Y-83608628D01*
X112990476Y-83418152D02*
X112990476Y-84084819D01*
X112752381Y-83037200D02*
X112514286Y-83751485D01*
X112514286Y-83751485D02*
X113133333Y-83751485D01*
X112654761Y-80424819D02*
X112083333Y-80424819D01*
X112369047Y-80424819D02*
X112369047Y-79424819D01*
X112369047Y-79424819D02*
X112273809Y-79567676D01*
X112273809Y-79567676D02*
X112178571Y-79662914D01*
X112178571Y-79662914D02*
X112083333Y-79710533D01*
X113273809Y-79424819D02*
X113369047Y-79424819D01*
X113369047Y-79424819D02*
X113464285Y-79472438D01*
X113464285Y-79472438D02*
X113511904Y-79520057D01*
X113511904Y-79520057D02*
X113559523Y-79615295D01*
X113559523Y-79615295D02*
X113607142Y-79805771D01*
X113607142Y-79805771D02*
X113607142Y-80043866D01*
X113607142Y-80043866D02*
X113559523Y-80234342D01*
X113559523Y-80234342D02*
X113511904Y-80329580D01*
X113511904Y-80329580D02*
X113464285Y-80377200D01*
X113464285Y-80377200D02*
X113369047Y-80424819D01*
X113369047Y-80424819D02*
X113273809Y-80424819D01*
X113273809Y-80424819D02*
X113178571Y-80377200D01*
X113178571Y-80377200D02*
X113130952Y-80329580D01*
X113130952Y-80329580D02*
X113083333Y-80234342D01*
X113083333Y-80234342D02*
X113035714Y-80043866D01*
X113035714Y-80043866D02*
X113035714Y-79805771D01*
X113035714Y-79805771D02*
X113083333Y-79615295D01*
X113083333Y-79615295D02*
X113130952Y-79520057D01*
X113130952Y-79520057D02*
X113178571Y-79472438D01*
X113178571Y-79472438D02*
X113273809Y-79424819D01*
X114035714Y-80424819D02*
X114035714Y-79424819D01*
X114130952Y-80043866D02*
X114416666Y-80424819D01*
X114416666Y-79758152D02*
X114035714Y-80139104D01*
X101933333Y-75359580D02*
X101885714Y-75407200D01*
X101885714Y-75407200D02*
X101742857Y-75454819D01*
X101742857Y-75454819D02*
X101647619Y-75454819D01*
X101647619Y-75454819D02*
X101504762Y-75407200D01*
X101504762Y-75407200D02*
X101409524Y-75311961D01*
X101409524Y-75311961D02*
X101361905Y-75216723D01*
X101361905Y-75216723D02*
X101314286Y-75026247D01*
X101314286Y-75026247D02*
X101314286Y-74883390D01*
X101314286Y-74883390D02*
X101361905Y-74692914D01*
X101361905Y-74692914D02*
X101409524Y-74597676D01*
X101409524Y-74597676D02*
X101504762Y-74502438D01*
X101504762Y-74502438D02*
X101647619Y-74454819D01*
X101647619Y-74454819D02*
X101742857Y-74454819D01*
X101742857Y-74454819D02*
X101885714Y-74502438D01*
X101885714Y-74502438D02*
X101933333Y-74550057D01*
X102790476Y-74788152D02*
X102790476Y-75454819D01*
X102552381Y-74407200D02*
X102314286Y-75121485D01*
X102314286Y-75121485D02*
X102933333Y-75121485D01*
X102454819Y-82376190D02*
X102454819Y-82947618D01*
X102454819Y-82661904D02*
X101454819Y-82661904D01*
X101454819Y-82661904D02*
X101597676Y-82757142D01*
X101597676Y-82757142D02*
X101692914Y-82852380D01*
X101692914Y-82852380D02*
X101740533Y-82947618D01*
X101788152Y-80757142D02*
X102454819Y-80757142D01*
X101788152Y-81185713D02*
X102311961Y-81185713D01*
X102311961Y-81185713D02*
X102407200Y-81138094D01*
X102407200Y-81138094D02*
X102454819Y-81042856D01*
X102454819Y-81042856D02*
X102454819Y-80899999D01*
X102454819Y-80899999D02*
X102407200Y-80804761D01*
X102407200Y-80804761D02*
X102359580Y-80757142D01*
X101931009Y-79947618D02*
X101931009Y-80280951D01*
X102454819Y-80280951D02*
X101454819Y-80280951D01*
X101454819Y-80280951D02*
X101454819Y-79804761D01*
X135404761Y-87559580D02*
X135357142Y-87607200D01*
X135357142Y-87607200D02*
X135214285Y-87654819D01*
X135214285Y-87654819D02*
X135119047Y-87654819D01*
X135119047Y-87654819D02*
X134976190Y-87607200D01*
X134976190Y-87607200D02*
X134880952Y-87511961D01*
X134880952Y-87511961D02*
X134833333Y-87416723D01*
X134833333Y-87416723D02*
X134785714Y-87226247D01*
X134785714Y-87226247D02*
X134785714Y-87083390D01*
X134785714Y-87083390D02*
X134833333Y-86892914D01*
X134833333Y-86892914D02*
X134880952Y-86797676D01*
X134880952Y-86797676D02*
X134976190Y-86702438D01*
X134976190Y-86702438D02*
X135119047Y-86654819D01*
X135119047Y-86654819D02*
X135214285Y-86654819D01*
X135214285Y-86654819D02*
X135357142Y-86702438D01*
X135357142Y-86702438D02*
X135404761Y-86750057D01*
X136309523Y-87654819D02*
X135833333Y-87654819D01*
X135833333Y-87654819D02*
X135833333Y-86654819D01*
X136642857Y-87654819D02*
X136642857Y-86654819D01*
X137214285Y-87654819D02*
X136785714Y-87083390D01*
X137214285Y-86654819D02*
X136642857Y-87226247D01*
X91690476Y-85954819D02*
X92023809Y-86954819D01*
X92023809Y-86954819D02*
X92357142Y-85954819D01*
X93261904Y-86859580D02*
X93214285Y-86907200D01*
X93214285Y-86907200D02*
X93071428Y-86954819D01*
X93071428Y-86954819D02*
X92976190Y-86954819D01*
X92976190Y-86954819D02*
X92833333Y-86907200D01*
X92833333Y-86907200D02*
X92738095Y-86811961D01*
X92738095Y-86811961D02*
X92690476Y-86716723D01*
X92690476Y-86716723D02*
X92642857Y-86526247D01*
X92642857Y-86526247D02*
X92642857Y-86383390D01*
X92642857Y-86383390D02*
X92690476Y-86192914D01*
X92690476Y-86192914D02*
X92738095Y-86097676D01*
X92738095Y-86097676D02*
X92833333Y-86002438D01*
X92833333Y-86002438D02*
X92976190Y-85954819D01*
X92976190Y-85954819D02*
X93071428Y-85954819D01*
X93071428Y-85954819D02*
X93214285Y-86002438D01*
X93214285Y-86002438D02*
X93261904Y-86050057D01*
X94261904Y-86859580D02*
X94214285Y-86907200D01*
X94214285Y-86907200D02*
X94071428Y-86954819D01*
X94071428Y-86954819D02*
X93976190Y-86954819D01*
X93976190Y-86954819D02*
X93833333Y-86907200D01*
X93833333Y-86907200D02*
X93738095Y-86811961D01*
X93738095Y-86811961D02*
X93690476Y-86716723D01*
X93690476Y-86716723D02*
X93642857Y-86526247D01*
X93642857Y-86526247D02*
X93642857Y-86383390D01*
X93642857Y-86383390D02*
X93690476Y-86192914D01*
X93690476Y-86192914D02*
X93738095Y-86097676D01*
X93738095Y-86097676D02*
X93833333Y-86002438D01*
X93833333Y-86002438D02*
X93976190Y-85954819D01*
X93976190Y-85954819D02*
X94071428Y-85954819D01*
X94071428Y-85954819D02*
X94214285Y-86002438D01*
X94214285Y-86002438D02*
X94261904Y-86050057D01*
X95166666Y-85954819D02*
X94690476Y-85954819D01*
X94690476Y-85954819D02*
X94642857Y-86431009D01*
X94642857Y-86431009D02*
X94690476Y-86383390D01*
X94690476Y-86383390D02*
X94785714Y-86335771D01*
X94785714Y-86335771D02*
X95023809Y-86335771D01*
X95023809Y-86335771D02*
X95119047Y-86383390D01*
X95119047Y-86383390D02*
X95166666Y-86431009D01*
X95166666Y-86431009D02*
X95214285Y-86526247D01*
X95214285Y-86526247D02*
X95214285Y-86764342D01*
X95214285Y-86764342D02*
X95166666Y-86859580D01*
X95166666Y-86859580D02*
X95119047Y-86907200D01*
X95119047Y-86907200D02*
X95023809Y-86954819D01*
X95023809Y-86954819D02*
X94785714Y-86954819D01*
X94785714Y-86954819D02*
X94690476Y-86907200D01*
X94690476Y-86907200D02*
X94642857Y-86859580D01*
X110666667Y-92907200D02*
X110809524Y-92954819D01*
X110809524Y-92954819D02*
X111047619Y-92954819D01*
X111047619Y-92954819D02*
X111142857Y-92907200D01*
X111142857Y-92907200D02*
X111190476Y-92859580D01*
X111190476Y-92859580D02*
X111238095Y-92764342D01*
X111238095Y-92764342D02*
X111238095Y-92669104D01*
X111238095Y-92669104D02*
X111190476Y-92573866D01*
X111190476Y-92573866D02*
X111142857Y-92526247D01*
X111142857Y-92526247D02*
X111047619Y-92478628D01*
X111047619Y-92478628D02*
X110857143Y-92431009D01*
X110857143Y-92431009D02*
X110761905Y-92383390D01*
X110761905Y-92383390D02*
X110714286Y-92335771D01*
X110714286Y-92335771D02*
X110666667Y-92240533D01*
X110666667Y-92240533D02*
X110666667Y-92145295D01*
X110666667Y-92145295D02*
X110714286Y-92050057D01*
X110714286Y-92050057D02*
X110761905Y-92002438D01*
X110761905Y-92002438D02*
X110857143Y-91954819D01*
X110857143Y-91954819D02*
X111095238Y-91954819D01*
X111095238Y-91954819D02*
X111238095Y-92002438D01*
X111571429Y-91954819D02*
X111809524Y-92954819D01*
X111809524Y-92954819D02*
X112000000Y-92240533D01*
X112000000Y-92240533D02*
X112190476Y-92954819D01*
X112190476Y-92954819D02*
X112428572Y-91954819D01*
X113333333Y-92954819D02*
X112761905Y-92954819D01*
X113047619Y-92954819D02*
X113047619Y-91954819D01*
X113047619Y-91954819D02*
X112952381Y-92097676D01*
X112952381Y-92097676D02*
X112857143Y-92192914D01*
X112857143Y-92192914D02*
X112761905Y-92240533D01*
X108925000Y-100757200D02*
X109067857Y-100804819D01*
X109067857Y-100804819D02*
X109305952Y-100804819D01*
X109305952Y-100804819D02*
X109401190Y-100757200D01*
X109401190Y-100757200D02*
X109448809Y-100709580D01*
X109448809Y-100709580D02*
X109496428Y-100614342D01*
X109496428Y-100614342D02*
X109496428Y-100519104D01*
X109496428Y-100519104D02*
X109448809Y-100423866D01*
X109448809Y-100423866D02*
X109401190Y-100376247D01*
X109401190Y-100376247D02*
X109305952Y-100328628D01*
X109305952Y-100328628D02*
X109115476Y-100281009D01*
X109115476Y-100281009D02*
X109020238Y-100233390D01*
X109020238Y-100233390D02*
X108972619Y-100185771D01*
X108972619Y-100185771D02*
X108925000Y-100090533D01*
X108925000Y-100090533D02*
X108925000Y-99995295D01*
X108925000Y-99995295D02*
X108972619Y-99900057D01*
X108972619Y-99900057D02*
X109020238Y-99852438D01*
X109020238Y-99852438D02*
X109115476Y-99804819D01*
X109115476Y-99804819D02*
X109353571Y-99804819D01*
X109353571Y-99804819D02*
X109496428Y-99852438D01*
X109829762Y-99804819D02*
X110067857Y-100804819D01*
X110067857Y-100804819D02*
X110258333Y-100090533D01*
X110258333Y-100090533D02*
X110448809Y-100804819D01*
X110448809Y-100804819D02*
X110686905Y-99804819D01*
X110829762Y-100900057D02*
X111591666Y-100900057D01*
X112401190Y-100804819D02*
X112067857Y-100328628D01*
X111829762Y-100804819D02*
X111829762Y-99804819D01*
X111829762Y-99804819D02*
X112210714Y-99804819D01*
X112210714Y-99804819D02*
X112305952Y-99852438D01*
X112305952Y-99852438D02*
X112353571Y-99900057D01*
X112353571Y-99900057D02*
X112401190Y-99995295D01*
X112401190Y-99995295D02*
X112401190Y-100138152D01*
X112401190Y-100138152D02*
X112353571Y-100233390D01*
X112353571Y-100233390D02*
X112305952Y-100281009D01*
X112305952Y-100281009D02*
X112210714Y-100328628D01*
X112210714Y-100328628D02*
X111829762Y-100328628D01*
X112829762Y-100281009D02*
X113163095Y-100281009D01*
X113305952Y-100804819D02*
X112829762Y-100804819D01*
X112829762Y-100804819D02*
X112829762Y-99804819D01*
X112829762Y-99804819D02*
X113305952Y-99804819D01*
X113686905Y-100757200D02*
X113829762Y-100804819D01*
X113829762Y-100804819D02*
X114067857Y-100804819D01*
X114067857Y-100804819D02*
X114163095Y-100757200D01*
X114163095Y-100757200D02*
X114210714Y-100709580D01*
X114210714Y-100709580D02*
X114258333Y-100614342D01*
X114258333Y-100614342D02*
X114258333Y-100519104D01*
X114258333Y-100519104D02*
X114210714Y-100423866D01*
X114210714Y-100423866D02*
X114163095Y-100376247D01*
X114163095Y-100376247D02*
X114067857Y-100328628D01*
X114067857Y-100328628D02*
X113877381Y-100281009D01*
X113877381Y-100281009D02*
X113782143Y-100233390D01*
X113782143Y-100233390D02*
X113734524Y-100185771D01*
X113734524Y-100185771D02*
X113686905Y-100090533D01*
X113686905Y-100090533D02*
X113686905Y-99995295D01*
X113686905Y-99995295D02*
X113734524Y-99900057D01*
X113734524Y-99900057D02*
X113782143Y-99852438D01*
X113782143Y-99852438D02*
X113877381Y-99804819D01*
X113877381Y-99804819D02*
X114115476Y-99804819D01*
X114115476Y-99804819D02*
X114258333Y-99852438D01*
X114686905Y-100281009D02*
X115020238Y-100281009D01*
X115163095Y-100804819D02*
X114686905Y-100804819D01*
X114686905Y-100804819D02*
X114686905Y-99804819D01*
X114686905Y-99804819D02*
X115163095Y-99804819D01*
X115448810Y-99804819D02*
X116020238Y-99804819D01*
X115734524Y-100804819D02*
X115734524Y-99804819D01*
X102254819Y-100333333D02*
X102969104Y-100333333D01*
X102969104Y-100333333D02*
X103111961Y-100380952D01*
X103111961Y-100380952D02*
X103207200Y-100476190D01*
X103207200Y-100476190D02*
X103254819Y-100619047D01*
X103254819Y-100619047D02*
X103254819Y-100714285D01*
X103254819Y-99857142D02*
X102254819Y-99857142D01*
X102254819Y-99857142D02*
X102254819Y-99476190D01*
X102254819Y-99476190D02*
X102302438Y-99380952D01*
X102302438Y-99380952D02*
X102350057Y-99333333D01*
X102350057Y-99333333D02*
X102445295Y-99285714D01*
X102445295Y-99285714D02*
X102588152Y-99285714D01*
X102588152Y-99285714D02*
X102683390Y-99333333D01*
X102683390Y-99333333D02*
X102731009Y-99380952D01*
X102731009Y-99380952D02*
X102778628Y-99476190D01*
X102778628Y-99476190D02*
X102778628Y-99857142D01*
X103254819Y-98333333D02*
X103254819Y-98904761D01*
X103254819Y-98619047D02*
X102254819Y-98619047D01*
X102254819Y-98619047D02*
X102397676Y-98714285D01*
X102397676Y-98714285D02*
X102492914Y-98809523D01*
X102492914Y-98809523D02*
X102540533Y-98904761D01*
X106254819Y-104595238D02*
X106969104Y-104595238D01*
X106969104Y-104595238D02*
X107111961Y-104642857D01*
X107111961Y-104642857D02*
X107207200Y-104738095D01*
X107207200Y-104738095D02*
X107254819Y-104880952D01*
X107254819Y-104880952D02*
X107254819Y-104976190D01*
X107254819Y-104119047D02*
X106254819Y-104119047D01*
X106254819Y-104119047D02*
X106254819Y-103738095D01*
X106254819Y-103738095D02*
X106302438Y-103642857D01*
X106302438Y-103642857D02*
X106350057Y-103595238D01*
X106350057Y-103595238D02*
X106445295Y-103547619D01*
X106445295Y-103547619D02*
X106588152Y-103547619D01*
X106588152Y-103547619D02*
X106683390Y-103595238D01*
X106683390Y-103595238D02*
X106731009Y-103642857D01*
X106731009Y-103642857D02*
X106778628Y-103738095D01*
X106778628Y-103738095D02*
X106778628Y-104119047D01*
X107350057Y-103357143D02*
X107350057Y-102595238D01*
X107254819Y-102357142D02*
X106254819Y-102357142D01*
X106254819Y-102357142D02*
X106254819Y-101976190D01*
X106254819Y-101976190D02*
X106302438Y-101880952D01*
X106302438Y-101880952D02*
X106350057Y-101833333D01*
X106350057Y-101833333D02*
X106445295Y-101785714D01*
X106445295Y-101785714D02*
X106588152Y-101785714D01*
X106588152Y-101785714D02*
X106683390Y-101833333D01*
X106683390Y-101833333D02*
X106731009Y-101880952D01*
X106731009Y-101880952D02*
X106778628Y-101976190D01*
X106778628Y-101976190D02*
X106778628Y-102357142D01*
X107254819Y-100880952D02*
X107254819Y-101357142D01*
X107254819Y-101357142D02*
X106254819Y-101357142D01*
X106731009Y-100547618D02*
X106731009Y-100214285D01*
X107254819Y-100071428D02*
X107254819Y-100547618D01*
X107254819Y-100547618D02*
X106254819Y-100547618D01*
X106254819Y-100547618D02*
X106254819Y-100071428D01*
X107254819Y-99642856D02*
X106254819Y-99642856D01*
X106254819Y-99642856D02*
X106254819Y-99404761D01*
X106254819Y-99404761D02*
X106302438Y-99261904D01*
X106302438Y-99261904D02*
X106397676Y-99166666D01*
X106397676Y-99166666D02*
X106492914Y-99119047D01*
X106492914Y-99119047D02*
X106683390Y-99071428D01*
X106683390Y-99071428D02*
X106826247Y-99071428D01*
X106826247Y-99071428D02*
X107016723Y-99119047D01*
X107016723Y-99119047D02*
X107111961Y-99166666D01*
X107111961Y-99166666D02*
X107207200Y-99261904D01*
X107207200Y-99261904D02*
X107254819Y-99404761D01*
X107254819Y-99404761D02*
X107254819Y-99642856D01*
X98783333Y-103284819D02*
X98450000Y-102808628D01*
X98211905Y-103284819D02*
X98211905Y-102284819D01*
X98211905Y-102284819D02*
X98592857Y-102284819D01*
X98592857Y-102284819D02*
X98688095Y-102332438D01*
X98688095Y-102332438D02*
X98735714Y-102380057D01*
X98735714Y-102380057D02*
X98783333Y-102475295D01*
X98783333Y-102475295D02*
X98783333Y-102618152D01*
X98783333Y-102618152D02*
X98735714Y-102713390D01*
X98735714Y-102713390D02*
X98688095Y-102761009D01*
X98688095Y-102761009D02*
X98592857Y-102808628D01*
X98592857Y-102808628D02*
X98211905Y-102808628D01*
X99116667Y-102284819D02*
X99735714Y-102284819D01*
X99735714Y-102284819D02*
X99402381Y-102665771D01*
X99402381Y-102665771D02*
X99545238Y-102665771D01*
X99545238Y-102665771D02*
X99640476Y-102713390D01*
X99640476Y-102713390D02*
X99688095Y-102761009D01*
X99688095Y-102761009D02*
X99735714Y-102856247D01*
X99735714Y-102856247D02*
X99735714Y-103094342D01*
X99735714Y-103094342D02*
X99688095Y-103189580D01*
X99688095Y-103189580D02*
X99640476Y-103237200D01*
X99640476Y-103237200D02*
X99545238Y-103284819D01*
X99545238Y-103284819D02*
X99259524Y-103284819D01*
X99259524Y-103284819D02*
X99164286Y-103237200D01*
X99164286Y-103237200D02*
X99116667Y-103189580D01*
X97664286Y-98624819D02*
X98283333Y-98624819D01*
X98283333Y-98624819D02*
X97950000Y-99005771D01*
X97950000Y-99005771D02*
X98092857Y-99005771D01*
X98092857Y-99005771D02*
X98188095Y-99053390D01*
X98188095Y-99053390D02*
X98235714Y-99101009D01*
X98235714Y-99101009D02*
X98283333Y-99196247D01*
X98283333Y-99196247D02*
X98283333Y-99434342D01*
X98283333Y-99434342D02*
X98235714Y-99529580D01*
X98235714Y-99529580D02*
X98188095Y-99577200D01*
X98188095Y-99577200D02*
X98092857Y-99624819D01*
X98092857Y-99624819D02*
X97807143Y-99624819D01*
X97807143Y-99624819D02*
X97711905Y-99577200D01*
X97711905Y-99577200D02*
X97664286Y-99529580D01*
X98616667Y-98624819D02*
X99235714Y-98624819D01*
X99235714Y-98624819D02*
X98902381Y-99005771D01*
X98902381Y-99005771D02*
X99045238Y-99005771D01*
X99045238Y-99005771D02*
X99140476Y-99053390D01*
X99140476Y-99053390D02*
X99188095Y-99101009D01*
X99188095Y-99101009D02*
X99235714Y-99196247D01*
X99235714Y-99196247D02*
X99235714Y-99434342D01*
X99235714Y-99434342D02*
X99188095Y-99529580D01*
X99188095Y-99529580D02*
X99140476Y-99577200D01*
X99140476Y-99577200D02*
X99045238Y-99624819D01*
X99045238Y-99624819D02*
X98759524Y-99624819D01*
X98759524Y-99624819D02*
X98664286Y-99577200D01*
X98664286Y-99577200D02*
X98616667Y-99529580D01*
X99854762Y-98624819D02*
X99950000Y-98624819D01*
X99950000Y-98624819D02*
X100045238Y-98672438D01*
X100045238Y-98672438D02*
X100092857Y-98720057D01*
X100092857Y-98720057D02*
X100140476Y-98815295D01*
X100140476Y-98815295D02*
X100188095Y-99005771D01*
X100188095Y-99005771D02*
X100188095Y-99243866D01*
X100188095Y-99243866D02*
X100140476Y-99434342D01*
X100140476Y-99434342D02*
X100092857Y-99529580D01*
X100092857Y-99529580D02*
X100045238Y-99577200D01*
X100045238Y-99577200D02*
X99950000Y-99624819D01*
X99950000Y-99624819D02*
X99854762Y-99624819D01*
X99854762Y-99624819D02*
X99759524Y-99577200D01*
X99759524Y-99577200D02*
X99711905Y-99529580D01*
X99711905Y-99529580D02*
X99664286Y-99434342D01*
X99664286Y-99434342D02*
X99616667Y-99243866D01*
X99616667Y-99243866D02*
X99616667Y-99005771D01*
X99616667Y-99005771D02*
X99664286Y-98815295D01*
X99664286Y-98815295D02*
X99711905Y-98720057D01*
X99711905Y-98720057D02*
X99759524Y-98672438D01*
X99759524Y-98672438D02*
X99854762Y-98624819D01*
X97566666Y-73674819D02*
X97566666Y-74389104D01*
X97566666Y-74389104D02*
X97519047Y-74531961D01*
X97519047Y-74531961D02*
X97423809Y-74627200D01*
X97423809Y-74627200D02*
X97280952Y-74674819D01*
X97280952Y-74674819D02*
X97185714Y-74674819D01*
X98042857Y-74674819D02*
X98042857Y-73674819D01*
X98042857Y-73674819D02*
X98423809Y-73674819D01*
X98423809Y-73674819D02*
X98519047Y-73722438D01*
X98519047Y-73722438D02*
X98566666Y-73770057D01*
X98566666Y-73770057D02*
X98614285Y-73865295D01*
X98614285Y-73865295D02*
X98614285Y-74008152D01*
X98614285Y-74008152D02*
X98566666Y-74103390D01*
X98566666Y-74103390D02*
X98519047Y-74151009D01*
X98519047Y-74151009D02*
X98423809Y-74198628D01*
X98423809Y-74198628D02*
X98042857Y-74198628D01*
X98995238Y-73770057D02*
X99042857Y-73722438D01*
X99042857Y-73722438D02*
X99138095Y-73674819D01*
X99138095Y-73674819D02*
X99376190Y-73674819D01*
X99376190Y-73674819D02*
X99471428Y-73722438D01*
X99471428Y-73722438D02*
X99519047Y-73770057D01*
X99519047Y-73770057D02*
X99566666Y-73865295D01*
X99566666Y-73865295D02*
X99566666Y-73960533D01*
X99566666Y-73960533D02*
X99519047Y-74103390D01*
X99519047Y-74103390D02*
X98947619Y-74674819D01*
X98947619Y-74674819D02*
X99566666Y-74674819D01*
X82966666Y-94254819D02*
X82966666Y-94969104D01*
X82966666Y-94969104D02*
X82919047Y-95111961D01*
X82919047Y-95111961D02*
X82823809Y-95207200D01*
X82823809Y-95207200D02*
X82680952Y-95254819D01*
X82680952Y-95254819D02*
X82585714Y-95254819D01*
X83347619Y-94254819D02*
X83966666Y-94254819D01*
X83966666Y-94254819D02*
X83633333Y-94635771D01*
X83633333Y-94635771D02*
X83776190Y-94635771D01*
X83776190Y-94635771D02*
X83871428Y-94683390D01*
X83871428Y-94683390D02*
X83919047Y-94731009D01*
X83919047Y-94731009D02*
X83966666Y-94826247D01*
X83966666Y-94826247D02*
X83966666Y-95064342D01*
X83966666Y-95064342D02*
X83919047Y-95159580D01*
X83919047Y-95159580D02*
X83871428Y-95207200D01*
X83871428Y-95207200D02*
X83776190Y-95254819D01*
X83776190Y-95254819D02*
X83490476Y-95254819D01*
X83490476Y-95254819D02*
X83395238Y-95207200D01*
X83395238Y-95207200D02*
X83347619Y-95159580D01*
X91066667Y-68954819D02*
X91400000Y-69954819D01*
X91400000Y-69954819D02*
X91733333Y-68954819D01*
X92638095Y-69859580D02*
X92590476Y-69907200D01*
X92590476Y-69907200D02*
X92447619Y-69954819D01*
X92447619Y-69954819D02*
X92352381Y-69954819D01*
X92352381Y-69954819D02*
X92209524Y-69907200D01*
X92209524Y-69907200D02*
X92114286Y-69811961D01*
X92114286Y-69811961D02*
X92066667Y-69716723D01*
X92066667Y-69716723D02*
X92019048Y-69526247D01*
X92019048Y-69526247D02*
X92019048Y-69383390D01*
X92019048Y-69383390D02*
X92066667Y-69192914D01*
X92066667Y-69192914D02*
X92114286Y-69097676D01*
X92114286Y-69097676D02*
X92209524Y-69002438D01*
X92209524Y-69002438D02*
X92352381Y-68954819D01*
X92352381Y-68954819D02*
X92447619Y-68954819D01*
X92447619Y-68954819D02*
X92590476Y-69002438D01*
X92590476Y-69002438D02*
X92638095Y-69050057D01*
X93638095Y-69859580D02*
X93590476Y-69907200D01*
X93590476Y-69907200D02*
X93447619Y-69954819D01*
X93447619Y-69954819D02*
X93352381Y-69954819D01*
X93352381Y-69954819D02*
X93209524Y-69907200D01*
X93209524Y-69907200D02*
X93114286Y-69811961D01*
X93114286Y-69811961D02*
X93066667Y-69716723D01*
X93066667Y-69716723D02*
X93019048Y-69526247D01*
X93019048Y-69526247D02*
X93019048Y-69383390D01*
X93019048Y-69383390D02*
X93066667Y-69192914D01*
X93066667Y-69192914D02*
X93114286Y-69097676D01*
X93114286Y-69097676D02*
X93209524Y-69002438D01*
X93209524Y-69002438D02*
X93352381Y-68954819D01*
X93352381Y-68954819D02*
X93447619Y-68954819D01*
X93447619Y-68954819D02*
X93590476Y-69002438D01*
X93590476Y-69002438D02*
X93638095Y-69050057D01*
X134454819Y-103133333D02*
X135169104Y-103133333D01*
X135169104Y-103133333D02*
X135311961Y-103180952D01*
X135311961Y-103180952D02*
X135407200Y-103276190D01*
X135407200Y-103276190D02*
X135454819Y-103419047D01*
X135454819Y-103419047D02*
X135454819Y-103514285D01*
X135454819Y-102657142D02*
X134454819Y-102657142D01*
X134454819Y-102657142D02*
X134454819Y-102276190D01*
X134454819Y-102276190D02*
X134502438Y-102180952D01*
X134502438Y-102180952D02*
X134550057Y-102133333D01*
X134550057Y-102133333D02*
X134645295Y-102085714D01*
X134645295Y-102085714D02*
X134788152Y-102085714D01*
X134788152Y-102085714D02*
X134883390Y-102133333D01*
X134883390Y-102133333D02*
X134931009Y-102180952D01*
X134931009Y-102180952D02*
X134978628Y-102276190D01*
X134978628Y-102276190D02*
X134978628Y-102657142D01*
X134454819Y-101752380D02*
X134454819Y-101133333D01*
X134454819Y-101133333D02*
X134835771Y-101466666D01*
X134835771Y-101466666D02*
X134835771Y-101323809D01*
X134835771Y-101323809D02*
X134883390Y-101228571D01*
X134883390Y-101228571D02*
X134931009Y-101180952D01*
X134931009Y-101180952D02*
X135026247Y-101133333D01*
X135026247Y-101133333D02*
X135264342Y-101133333D01*
X135264342Y-101133333D02*
X135359580Y-101180952D01*
X135359580Y-101180952D02*
X135407200Y-101228571D01*
X135407200Y-101228571D02*
X135454819Y-101323809D01*
X135454819Y-101323809D02*
X135454819Y-101609523D01*
X135454819Y-101609523D02*
X135407200Y-101704761D01*
X135407200Y-101704761D02*
X135359580Y-101752380D01*
X130454819Y-104841428D02*
X131169104Y-104841428D01*
X131169104Y-104841428D02*
X131311961Y-104889047D01*
X131311961Y-104889047D02*
X131407200Y-104984285D01*
X131407200Y-104984285D02*
X131454819Y-105127142D01*
X131454819Y-105127142D02*
X131454819Y-105222380D01*
X131454819Y-104365237D02*
X130454819Y-104365237D01*
X130454819Y-104365237D02*
X130454819Y-103984285D01*
X130454819Y-103984285D02*
X130502438Y-103889047D01*
X130502438Y-103889047D02*
X130550057Y-103841428D01*
X130550057Y-103841428D02*
X130645295Y-103793809D01*
X130645295Y-103793809D02*
X130788152Y-103793809D01*
X130788152Y-103793809D02*
X130883390Y-103841428D01*
X130883390Y-103841428D02*
X130931009Y-103889047D01*
X130931009Y-103889047D02*
X130978628Y-103984285D01*
X130978628Y-103984285D02*
X130978628Y-104365237D01*
X131550057Y-103603333D02*
X131550057Y-102841428D01*
X131407200Y-102650951D02*
X131454819Y-102508094D01*
X131454819Y-102508094D02*
X131454819Y-102269999D01*
X131454819Y-102269999D02*
X131407200Y-102174761D01*
X131407200Y-102174761D02*
X131359580Y-102127142D01*
X131359580Y-102127142D02*
X131264342Y-102079523D01*
X131264342Y-102079523D02*
X131169104Y-102079523D01*
X131169104Y-102079523D02*
X131073866Y-102127142D01*
X131073866Y-102127142D02*
X131026247Y-102174761D01*
X131026247Y-102174761D02*
X130978628Y-102269999D01*
X130978628Y-102269999D02*
X130931009Y-102460475D01*
X130931009Y-102460475D02*
X130883390Y-102555713D01*
X130883390Y-102555713D02*
X130835771Y-102603332D01*
X130835771Y-102603332D02*
X130740533Y-102650951D01*
X130740533Y-102650951D02*
X130645295Y-102650951D01*
X130645295Y-102650951D02*
X130550057Y-102603332D01*
X130550057Y-102603332D02*
X130502438Y-102555713D01*
X130502438Y-102555713D02*
X130454819Y-102460475D01*
X130454819Y-102460475D02*
X130454819Y-102222380D01*
X130454819Y-102222380D02*
X130502438Y-102079523D01*
X131454819Y-101174761D02*
X131454819Y-101650951D01*
X131454819Y-101650951D02*
X130454819Y-101650951D01*
X130931009Y-100841427D02*
X130931009Y-100508094D01*
X131454819Y-100365237D02*
X131454819Y-100841427D01*
X131454819Y-100841427D02*
X130454819Y-100841427D01*
X130454819Y-100841427D02*
X130454819Y-100365237D01*
X131454819Y-99936665D02*
X130454819Y-99936665D01*
X130454819Y-99936665D02*
X130454819Y-99698570D01*
X130454819Y-99698570D02*
X130502438Y-99555713D01*
X130502438Y-99555713D02*
X130597676Y-99460475D01*
X130597676Y-99460475D02*
X130692914Y-99412856D01*
X130692914Y-99412856D02*
X130883390Y-99365237D01*
X130883390Y-99365237D02*
X131026247Y-99365237D01*
X131026247Y-99365237D02*
X131216723Y-99412856D01*
X131216723Y-99412856D02*
X131311961Y-99460475D01*
X131311961Y-99460475D02*
X131407200Y-99555713D01*
X131407200Y-99555713D02*
X131454819Y-99698570D01*
X131454819Y-99698570D02*
X131454819Y-99936665D01*
X96261905Y-85274819D02*
X96261905Y-84274819D01*
X96261905Y-84274819D02*
X96500000Y-84274819D01*
X96500000Y-84274819D02*
X96642857Y-84322438D01*
X96642857Y-84322438D02*
X96738095Y-84417676D01*
X96738095Y-84417676D02*
X96785714Y-84512914D01*
X96785714Y-84512914D02*
X96833333Y-84703390D01*
X96833333Y-84703390D02*
X96833333Y-84846247D01*
X96833333Y-84846247D02*
X96785714Y-85036723D01*
X96785714Y-85036723D02*
X96738095Y-85131961D01*
X96738095Y-85131961D02*
X96642857Y-85227200D01*
X96642857Y-85227200D02*
X96500000Y-85274819D01*
X96500000Y-85274819D02*
X96261905Y-85274819D01*
X97690476Y-84608152D02*
X97690476Y-85274819D01*
X97452381Y-84227200D02*
X97214286Y-84941485D01*
X97214286Y-84941485D02*
X97833333Y-84941485D01*
X99885714Y-85207200D02*
X100028571Y-85254819D01*
X100028571Y-85254819D02*
X100266666Y-85254819D01*
X100266666Y-85254819D02*
X100361904Y-85207200D01*
X100361904Y-85207200D02*
X100409523Y-85159580D01*
X100409523Y-85159580D02*
X100457142Y-85064342D01*
X100457142Y-85064342D02*
X100457142Y-84969104D01*
X100457142Y-84969104D02*
X100409523Y-84873866D01*
X100409523Y-84873866D02*
X100361904Y-84826247D01*
X100361904Y-84826247D02*
X100266666Y-84778628D01*
X100266666Y-84778628D02*
X100076190Y-84731009D01*
X100076190Y-84731009D02*
X99980952Y-84683390D01*
X99980952Y-84683390D02*
X99933333Y-84635771D01*
X99933333Y-84635771D02*
X99885714Y-84540533D01*
X99885714Y-84540533D02*
X99885714Y-84445295D01*
X99885714Y-84445295D02*
X99933333Y-84350057D01*
X99933333Y-84350057D02*
X99980952Y-84302438D01*
X99980952Y-84302438D02*
X100076190Y-84254819D01*
X100076190Y-84254819D02*
X100314285Y-84254819D01*
X100314285Y-84254819D02*
X100457142Y-84302438D01*
X100838095Y-85207200D02*
X100980952Y-85254819D01*
X100980952Y-85254819D02*
X101219047Y-85254819D01*
X101219047Y-85254819D02*
X101314285Y-85207200D01*
X101314285Y-85207200D02*
X101361904Y-85159580D01*
X101361904Y-85159580D02*
X101409523Y-85064342D01*
X101409523Y-85064342D02*
X101409523Y-84969104D01*
X101409523Y-84969104D02*
X101361904Y-84873866D01*
X101361904Y-84873866D02*
X101314285Y-84826247D01*
X101314285Y-84826247D02*
X101219047Y-84778628D01*
X101219047Y-84778628D02*
X101028571Y-84731009D01*
X101028571Y-84731009D02*
X100933333Y-84683390D01*
X100933333Y-84683390D02*
X100885714Y-84635771D01*
X100885714Y-84635771D02*
X100838095Y-84540533D01*
X100838095Y-84540533D02*
X100838095Y-84445295D01*
X100838095Y-84445295D02*
X100885714Y-84350057D01*
X100885714Y-84350057D02*
X100933333Y-84302438D01*
X100933333Y-84302438D02*
X101028571Y-84254819D01*
X101028571Y-84254819D02*
X101266666Y-84254819D01*
X101266666Y-84254819D02*
X101409523Y-84302438D01*
X102361904Y-85254819D02*
X101790476Y-85254819D01*
X102076190Y-85254819D02*
X102076190Y-84254819D01*
X102076190Y-84254819D02*
X101980952Y-84397676D01*
X101980952Y-84397676D02*
X101885714Y-84492914D01*
X101885714Y-84492914D02*
X101790476Y-84540533D01*
X103219047Y-84588152D02*
X103219047Y-85254819D01*
X102980952Y-84207200D02*
X102742857Y-84921485D01*
X102742857Y-84921485D02*
X103361904Y-84921485D01*
X121085714Y-90302438D02*
X120990476Y-90254819D01*
X120990476Y-90254819D02*
X120847619Y-90254819D01*
X120847619Y-90254819D02*
X120704762Y-90302438D01*
X120704762Y-90302438D02*
X120609524Y-90397676D01*
X120609524Y-90397676D02*
X120561905Y-90492914D01*
X120561905Y-90492914D02*
X120514286Y-90683390D01*
X120514286Y-90683390D02*
X120514286Y-90826247D01*
X120514286Y-90826247D02*
X120561905Y-91016723D01*
X120561905Y-91016723D02*
X120609524Y-91111961D01*
X120609524Y-91111961D02*
X120704762Y-91207200D01*
X120704762Y-91207200D02*
X120847619Y-91254819D01*
X120847619Y-91254819D02*
X120942857Y-91254819D01*
X120942857Y-91254819D02*
X121085714Y-91207200D01*
X121085714Y-91207200D02*
X121133333Y-91159580D01*
X121133333Y-91159580D02*
X121133333Y-90826247D01*
X121133333Y-90826247D02*
X120942857Y-90826247D01*
X121561905Y-91254819D02*
X121561905Y-90254819D01*
X121561905Y-90254819D02*
X121942857Y-90254819D01*
X121942857Y-90254819D02*
X122038095Y-90302438D01*
X122038095Y-90302438D02*
X122085714Y-90350057D01*
X122085714Y-90350057D02*
X122133333Y-90445295D01*
X122133333Y-90445295D02*
X122133333Y-90588152D01*
X122133333Y-90588152D02*
X122085714Y-90683390D01*
X122085714Y-90683390D02*
X122038095Y-90731009D01*
X122038095Y-90731009D02*
X121942857Y-90778628D01*
X121942857Y-90778628D02*
X121561905Y-90778628D01*
X123038095Y-90254819D02*
X122561905Y-90254819D01*
X122561905Y-90254819D02*
X122514286Y-90731009D01*
X122514286Y-90731009D02*
X122561905Y-90683390D01*
X122561905Y-90683390D02*
X122657143Y-90635771D01*
X122657143Y-90635771D02*
X122895238Y-90635771D01*
X122895238Y-90635771D02*
X122990476Y-90683390D01*
X122990476Y-90683390D02*
X123038095Y-90731009D01*
X123038095Y-90731009D02*
X123085714Y-90826247D01*
X123085714Y-90826247D02*
X123085714Y-91064342D01*
X123085714Y-91064342D02*
X123038095Y-91159580D01*
X123038095Y-91159580D02*
X122990476Y-91207200D01*
X122990476Y-91207200D02*
X122895238Y-91254819D01*
X122895238Y-91254819D02*
X122657143Y-91254819D01*
X122657143Y-91254819D02*
X122561905Y-91207200D01*
X122561905Y-91207200D02*
X122514286Y-91159580D01*
%TO.C,TP7*%
D13*
X130750000Y-77000000D02*
G75*
G02*
X128850000Y-77000000I-950000J0D01*
G01*
X128850000Y-77000000D02*
G75*
G02*
X130750000Y-77000000I950000J0D01*
G01*
%TO.C,D2*%
X119110000Y-102364000D02*
X119110000Y-102520000D01*
X119110000Y-104680000D02*
X119110000Y-104836000D01*
X119110000Y-102364484D02*
G75*
G02*
X122341437Y-102520000I1560000J-1235516D01*
G01*
X119629039Y-102520000D02*
G75*
G02*
X121710961Y-102520000I1040961J-1080000D01*
G01*
X121710961Y-104680000D02*
G75*
G02*
X119629039Y-104680000I-1040961J1080000D01*
G01*
X122341437Y-104680000D02*
G75*
G02*
X119110000Y-104835516I-1671437J1080000D01*
G01*
%TO.C,R2*%
X113090000Y-88472936D02*
X113090000Y-89927064D01*
X114910000Y-88472936D02*
X114910000Y-89927064D01*
%TO.C,U2*%
D10*
X96970000Y-91460000D02*
X96970000Y-94110000D01*
X96970000Y-94110000D02*
X98120000Y-94110000D01*
X101630000Y-91460000D02*
X101630000Y-94110000D01*
X101630000Y-94110000D02*
X100480000Y-94110000D01*
D14*
X101580000Y-90440000D02*
G75*
G02*
X101520000Y-90440000I-30000J0D01*
G01*
X101520000Y-90440000D02*
G75*
G02*
X101580000Y-90440000I30000J0D01*
G01*
%TO.C,U4*%
D10*
X114270000Y-76070000D02*
X115310000Y-76070000D01*
X114270000Y-77530000D02*
X114270000Y-76070000D01*
X116260000Y-77530000D02*
X115340000Y-77530000D01*
X117330000Y-76070000D02*
X116290000Y-76070000D01*
X117330000Y-77530000D02*
X117330000Y-76070000D01*
D14*
X114380000Y-78000000D02*
G75*
G02*
X114320000Y-78000000I-30000J0D01*
G01*
X114320000Y-78000000D02*
G75*
G02*
X114380000Y-78000000I30000J0D01*
G01*
%TO.C,TP4*%
D13*
X104350000Y-72000000D02*
G75*
G02*
X102450000Y-72000000I-950000J0D01*
G01*
X102450000Y-72000000D02*
G75*
G02*
X104350000Y-72000000I950000J0D01*
G01*
%TO.C,C5*%
D10*
X127230000Y-82940000D02*
X127230000Y-81440000D01*
X127380000Y-81290000D02*
X128790000Y-81290000D01*
X128790000Y-83090000D02*
X127380000Y-83090000D01*
X129590000Y-83090000D02*
X131000000Y-83090000D01*
X131000000Y-81290000D02*
X129590000Y-81290000D01*
X131150000Y-82940000D02*
X131150000Y-81440000D01*
X127230000Y-81440000D02*
G75*
G02*
X127380000Y-81290000I150000J0D01*
G01*
X127380000Y-83090000D02*
G75*
G02*
X127230000Y-82940000I0J150000D01*
G01*
X131000000Y-81290000D02*
G75*
G02*
X131150000Y-81440000I0J-150000D01*
G01*
X131150000Y-82940000D02*
G75*
G02*
X131000000Y-83090000I-150000J0D01*
G01*
%TO.C,U3*%
X106270000Y-75270000D02*
X106270000Y-76310000D01*
X106270000Y-78330000D02*
X106270000Y-77290000D01*
X107730000Y-75270000D02*
X106270000Y-75270000D01*
X107730000Y-76340000D02*
X107730000Y-77260000D01*
X107730000Y-78330000D02*
X106270000Y-78330000D01*
D14*
X108230000Y-78250000D02*
G75*
G02*
X108170000Y-78250000I-30000J0D01*
G01*
X108170000Y-78250000D02*
G75*
G02*
X108230000Y-78250000I30000J0D01*
G01*
%TO.C,TP10*%
D13*
X140350000Y-92400000D02*
G75*
G02*
X138450000Y-92400000I-950000J0D01*
G01*
X138450000Y-92400000D02*
G75*
G02*
X140350000Y-92400000I950000J0D01*
G01*
%TO.C,C2*%
D10*
X102800000Y-91720000D02*
X102800000Y-90310000D01*
X102800000Y-92520000D02*
X102800000Y-93930000D01*
X102950000Y-90160000D02*
X104450000Y-90160000D01*
X102950000Y-94080000D02*
X104450000Y-94080000D01*
X104600000Y-90310000D02*
X104600000Y-91720000D01*
X104600000Y-93930000D02*
X104600000Y-92520000D01*
X102800000Y-90310000D02*
G75*
G02*
X102950000Y-90160000I150000J0D01*
G01*
X102950000Y-94080000D02*
G75*
G02*
X102800000Y-93930000I0J150000D01*
G01*
X104450000Y-90160000D02*
G75*
G02*
X104600000Y-90310000I0J-150000D01*
G01*
X104600000Y-93930000D02*
G75*
G02*
X104450000Y-94080000I-150000J0D01*
G01*
%TO.C,TP6*%
D13*
X86950000Y-98800000D02*
G75*
G02*
X85050000Y-98800000I-950000J0D01*
G01*
X85050000Y-98800000D02*
G75*
G02*
X86950000Y-98800000I950000J0D01*
G01*
%TO.C,D1*%
X91610000Y-74550000D02*
X84600000Y-74550000D01*
X91610000Y-77850000D02*
X84600000Y-77850000D01*
X91610000Y-77850000D02*
X91610000Y-74550000D01*
%TO.C,J2*%
X120740000Y-73780000D02*
X120740000Y-72400000D01*
X122120000Y-73780000D02*
X120740000Y-73780000D01*
X123390000Y-71020000D02*
X136200000Y-71020000D01*
X123390000Y-73780000D02*
X123390000Y-71020000D01*
X123390000Y-73780000D02*
X136200000Y-73780000D01*
X136200000Y-73780000D02*
X136200000Y-71020000D01*
%TO.C,TP2*%
X129350000Y-99800000D02*
G75*
G02*
X127450000Y-99800000I-950000J0D01*
G01*
X127450000Y-99800000D02*
G75*
G02*
X129350000Y-99800000I950000J0D01*
G01*
%TO.C,TP9*%
X133950000Y-97800000D02*
G75*
G02*
X132050000Y-97800000I-950000J0D01*
G01*
X132050000Y-97800000D02*
G75*
G02*
X133950000Y-97800000I950000J0D01*
G01*
%TO.C,C3*%
D10*
X110100000Y-76400000D02*
X110100000Y-74990000D01*
X110100000Y-77200000D02*
X110100000Y-78610000D01*
X110250000Y-74840000D02*
X111750000Y-74840000D01*
X110250000Y-78760000D02*
X111750000Y-78760000D01*
X111900000Y-74990000D02*
X111900000Y-76400000D01*
X111900000Y-78610000D02*
X111900000Y-77200000D01*
X110100000Y-74990000D02*
G75*
G02*
X110250000Y-74840000I150000J0D01*
G01*
X110250000Y-78760000D02*
G75*
G02*
X110100000Y-78610000I0J150000D01*
G01*
X111750000Y-74840000D02*
G75*
G02*
X111900000Y-74990000I0J-150000D01*
G01*
X111900000Y-78610000D02*
G75*
G02*
X111750000Y-78760000I-150000J0D01*
G01*
%TO.C,J4*%
D13*
X143620000Y-80420000D02*
X145000000Y-80420000D01*
X143620000Y-81800000D02*
X143620000Y-80420000D01*
X143620000Y-83070000D02*
X143620000Y-98420000D01*
X143620000Y-83070000D02*
X146380000Y-83070000D01*
X143620000Y-98420000D02*
X146380000Y-98420000D01*
X146380000Y-83070000D02*
X146380000Y-98420000D01*
%TO.C,U1*%
X126350000Y-84660000D02*
X126350000Y-94940000D01*
X126350000Y-94940000D02*
X131650000Y-94940000D01*
X128000000Y-84660000D02*
X126350000Y-84660000D01*
X131650000Y-84660000D02*
X130000000Y-84660000D01*
X131650000Y-94940000D02*
X131650000Y-84660000D01*
X130000000Y-84660000D02*
G75*
G02*
X128000000Y-84660000I-1000000J0D01*
G01*
%TO.C,TP1*%
X110350000Y-87600000D02*
G75*
G02*
X108450000Y-87600000I-950000J0D01*
G01*
X108450000Y-87600000D02*
G75*
G02*
X110350000Y-87600000I950000J0D01*
G01*
%TO.C,R1*%
X127877064Y-102690000D02*
X126422936Y-102690000D01*
X127877064Y-104510000D02*
X126422936Y-104510000D01*
%TO.C,D3*%
X89310000Y-99764000D02*
X89310000Y-99920000D01*
X89310000Y-102080000D02*
X89310000Y-102236000D01*
X89310000Y-99764484D02*
G75*
G02*
X92541437Y-99920000I1560000J-1235516D01*
G01*
X89829039Y-99920000D02*
G75*
G02*
X91910961Y-99920000I1040961J-1080000D01*
G01*
X91910961Y-102080000D02*
G75*
G02*
X89829039Y-102080000I-1040961J1080000D01*
G01*
X92541437Y-102080000D02*
G75*
G02*
X89310000Y-102235516I-1671437J1080000D01*
G01*
%TO.C,C1*%
D10*
X94000000Y-91920000D02*
X94000000Y-90510000D01*
X94000000Y-92720000D02*
X94000000Y-94130000D01*
X94150000Y-90360000D02*
X95650000Y-90360000D01*
X94150000Y-94280000D02*
X95650000Y-94280000D01*
X95800000Y-90510000D02*
X95800000Y-91920000D01*
X95800000Y-94130000D02*
X95800000Y-92720000D01*
X94000000Y-90510000D02*
G75*
G02*
X94150000Y-90360000I150000J0D01*
G01*
X94150000Y-94280000D02*
G75*
G02*
X94000000Y-94130000I0J150000D01*
G01*
X95650000Y-90360000D02*
G75*
G02*
X95800000Y-90510000I0J-150000D01*
G01*
X95800000Y-94130000D02*
G75*
G02*
X95650000Y-94280000I-150000J0D01*
G01*
%TO.C,R4*%
D13*
X113977064Y-80890000D02*
X112522936Y-80890000D01*
X113977064Y-82710000D02*
X112522936Y-82710000D01*
%TO.C,C4*%
D10*
X102500000Y-77400000D02*
X102500000Y-75990000D01*
X102500000Y-78200000D02*
X102500000Y-79610000D01*
X102650000Y-75840000D02*
X104150000Y-75840000D01*
X102650000Y-79760000D02*
X104150000Y-79760000D01*
X104300000Y-75990000D02*
X104300000Y-77400000D01*
X104300000Y-79610000D02*
X104300000Y-78200000D01*
X102500000Y-75990000D02*
G75*
G02*
X102650000Y-75840000I150000J0D01*
G01*
X102650000Y-79760000D02*
G75*
G02*
X102500000Y-79610000I0J150000D01*
G01*
X104150000Y-75840000D02*
G75*
G02*
X104300000Y-75990000I0J-150000D01*
G01*
X104300000Y-79610000D02*
G75*
G02*
X104150000Y-79760000I-150000J0D01*
G01*
%TO.C,TP8*%
D13*
X139550000Y-87000000D02*
G75*
G02*
X137650000Y-87000000I-950000J0D01*
G01*
X137650000Y-87000000D02*
G75*
G02*
X139550000Y-87000000I950000J0D01*
G01*
%TO.C,TP5*%
X95850000Y-88520000D02*
G75*
G02*
X93950000Y-88520000I-950000J0D01*
G01*
X93950000Y-88520000D02*
G75*
G02*
X95850000Y-88520000I950000J0D01*
G01*
%TO.C,SW1*%
X109975000Y-93750000D02*
X109975000Y-93800000D01*
X109975000Y-93750000D02*
X114875000Y-93750000D01*
X109975000Y-95450000D02*
X109975000Y-96950000D01*
X109975000Y-98650000D02*
X109975000Y-98600000D01*
X109975000Y-98650000D02*
X114875000Y-98650000D01*
X114875000Y-93750000D02*
X114875000Y-93800000D01*
X114875000Y-95450000D02*
X114875000Y-96950000D01*
X114875000Y-98650000D02*
X114875000Y-98600000D01*
%TO.C,JP1*%
D10*
X103900000Y-97980000D02*
X104400000Y-97480000D01*
X103900000Y-101580000D02*
X103900000Y-97980000D01*
X104400000Y-97480000D02*
X105200000Y-97480000D01*
X104400000Y-102080000D02*
X103900000Y-101580000D01*
X105200000Y-97480000D02*
X105700000Y-97980000D01*
X105200000Y-102080000D02*
X104400000Y-102080000D01*
X105700000Y-97980000D02*
X105700000Y-101580000D01*
X105700000Y-101580000D02*
X105200000Y-102080000D01*
%TO.C,R3*%
D13*
X99677064Y-100090000D02*
X98222936Y-100090000D01*
X99677064Y-101910000D02*
X98222936Y-101910000D01*
%TO.C,JP2*%
X97020000Y-75220000D02*
X98400000Y-75220000D01*
X97020000Y-76600000D02*
X97020000Y-75220000D01*
X97020000Y-77870000D02*
X97020000Y-83060000D01*
X97020000Y-77870000D02*
X99780000Y-77870000D01*
X97020000Y-83060000D02*
X99780000Y-83060000D01*
X99780000Y-77870000D02*
X99780000Y-83060000D01*
%TO.C,J3*%
X78280000Y-82740000D02*
X88320000Y-82740000D01*
X78280000Y-85100000D02*
X78280000Y-82740000D01*
X78280000Y-93140000D02*
X78280000Y-85700000D01*
X78900000Y-82740000D02*
X78900000Y-93140000D01*
X80400000Y-82740000D02*
X80400000Y-93140000D01*
X85300000Y-82740000D02*
X85300000Y-93140000D01*
X88320000Y-82740000D02*
X88320000Y-93140000D01*
X88320000Y-93140000D02*
X78280000Y-93140000D01*
X78280000Y-85400000D02*
X77670000Y-85840000D01*
X77670000Y-84960000D01*
X78280000Y-85400000D01*
G36*
X78280000Y-85400000D02*
G01*
X77670000Y-85840000D01*
X77670000Y-84960000D01*
X78280000Y-85400000D01*
G37*
%TO.C,TP3*%
X93350000Y-71400000D02*
G75*
G02*
X91450000Y-71400000I-950000J0D01*
G01*
X91450000Y-71400000D02*
G75*
G02*
X93350000Y-71400000I950000J0D01*
G01*
%TO.C,JP3*%
D10*
X132100000Y-100470000D02*
X132600000Y-99970000D01*
X132100000Y-104070000D02*
X132100000Y-100470000D01*
X132600000Y-99970000D02*
X133400000Y-99970000D01*
X132600000Y-104570000D02*
X132100000Y-104070000D01*
X133400000Y-99970000D02*
X133900000Y-100470000D01*
X133400000Y-104570000D02*
X132600000Y-104570000D01*
X133900000Y-100470000D02*
X133900000Y-104070000D01*
X133900000Y-104070000D02*
X133400000Y-104570000D01*
%TO.C,D4*%
D13*
X96290000Y-85670000D02*
X96290000Y-88970000D01*
X96290000Y-85670000D02*
X103300000Y-85670000D01*
X96290000Y-88970000D02*
X103300000Y-88970000D01*
%TO.C,TP11*%
X122750000Y-88600000D02*
G75*
G02*
X120850000Y-88600000I-950000J0D01*
G01*
X120850000Y-88600000D02*
G75*
G02*
X122750000Y-88600000I950000J0D01*
G01*
%TD*%
M02*
